<svg xmlns="http://www.w3.org/2000/svg" xmlns:xlink="http://www.w3.org/1999/xlink" xml:space="preserve" id="Layer_1" x="0" y="0" style="enable-background:new 0 0 163.7 169.8" version="1.1" viewBox="0 0 163.7 169.8"><style>.st0,.st2{clip-path:url(#SVGID_00000126308045119079656810000010086671615478708926_);fill:#d2232a}.st2{clip-path:url(#SVGID_00000046306125652630259020000008295839677003950517_)}</style><defs><path id="SVGID_1_" d="M0 0h163.7v169.8H0z"/></defs><clipPath id="SVGID_00000013174675476147927320000009325430592432542103_"><use xlink:href="#SVGID_1_" style="overflow:visible"/></clipPath><path d="M86.8 29.5c0-2.3-1.9-4.2-4.1-4.2-2.5 0-4.3 1.9-4.3 4.2 0 2.3 1.8 4.1 4.1 4.2 2.4.1 4.3-1.9 4.3-4.2m-23.4-4.4c.2 0 .3.1.4.1 1 0 2 .1 2.9-.1.7-.1 1.3-.4 1.9-.8.6-.5.8-1 .1-1.7l-.6-.6c-.2-.4-.3-.8.1-1.1.3-.2.6-.4 1-.5.4 0 .8 0 1.2-.1.5 0 1-.1 1.4-.2.6-.1 1.1-.4 1.2-1.1.1-.2 0-.4-.2-.5l-.6-.3c-.2-.1-.5-.2-.8-.2-.3-.1-.5-.2-.5-.5-.1-.5 0-1 .3-1.4.1-.2.3-.3.5-.4.4-.1.9-.1 1.4-.1.3.1.7.1 1.1 0 .5-.1.7-.5.7-1 0-.6-.1-.8-.8-.9h-.2c-.5-.2-.6-.4-.7-.9 0-.4.3-.6.5-.9.3-.3.6-.5.9-.7.2-.2.3-.4.4-.7.1-.3 0-.4-.2-.5-.3-.2-.6-.1-.9 0-.5.2-1.1.5-1.6.8-.8.4-1.6 1-2.3 1.6-.6.5-1.1 1.1-1.6 1.6-.8.9-1.5 1.9-2.1 3-.8 1.5-1.5 3-2 4.6-.3 1.2-.5 2.4-.9 3.5m41.7-8.6c1.4-1 2.8-1.9 4.2-2.8l.2.2c.7 1.1 1.4 2.1 2.1 3.2.2.3.2.3-.1.6-.5.5-1.1.9-1.7 1.4-.6.5-1.3 1-1.9 1.6l-.6.6c-.1.1-.1.3-.1.4.4.8.8 1.5 1.3 2.3.1.2.2.3.4.5-.1.4-.6.6-.8 1-.3-.3-.5-.7-.7-1-.4-.7-.9-1.4-1.3-2-.1-.2-.3-.2-.4-.1-.2.1-.4.3-.6.5-.2.2-.2.4 0 .6.5.8.9 1.7 1.5 2.4.4.6.9 1.1 1.3 1.7 0 .1.1.1.1.2H87.7c.2.6.3 1.1.5 1.7h19.9c.3 0 .5.1.8.3.8 1.1 1.7 2.1 2.7 3 .9.8 1.8 1.5 2.8 2.1.4.2.8.5 1.3.7-.1 0-.3.1-.4.1-.4 0-.7 0-1.1.1-.9.1-1.7.1-2.6.2-1.5.1-3 0-4.5.1h-.7c-.9 0-1.7 0-2.6-.1-.7 0-1.4-.2-2.1-.2-.5-.1-1.1-.1-1.6-.2-.7-.1-1.4-.2-2.1-.4-1.7-.5-3.4-1-5.1-1.6-.9-.6-1.9-1-3-1.5-.5-.2-1-.5-1.5-.7-.3-.2-.5-.1-.6.2-.2.5-.5 1-.8 1.4-.1.1-.1.1-.1.2-.1.2 0 .4.1.5 1 .7 1.9 1.4 2.9 2.1 1 .7 2.1 1.3 3.1 1.9.7.4 1.4.9 2.1 1.3 1.2.8 2.5 1.5 3.7 2.3.9.6 1.8 1.2 2.8 1.7 1 .6 2 1.3 3.1 1.9.5.3 1 .7 1.6 1 1.2.6 2.3 1.4 3.5 2.2.8.5 1.5 1 2.3 1.5 0 0 .1 0 .1.1-1 1.3-2 2.6-3.1 3.8-.3-.2-.7-.4-1-.7-.7-.5-1.4-1-2-1.5-1.2-.9-2.4-1.7-3.6-2.6-1.2-.9-2.5-1.7-3.7-2.6-.9-.6-1.8-1.2-2.7-1.9-1.2-.8-2.4-1.7-3.6-2.5l-3-2.1c-1-.7-2.1-1.4-3.1-2.2h-.2v14.9c-.3.1-5 .1-6 0V37.2c-1.6 1.1-3 2.2-4.4 3.3-1.4 1.1-2.8 2.3-4.2 3.4-.4-.6-.8-1.2-1.2-1.7-.6-.9-1.2-1.7-1.8-2.6-.1-.1-.1-.3-.1-.4 3.8-1.4 7.3-3.3 10.5-5.8-.4-.5-.7-1-1.1-1.5-.1-.2-.3-.1-.4-.1-.5.2-1.1.4-1.6.6-1.2.4-2.4.9-3.6 1.1-.7.1-1.3.2-2 .3l-2.4.3c-.5 0-1 0-1.4.1-1 .1-1.9.1-2.9.1-.7 0-1.3 0-2-.1-.7 0-1.4-.1-2-.2-.6-.1-1.3-.2-1.9-.2-.6-.1-1.1-.1-1.8-.2l.3-.3c.8-.6 1.4-1.4 2.1-2.2.5-.6 1.1-1.1 1.6-1.6.3-.4.7-.4 1.2-.4 2.6 0 5.2.1 7.9 0 2.2-.1 4.5 0 6.7-.1.4 0 .9.1 1.3.1s.4 0 .4-.4.1-.8.2-1.2v-.2h-.3c-3.1 0-6.2-.1-9.3-.1h-4c-.9 0-1.7.1-2.6.1h-.5c.1-.3.1-.6.2-.9.2-.8.5-1.6.7-2.4.1-.3 0-.5-.2-.7-.5-.5-1.1-.8-1.7-1.3-.1-.1-.3-.2-.4-.3-.3-.3-.3-.3-.1-.7.4-.8.8-1.7 1.4-2.4.1-.2.3-.2.5-.1s.5.2.7.4c.4.2.9.4 1.4.5.2-.4.5-.8.7-1.2.8-1.5 1.6-2.9 2.6-4.3.6-.9 1.4-1.7 2.2-2.4.9-.8 1.9-1.5 3-2.1.9-.5 1.9-.9 2.9-1.2.9-.3 1.8-.5 2.8-.7.8-.1 1.7-.2 2.5-.2.4 0 .9-.1 1.3-.1.7 0 1.3.1 1.9.2.5 0 1 .1 1.5.2.9.2 1.8.3 2.6.5 1.2.3 2.4.8 3.6 1.3.6.3 1.2.7 1.8 1 .6.3 1.2.7 1.7 1.1.7.5 1.3.9 1.9 1.4.6.4 1.1.9 1.6 1.4.8.7 1.5 1.4 2.2 2.1.5.5 1 1.1 1.5 1.7.2.3.3.3.6 0 .1-.1.2-.2.4-.3-.3-.4-.5-.7-.8-1.1-.5-.7-1.1-1.3-1.6-2-.7-.8-1.4-1.5-2.1-2.2-1.1-1-2.3-1.9-3.6-2.6-.9-.5-1.7-1-2.6-1.4-1.3-.6-2.6-1.1-4.1-1.5-.7-.2-1.5-.4-2.2-.5-.5-.1-1-.2-1.4-.2-.4-.1-.9-.1-1.3-.2h-2.7c-.8.1-1.6.2-2.5.3-1.1.1-2.2.5-3.3.8-1 .4-2 .8-2.9 1.4-.9.6-1.8 1.1-2.6 1.6-.4.2-.8.1-1.1-.1-.5-.2-.8-.6-1.2-1-.3-.3-.5-.7-.7-1.1-.1-.3-.2-.6-.2-.9v-1c.1-.5.4-.9.7-1.2.6-.7 1.4-1.2 2.2-1.7.9-.5 1.7-1 2.7-1.5.9-.5 1.9-.8 2.9-1 .9-.2 1.8-.4 2.6-.6.4-.1.9-.1 1.3-.2.7-.1 1.3-.1 2-.2.7.3 1.5.3 2.3.3 1.3.1 2.7.2 4 .5 1.5.3 3 .8 4.4 1.4 1.6.7 3.1 1.6 4.5 2.6.8.5 1.5 1.2 2.2 1.8.5.4.9.8 1.4 1.2.4.4.7.8 1.1 1.2.2.3.5.5.7.8.4.5.7.9 1.1 1.4.6.9 1.3 1.8 1.8 2.8.4.7.8 1.5 1.1 2.3.1.1.2.3.3.5M50.7 29.6c-3-1.8-5.9-3.6-8.7-5.6.2-.4.5-.5.7-.7.6-.5 1.1-1 1.7-1.5 1-1 1.8-2.1 2.5-3.3.6-.9 1.1-1.9 1.7-2.9.9-1.5 1.7-3 2.7-4.5.3-.5.7-.9 1.1-1.4.3-.3.6-.6.8-.9.6-.6 1.3-1 2-1.4.4-.2.8-.5 1.2-.6.8-.4 1.7-.7 2.5-1 1-.4 1.9-.7 2.9-1 .6-.2 1.3-.4 2-.6v.2c-.4.4-.7.8-1.1 1.2-1.2 1.3-2.4 2.7-3.3 4.2-.7 1.1-1.2 2.3-1.5 3.7 0 .3-.1.6-.2.9 0 .5.1 1 .3 1.4.3.8.7 1.4 1.3 1.9.1.1.2.1.2.2-.4 1.2-.9 2.2-1.5 3.2-.1.2-.2.2-.4.1-.5-.2-1.1-.4-1.6-.5-.7-.2-1.3-.2-2 0-.6.2-1.1.6-1.5 1.1-.8.9-1.1 2.1-1.3 3.2-.1.7-.2 1.5-.2 2.2-.1.6-.1 1.2-.2 1.7 0 .2 0 .4-.1.7" style="clip-path:url(#SVGID_00000013174675476147927320000009325430592432542103_);fill:#d2232a"/><path d="M61.6 52.6c-.8-1.2-1.6-2.4-2.4-3.7-.6-1-1.2-1.9-1.9-2.9-.2-.3-.3-.6-.5-.9-.1-.3-.1-.3.2-.5 1.3-.7 2.6-1.5 3.9-2.2l3.6-2.1c.3-.2.6-.3.9-.3.6 0 1.1.3 1.6.7.5.4.8 1 1.2 1.5.4.5.7 1.1 1.1 1.6.3.5.8 1.1 1 1.7.2.5 0 1.2-.4 1.6-1.1 1-2.4 1.8-3.7 2.6-.6.4-1.3.8-1.9 1.2-.8.5-1.6 1-2.4 1.4-.1.2-.2.2-.3.3M109 37h4.2c.6 0 1.3-.1 1.9-.2.4 0 .9-.1 1.3-.2.2 0 .5-.1.7-.1.2 0 .3 0 .5.1.4.4.8.7 1.2 1.1.4.5.8.9 1.2 1.4l1.2 1.5c.2.2.3.4.4.6.1.1.1.3.1.5-.2 1.2-.5 2.4-1.1 3.5-.3.6-.6 1.2-.8 1.8-.5 1-1.3 1.8-2.1 2.5-.1-.7-.3-1.4-.4-2.1-.3-1.1-.7-2.2-1.2-3.2-.4-.8-.9-1.5-1.5-2.3-.6-.9-1.4-1.6-2.2-2.4-.6-.6-1.3-1-1.9-1.5-.4-.3-.8-.5-1.2-.8-.1 0-.2-.1-.3-.2M49.2 48.8c1.8-1 3.5-1.9 5.3-2.9 1.8 2.8 3.6 5.5 5.4 8.3-1.7 1.1-3.5 2.2-5.2 3.3-2-2.8-3.7-5.7-5.5-8.7M112.7 16.7l-2.4-3.6c.6-.3 1.1-.6 1.6-.9.7-.4 1.5-.9 2.2-1.3.8-.5 1.6-.9 2.5-1.4h.3c.3.1.5.4.7.6.3.4.5.9.7 1.3-.5.8-1.2 1.4-1.9 2-.3.2-.5.4-.7.6-.9.7-1.8 1.5-2.7 2.2-.1.2-.2.3-.3.5M82.6 26.8c1.5-.1 2.8 1.2 2.8 2.7 0 1.4-1.1 2.9-3 2.8-1.3 0-2.7-1.3-2.6-2.9.1-1.4 1.5-2.8 2.8-2.6" style="clip-path:url(#SVGID_00000013174675476147927320000009325430592432542103_);fill:#d2232a"/><path d="M56.8 118.1h-6.1v-48l-9.1 5.6v-6.5l7.6-5.1h7.6z" style="fill:#d2232a"/><defs><path id="SVGID_00000072238917254200671920000015902842034475220924_" d="M0 0h163.7v169.8H0z"/></defs><clipPath id="SVGID_00000049937794504679980410000013403165150293025722_"><use xlink:href="#SVGID_00000072238917254200671920000015902842034475220924_" style="overflow:visible"/></clipPath><path d="M80.6 111.1c1-1.1 1.5-2.7 1.5-4.8V75.9c0-2.1-.5-3.7-1.5-4.8-1-1.1-2.5-1.7-4.3-1.7-1.9 0-3.3.6-4.3 1.7s-1.5 2.7-1.5 4.8v30.3c0 2.1.5 3.7 1.5 4.8 1 1.1 2.5 1.7 4.3 1.7 1.9.1 3.3-.5 4.3-1.6m-13.2 4.3c-2.1-2.2-3.2-5.2-3.2-9.1V75.9c0-3.9 1-7 3.2-9.1 2.1-2.2 5.1-3.2 8.9-3.2s6.8 1.1 8.9 3.2c2.1 2.2 3.2 5.2 3.2 9.1v30.3c0 3.9-1.1 7-3.2 9.1-2.1 2.2-5.1 3.2-8.9 3.2s-6.8-1-8.9-3.1M112.2 111.1c1-1.1 1.5-2.7 1.5-4.8V75.9c0-2.1-.5-3.7-1.5-4.8-1-1.1-2.5-1.7-4.3-1.7-1.9 0-3.3.6-4.3 1.7s-1.5 2.7-1.5 4.8v30.3c0 2.1.5 3.7 1.5 4.8 1 1.1 2.5 1.7 4.3 1.7 1.8.1 3.2-.5 4.3-1.6m-13.3 4.3c-2.1-2.2-3.2-5.2-3.2-9.1V75.9c0-3.9 1-7 3.2-9.1 2.1-2.2 5.1-3.2 8.9-3.2s6.8 1.1 8.9 3.2c2.1 2.2 3.2 5.2 3.2 9.1v30.3c0 3.9-1.1 7-3.2 9.1-2.1 2.2-5.1 3.2-8.9 3.2s-6.8-1-8.9-3.1" style="clip-path:url(#SVGID_00000049937794504679980410000013403165150293025722_);fill:#d2232a"/><path d="M84.3 150.4c.1-.4-.1-.8-.6-1.2-.1 0-.1-.1-.2-.2-.7-.5-1.3-.9-2.2-.7-.6.2-1 .4-1.3.9-.4.7-.5 1.4-.4 2.2.1 1 .4 1.9 1 2.7.4.6.8.6 1.4.2.3-.3.7-.5 1-.8.8-.8 1.3-1.8 1.3-3.1m-2.7 7.1c-.7.3-1.2.8-1.7 1.4-.8 1-.9 2.2-1 3.3 0 .5.1 1.1.2 1.6.3 1.1.8 2.1 1.7 2.9.4.4.9.7 1.4.6 1.2-.1 2.1-.7 2.7-1.7.8-1.1.9-2.3.5-3.6-.3-1.1-1-2-1.7-2.8-.5-.6-1.2-1.1-1.8-1.6 0 0-.1-.1-.3-.1m4.6-1.5c.3.2.6.3.8.4.7.4 1.4.9 2 1.4.5.4.8.9 1.2 1.4.8 1.1 1.5 2.2 2.2 3.4.6 1.2 1.3 2.3 2.1 3.4.8 1.2 1.9 2 3.5 2.3.6.1 1.3 0 1.9-.2.4-.1.7 0 .9.3.3.4.2 1-.3 1.2-.4.2-.8.3-1.2.3-1.4.1-2.8-.1-4-.9-1-.6-1.8-1.4-2.4-2.4-.5-.7-.9-1.5-1.3-2.2-.7-1.2-1.4-2.4-2.1-3.5-.5-.8-1.1-1.5-1.8-2.2-.9-.8-1.9-1.3-3.1-1.6H84c.4.4.6.7 1 .9.7.6 1.3 1.3 1.7 2.2.4.8.7 1.7.7 2.6 0 .9 0 1.7-.3 2.6-.5 1.2-1.3 2.2-2.5 2.8-.5.3-1.1.5-1.7.6-.6.1-1.1 0-1.7-.2-1.2-.5-2-1.4-2.6-2.5-.8-1.4-1.2-3-1-4.6.1-1 .3-2 .8-2.9.1-.1.1-.2.2-.4-.2.1-.3.1-.4.2-.7.4-1.3 1-1.8 1.7-.9 1.2-1.5 2.6-2.2 3.9-.6 1.2-1.3 2.4-2.2 3.4-.9 1-1.9 1.8-3.2 2.3-1.2.4-2.3.4-3.4-.3-.4-.3-.8-.7-1.1-1.2-.6-.9-1-1.9-1.2-3-.1-.3-.1-.6.2-.9.2-.2.5-.3.8-.3.3.1.5.3.6.6.1.6.3 1.1.5 1.7.2.6.6 1.1 1 1.5.7.6 1.6.5 2.3.1.8-.4 1.5-.8 2.1-1.5.7-.9 1.3-1.8 1.8-2.8.6-1.1 1.2-2.3 1.8-3.4.9-1.6 2.1-2.9 3.9-3.7.3-.1.5-.3.9-.5-1-.1-1.9-.2-2.8-.3-.7-.1-1.3-.2-2-.3-.7-.1-1.5-.2-2.2-.4-.8-.1-1.6-.3-2.4-.5-1.5-.4-3-.7-4.5-1.1-1.5-.4-3.1-.9-4.6-1.4-1.3-.4-2.5-.9-3.8-1.5-1.3-.5-2.5-1.1-3.8-1.7-1.3-.6-2.5-1.3-3.8-2-1.9-1-3.7-2.1-5.5-3.4-1.1-.8-2.3-1.6-3.4-2.4-1.2-.9-2.4-2-3.6-2.9-1.6-1.3-3.1-2.7-4.5-4.2-.9-.9-1.6-1.8-2.5-2.7-.6-.7-1.3-1.5-1.9-2.2-.5-.7-1.1-1.3-1.6-2-.9-1.2-1.8-2.5-2.6-3.8-.7-1.1-1.4-2.2-2-3.3-.7-1.2-1.4-2.4-2-3.7-.9-1.9-1.8-3.7-2.5-5.7-.3-.8-.7-1.7-.9-2.5-.5-1.7-1.1-3.5-1.5-5.2-.3-1.2-.5-2.4-.7-3.6l-.6-3.3c-.1-.5-.1-1-.1-1.4-.1-.6-.1-1.2-.2-1.8v-.1c0-.8-.1-1.5-.1-2.3v-5.7c0-.8.1-1.6.1-2.3.1-.8.1-1.5.2-2.3l.6-3.6c.2-1 .4-2.1.6-3.1.2-1 .4-2.1.7-3.1.5-1.7 1-3.3 1.6-5 .6-1.6 1.2-3.1 1.9-4.7.7-1.7 1.6-3.3 2.4-4.9.7-1.3 1.4-2.5 2.2-3.7.1-.1.2-.3.3-.3.4-.3.7-.3 1.1 0 .3.2.4.7.2 1.1-.3.5-.7 1.1-1 1.6-.3.5-.6.9-.8 1.4-1.1 1.9-2 3.8-2.9 5.8-.8 1.8-1.5 3.6-2.1 5.5-.6 2-1.2 3.9-1.7 5.9-.3 1.3-.5 2.6-.7 3.9-.2.9-.3 1.7-.4 2.6-.1.5-.1 1-.1 1.5-.1.6-.1 1.2-.2 1.9v.2c-.2 2.4-.1 4.9-.1 7.3 0 1.1.1 2.2.2 3.3.1 1.3.4 2.6.6 3.9.3 2.4.9 4.8 1.6 7.2.4 1.3.8 2.5 1.2 3.7.6 1.8 1.3 3.6 2.2 5.4.7 1.5 1.4 3 2.2 4.4.7 1.3 1.5 2.6 2.3 3.9.7 1.1 1.4 2.1 2.2 3.2l2.1 2.7c.6.8 1.2 1.5 1.9 2.2.2.3.5.6.7.8 1.6 1.6 3.2 3.3 4.9 4.9 1.5 1.4 3.2 2.7 4.8 4 1.5 1.1 3 2.2 4.6 3.2 1.4.9 2.8 1.7 4.2 2.5 1.6.9 3.3 1.8 5 2.5 1.7.8 3.4 1.4 5.1 2.1 1.4.5 2.8 1 4.3 1.4 1.8.5 3.7 1 5.6 1.4 1.1.3 2.2.5 3.3.7.9.2 1.8.2 2.8.4l2.7.3h.2c-.2-.6-.4-1.1-.5-1.7-.3-.9-.3-1.8-.1-2.7.1-.7.3-1.4.7-2 .5-.6 1.1-1 1.9-1.2.3-.1.5-.1.8-.1 1.1-.1 1.9.4 2.8.9.6.4 1.1.9 1.4 1.6.2.5.4 1.1.2 1.7-.1.2 0 .5-.1.8-.2.9-.6 1.8-1.3 2.5 0 0 0 .1-.1.2.1 0 .3.1.4 0 .5-.1 1.1-.1 1.6-.2.4 0 .9-.1 1.3-.1.9-.1 1.8-.3 2.7-.4 1.1-.2 2.2-.4 3.2-.6 1-.2 2-.4 2.9-.7 1.8-.5 3.7-1.1 5.5-1.7 1.5-.5 2.9-1.1 4.3-1.7 1.8-.8 3.5-1.6 5.3-2.5 1.3-.6 2.5-1.4 3.7-2.1.8-.4 1.5-.9 2.2-1.4 1.5-1 3-2.1 4.4-3.2.9-.7 1.8-1.5 2.7-2.2 2-1.6 3.7-3.4 5.5-5.2.9-.9 1.8-1.9 2.6-2.9 1-1.2 2-2.4 2.9-3.7.9-1.2 1.7-2.4 2.4-3.6 1-1.6 2-3.2 2.9-4.9.5-1 1-2 1.4-2.9.4-1 .9-1.9 1.3-2.9.7-1.6 1.2-3.2 1.7-4.8.6-1.9 1.1-3.8 1.5-5.7.2-1.1.5-2.2.7-3.3.1-.7.2-1.4.2-2 .1-.9.2-1.7.3-2.6V93c0-.8.1-1.5.1-2.3 0-1.3.1-2.7.1-4 0-1.1-.1-2.2-.2-3.3 0-.6-.1-1.3-.1-1.9-.1-.7-.1-1.4-.2-2.1-.1-.6-.2-1.3-.3-1.9-.2-.9-.3-1.7-.5-2.6-.3-1.4-.7-2.7-1-4.1-.2-.9-.5-1.8-.8-2.7-.8-2.4-1.7-4.8-2.7-7.1-.9-2-1.9-3.9-2.8-5.8-.2-.3-.4-.6-.3-1 0-.3.2-.5.4-.6.3-.1.6-.2.8.1l.4.4c.4.8.9 1.5 1.2 2.3.6 1.2 1.2 2.4 1.7 3.7 1 2.2 1.9 4.5 2.7 6.8.6 2 1.2 4 1.7 6 .4 1.4.6 2.9.8 4.3.2.9.3 1.7.4 2.6.1.5.1 1 .1 1.4.1.6.1 1.3.2 1.9v.1c0 2.2.1 4.5.1 6.7 0 .7-.1 1.3-.1 2l-.3 3c-.1.8-.1 1.5-.2 2.3-.1.7-.2 1.5-.4 2.2-.2 1.2-.5 2.5-.8 3.7-.2.9-.5 1.8-.7 2.7-.3 1-.6 2-1 3-.7 1.9-1.4 3.7-2.2 5.6-.6 1.3-1.2 2.6-1.9 3.9-.9 1.7-1.9 3.4-3 5-1.3 2-2.7 3.9-4.2 5.8-.6.8-1.3 1.5-1.9 2.2-.6.7-1.3 1.4-1.9 2.1-1.1 1.1-2.2 2.3-3.3 3.3-.8.8-1.8 1.5-2.7 2.3-1.5 1.3-3 2.5-4.7 3.6-1.5 1-3 2-4.6 2.9-1.8 1.1-3.7 2.1-5.6 3-2.4 1.2-4.9 2.2-7.5 3.1-2.7 1-5.5 1.8-8.3 2.4-1.5.4-3.1.6-4.7.9-1 .2-2 .2-2.9.4-.8.5-1.1.6-1.5.7" style="clip-path:url(#SVGID_00000049937794504679980410000013403165150293025722_);fill:#d2232a"/><path d="M133.6 143.1c-.3.2-.4.5-.4.8 0 .3-.1.6-.1.9 0 .2-.2.3-.4.4-.6.2-1.2.1-1.7-.3-.6-.4-1.1-.8-1.5-1.4-.3-.4-.7-.6-1-1-.4-.5-.8-.9-1.3-1.2-.5-.3-1-.5-1.5-.7.1 0 .2-.1.3-.1.4-.2.8-.4 1.2-.7.8-.6 1.4-1.3 2-2 .9-1.1 1.7-2.1 2.7-3 .4-.3.8-.6 1.3-.7.4-.1.8 0 1 .4l.6 1.2c.6-.1.8-.3.9-.9.1-.3.2-.6.2-1 0-.6.3-1.1.7-1.5.3-.4.7-.8 1.2-1 .7-.3 1.3-.2 1.6.6.1.3.2.6.3.8 0 .1.1.3.2.4.3.3.6.3.8 0 .3-.5.5-1 .7-1.6.1-.6.3-1.1.7-1.6.4-.4 1.2-.4 1.6 0l.3.3c.4.3.4.7.2 1.2-.1.2-.1.3-.2.5-.2.5-.1.6.4.8.5-.6 1-1.2 1.5-1.7.7-.7 1.9-.7 2.6.1.7.7.9 1.6.8 2.5 0 .4-.3.7-.5 1-.4.4-.8.7-1.4.8-.4.1-.8.2-1 .6.4.3.8.5 1.2.7 1 .5 1.1 1.9.1 2.7-.5.4-1.1.3-1.6.2-.8-.1-1.6-.4-2.4-.5-.3-.1-.7-.1-1-.1-.2 0-.3.2-.4.3 0 .1.1.3.2.4.3.3.6.7.9 1 .7.8.5 1.8-.5 2.3-.6.3-1.1.1-1.6-.1-.9-.4-1.7-1-2.5-1.5-.2-.1-.4-.4-.8-.1-.2.2-.3.5 0 .8l.6.9.1.1c.3.3.6.7.4 1.2-.2.6-.7.9-1.4.9s-1.3 0-1.9-.4c-.2-.1-.4-.2-.5-.4-.4-.4-.8-.8-1.2-1.1-.2 0-.4-.1-.5-.2M137 42.5c.2-.2.4-.3.6-.4.6-.5 1.3-.5 2-.5.1 0 .2.1.3.1.9.5 1.4 1.7 1.2 2.7-.2 1.2-.8 2.2-1.2 3.3-.3.8-.6 1.7-.8 2.5-.1.8-.1 1.6.1 2.4-.4.3-.8.4-1.3.2-.2-.1-.3-.2-.5-.3-.6-.4-1.3-.5-2.1-.4-1.1.2-2.1.3-3.2 0-.7-.2-1.1-.6-1.1-1.2 0-.7.2-1.3.9-1.6.4-.1.7-.4.8-.8-.7-.4-1.4-.6-2.2-.4-.6.1-1.2.1-1.8.1-.7 0-1.3-.4-1.5-1-.3-.6-.1-1.2.4-1.7.2-.2.5-.4.8-.5.3-.1.7-.2.8-.6-.5-.7-1.2-.7-1.9-.6-.4.1-.7.1-1.1.2-1.1.1-1.8-.7-2.2-1.4-.2-.4-.2-.9-.1-1.4.1-.6.7-1 1.5-1 .5 0 1.1-.1 1.6-.1.1 0 .3-.1.4-.1-.1-.6-.7-.6-1.1-.9-.3-.2-.6-.3-.9-.4-.6-.3-.8-.8-.9-1.4 0-.6.1-1 .4-1.5.3-.5.9-.6 1.4-.5.8 0 1.1.6 1.4 1.1.2.3.5.6.8.9.1.1.3.1.6.2 0-.2.1-.3.1-.4v-1.5c0-.5.4-.8.9-.9 1 0 1.6.4 2 1.3.3.8.5 1.6.6 2.4v.6c0 .3.1.6.3.7.2.1.5 0 .6-.2.1-.4.3-.9.3-1.3.1-.3.1-.7.5-.8.4-.1.8-.1 1.1.2.3.3.5.7.8 1 .4.6.6 1.3.5 2 0 .3-.1.7-.1 1-.1.5 0 .8.3.9M152.1 49.9c.6-.2 1-.6 1.6-.5.8 0 1.5.4 1.8 1.2.5 1.1.2 2.2-.4 3.2-.2.4-.5.7-.8 1.1.4.1.7.1 1.1.1.7.1 1.2.4 1.5 1.1.4 1.4-.1 2.9-1.2 3.7-.2.2-.5.4-.7.6l.7.7c.4.3.6.7.8 1.1.2.5.2 1.1 0 1.7-.4.9-1.1 1.4-2 1.7-.7.2-1.5.5-2.2.8-1.5.5-2.4 1.6-3 3-.1.2-.1.3-.2.5-.2-.1-.2-.3-.2-.5v-.8c.1-1-.3-1.8-.8-2.6-.6-.9-1.2-1.8-1.7-2.7-.4-.8-.5-1.7-.3-2.6.1-.4.4-.5.7-.4.5.1.5.1.9-.1-.1-.3-.3-.6-.5-.8-.4-.5-.9-1-1.3-1.6-.3-.5-.6-1-.6-1.6 0-.7.4-1.1 1.1-1.3.3-.1.5-.2.8-.3-.2-.4-.4-.7-.6-1-.2-.3-.4-.7-.6-1-.2-.6-.3-1.3.2-1.8.4-.5.8-.5 1.3-.2.1 0 .1.1.2.1.2.1.3.4.5.2.3-.1.4-.4.4-.6 0-.2 0-.5-.1-.7-.1-.3-.3-.6-.4-.8-.1-.3-.3-.6-.1-1 .1-.3.1-.7.2-1 .2-.7.6-1 1.2-1.1.5-.1 1-.1 1.4.1.3.1.6.3.8.6.2.5.5.9.6 1.4.1.2 0 .4-.1.6-.1.3-.1.6-.3 1-.1 0 0 .2.3.5M116.2 150.6c.4-.2.6-.5.9-.8.3-.4.5-.9.8-1.3.4-.6 1.6-1.1 2.3-.9.6.1 1.1.8.9 1.5-.1.2-.2.5-.3.7-.1.2 0 .5.2.7.2.2.4.2.7.1.4-.1.8-.4 1.1-.7.5-.4 1-.8 1.4-1.2.6-.5 1.3-.5 2-.3.5.2.8.6.9 1.1.1.3-.1.5-.3.7-.1.1-.3.3-.4.5-.2.3-.1.5.2.6.3.2.7.3 1.1.2.6-.1 1.2-.3 1.8-.4.5-.1 1-.2 1.4.2.5.5.7 1.1.5 1.7 0 .1-.1.1-.1.2.1.9-.6 1.1-1.2 1.4-.6.3-1.2.4-1.9.4h-.7c-.5 0-.8.4-.6.9.1.3.3.5.5.8.5.8.4 1.3-.6 1.5-1.4.3-2.7 0-3.7-1l-.6-.6c-.5.2-.6.3-.6.8v.7c0 .7-.4 1.1-1.1 1.1-.8 0-1.5-.2-2.2-.6-.5-.3-.7-.9-1-1.4-.3-.4-.5-.8-.8-1.2-.1-.1-.2-.1-.5-.2v1.3c0 .6-.2.9-.9.9-1.3 0-2.3-.4-3-1.5-.4-.6-.7-1.2-1.1-1.8-.4-.6-.8-1.3-1.2-1.9-.4-.5-1-.8-1.5-1.2 0-.1.2-.2.4-.3.8-.2 1.4-.6 2.1-1.1.6-.5 1.2-1 1.9-1.4 1.1-.6 1.8-.4 2.7.4.1.1.2.4.2.5 0 .5 0 .7.3.9M143.9 119.2l1.2-4.2c.1-.4.3-.8.5-1.1.3-.6.8-.8 1.5-.5.3.1.6.2.8.3.5-.4.3-.9.2-1.4 0-.6-.1-1.2-.1-1.8 0-.7.3-1.3.6-1.9.2-.3.4-.6.7-.8.3-.2.5-.2.7 0 .2.1.4.3.6.4.3.2.5.4.8.5.6-.4.7-.9.7-1.5.1-.6.1-1.2.2-1.7.1-.7.7-1 1.4-1.1.2 0 .4.1.5.3.2.3.2.6.4.9.1.2.2.5.3.7.3.3.8.3 1-.1.2-.3.3-.6.4-.9.1-.3.2-.6.4-.8.4-.6.9-.8 1.6-.6 1.2.2 2 .9 2.2 2.4 0 .5-.1 1-.3 1.4-.2.4-.5.7-.9 1-.4.3-.9.7-1.2 1 0 .4.2.5.4.6.3.1.7.2 1 .3.6.2 1.1 1 .7 1.9-.5.8-1.3 1.2-2.2 1.4-.3.1-.7-.1-1-.2-.5-.1-.9-.2-1.3.2-.2.1-.3.4-.4.5.4.3.7.5 1 .8.7.7.8 1.5.3 2.4-.3.4-.8.5-1.3.6-1.2.3-2.4 0-3.5-.4-.1-.1-.3-.1-.4-.1-.1.3-.1.6.2.8.3.3.7.7.9 1 .3.4.3.8-.1 1.3-.6.6-1.3.6-2.1.5-1-.2-1.8-.7-2.6-1.2-.6-.3-1.3-.7-2-.9-.5-.1-1 0-1.5 0h-.3M159.1 89.5c.8.4.8 1.1.7 1.8 0 .1-.1.2-.2.3-.5.5-1.2.9-1.9 1-.9.2-1.8.2-2.7.3-1.3 0-2.5.2-3.7.9.3-1.3.3-2.5.2-3.7 0-.8-.2-1.5-.5-2.2-.1-.1-.1-.3-.1-.4.1-.7.1-1.4.5-2 .4-.6.8-.7 1.4-.4.1.1.2.1.4.2s.4 0 .5-.1c.1-.1.1-.3 0-.4-.2-.6-.5-1.1-.7-1.7-.2-.4-.3-.9-.3-1.4 0-.5.2-.9.6-1.3.2-.2.3-.2.5-.1l.6.3c.4.2.6.1.9-.2-.2-.7-.4-1.3-.6-2-.1-.5-.1-1-.1-1.4 0-.3.3-.5.7-.5.4 0 .7.1 1 .3.2.2.5.4.8.6.3.2.5.1.6-.1.3-.4.5-.9.5-1.4.1-.6.1-1.2.3-1.7.4-1 1.1-1.2 1.9-.7.7.4 1.1 1.1 1.1 2 0 .5-.2.9-.2 1.4-.1.4-.1.7-.1 1.1 0 .5.4.7.8.6.4-.1.8-.1 1 .1.4.3.6.7.6 1.2.1 1-.3 1.8-1.2 2.4-.5.3-.9.7-1.3 1-.3.2-.3.3-.3.8.3.3.8.3 1.2.4.2.1.5.1.6.2.4.2.6.5.7 1 .1 1.2-1 2.8-2.4 3.2l-1.5.6c0-.2-.1-.2-.3 0M13.5 67.9c-.5-.5-1-1.1-1.5-1.6-.9-.9-1.4-1.9-1.9-3-.5-1-.8-2-1-3-.2-.8-.3-1.7-.4-2.6-.1-.9-.1-1.8-.1-2.7.1-1 .2-2 .4-3 .2-1.1.6-2.2 1-3.3.6-1.6 1.5-3.2 2.5-4.6.3-.4.6-.7 1-1.1l1.5 1.8c.2.3.4.7.5 1.1.4 1.1.9 2.2 1.1 3.3.1.7.3 1.5.4 2.2.1.5.1 1 .1 1.5V56c0 .9-.2 1.8-.3 2.7l-.6 2.7c-.3 1.3-.7 2.5-1.3 3.7-.4.9-.9 1.8-1.3 2.7 0-.1-.1 0-.1.1M146.1 87.9c.3.3.7.5 1 .8.6.4.6 1 .4 1.6-.1.6-.3 1.1-.5 1.6-.2.6-.2 1.1.1 1.7-.4.3-.9.2-1.3.1-.5-.1-1-.2-1.6-.1-.7.1-1.4 0-2-.1-.4-.1-.7-.3-.9-.6-.2-.2-.1-.6.1-.9l.6-.6c-.4-.4-.8-.5-1.3-.5-.6 0-1.1-.1-1.6-.4-.5-.3-.8-.7-.8-1.3v-.4c0-.5.2-.7.6-.9.2-.1.3-.1.6-.3-.4-.3-.8-.6-1.2-.8-.3-.2-.5-.4-.8-.7-.4-.4-.4-1.4 0-1.8.3-.3.5-.6 1-.6.1 0 .2-.1.4-.2-.1-.2-.2-.3-.3-.4-.5-.4-1-.8-1.4-1.2-.4-.4-.7-.8-.8-1.3-.1-.8.2-1.6 1-1.8.2-.1.4-.1.6 0 .2.1.4.2.6.2.3.1.5-.2.4-.5-.1-.2-.2-.4-.4-.6-.4-.4-.6-.8-.7-1.3-.1-.3 0-.6.1-.8.3-.4.6-.7 1.2-.8.9 0 1.5.4 2 1 .1.1.1.2.1.2 0 .5.3.9.6 1.2.3.4.6.5 1 .2.2-.1.3-.3.5-.4.6-.4 1.3-.2 1.7.4.2.4.3.8.4 1.2 0 .8-.1 1.6-.6 2.3-.2.4-.3.8-.3 1.3 0 .4.4.5.7.3.2-.1.4-.3.6-.4.4-.3.8-.2 1 .2.4.8.5 1.5.4 2.4-.2.9-.6 1.6-1 2.4-.1.3-.1.5-.2.6M96.9 160.7c-.1.2-.3.4-.4.6-.3.4-.8.7-1.3.4-.3-.2-.5-.4-.7-.7-.4-.7-.5-1.5-.8-2.3-.3-1.1-.4-1.3-1.2-2.1 1.3-1 2.7-1.5 4.3-1.7.8-.1 1.6-.1 2.4 0 1.2.2 1.5.9 1.3 2.1 0 .2-.1.4 0 .5.2.6.4.7.9.5.6-.2 1.3-.5 1.9-.7.6-.2 1.2-.4 1.8-.3 1 .1 1 .1 1.3 1 .1.2.1.4.2.6.2.4.4.4.7.2.9-.5 1.9-.4 2.9-.2.5.1.9.7.9 1.2 0 .3-.2.6-.5.7-.3.1-.6.3-.9.5-.2.1-.3.2-.5.4.2.1.3.3.4.3 1.2.2 2 1.1 2.8 1.9.6.7.4 1.5-.4 1.9-.8.4-1.6.6-2.5.1-.3-.2-.6-.5-.9-.7-.4-.3-.9-.5-1.5-.4-.3 0-.4.1-.4.4 0 .3.1.7.3 1 .2.4.2.7.2 1.1-.5.4-1 .4-1.6.2-.2 0-.4-.1-.6-.1-.9-.2-1.4-.8-1.7-1.7-.1-.3-.2-.7-.4-1-.2-.5-.5-.6-1-.3-.2.1-.4.2-.5.4-.4.5-1 .7-1.5.7s-.9-.2-1.2-.6c-.3-.5-.3-1-.4-1.5-.1-.5-.2-.9-.2-1.4-.2-.5-.6-.8-1.2-1M10.6 95.9c-.8-.3-1.3-.8-1.9-1.2-.3-.2-.5-.4-.7-.6-1.2-1.1-2.3-2.4-3.2-3.8-.6-1-1.2-2-1.7-3.1-.4-.9-.8-1.8-1.1-2.8-.3-.8-.4-1.7-.5-2.5-.1-.9-.2-1.7-.3-2.6V77c0-1.1.1-2.2.3-3.4.2-.7.3-1.4.5-2 0-.2.1-.3.2-.5.1.1.2.1.2.1 1.3 1.7 2.5 3.3 3.6 5.1.8 1.3 1.5 2.6 2.2 4 .9 2 1.7 4.1 2.1 6.3.2.9.4 1.8.5 2.7.2 1.3.3 2.7.2 4.1-.2.9-.3 1.7-.4 2.5M24.6 50c0-.2-.1-.4-.1-.7 0-.6-.1-1.2 0-1.8.1-.9.2-1.7.4-2.5.4-1.5 1-3 1.8-4.4.5-1 1.2-1.9 1.9-2.8 1.1-1.3 2.3-2.3 3.8-3.2 1.2-.7 2.4-1.2 3.8-1.5.8-.2 1.7-.4 2.5-.6.1 0 .2 0 .5-.1 0 .3-.1.6-.1.9 0 .4-.1.8-.2 1.2-.2 1.4-.7 2.8-1.3 4.1-.7 1.6-1.7 3.1-2.9 4.5-1 1.2-2.2 2.2-3.3 3.2-.7.6-1.4 1.2-2.2 1.7-.9.5-1.8.9-2.8 1.3-.5.4-1.1.6-1.8.7M11 126.3c.2-.3.4-.3.6-.3 1 0 2 0 3 .1 2.1.2 4.1.7 6 1.5 2 .8 3.9 1.9 5.6 3.2.5.3.9.7 1.3 1.1.2.2.5.4.7.6 1.2 1.3 2.4 2.5 3.4 4l.1.1c.3.5.1.8-.5.8-1.2 0-2.3.1-3.5 0-1.7-.1-3.4-.4-5.1-.9-1.8-.6-3.6-1.4-5.1-2.5-.8-.6-1.5-1.2-2.3-1.8-.3-.2-.5-.4-.7-.6-.8-.7-1.5-1.6-2-2.5-.5-1-1-1.9-1.5-2.8M0 100.5c.9.2 1.6.4 2.3.6 1.5.5 2.8 1.1 4.1 1.9 1.7 1 3.2 2.2 4.5 3.6.6.7 1.2 1.4 1.8 2.2.8 1.1 1.5 2.2 2.1 3.5.7 1.4 1.3 2.9 1.8 4.4-.2.1-.4.1-.5.1-1.4.1-2.7-.2-3.9-.8-1.5-.7-2.9-1.5-4.3-2.5-.4-.3-.7-.6-1-.9-.3-.2-.6-.4-.8-.7-2-2-3.7-4.2-4.8-6.8-.6-1.3-1-2.6-1.1-4-.1-.1-.1-.3-.2-.6M49.2 148.7c-1.1.8-2.2 1.3-3.4 1.6-1.7.4-3.4.5-5.2.4-.8 0-1.7-.2-2.5-.3-2.1-.3-4.2-.8-6.2-1.5-2.1-.7-4-1.7-5.7-3-.1-.1-.1-.2-.2-.3 2-1 4-1.5 6.2-1.7 4-.4 7.9 0 11.6 1.6 1.9.8 3.9 1.6 5.4 3.2M66.6 154.9c.1.5-.2.8-.5 1-1.2.9-2.5 1.7-3.9 2.4-1.3.6-2.6 1-4 1.2-1 .2-1.9.3-2.9.3-.6 0-1.1.1-1.7.1-.8 0-1.5-.2-2.3-.2-1.3-.1-2.5-.4-3.7-.7-1.4-.4-2.7-.8-4-1.5-.4-.2-.4-.4 0-.6.8-.4 1.7-.9 2.5-1.3 1.3-.6 2.7-1 4.1-1.3.8-.2 1.5-.3 2.3-.4.8-.1 1.6-.2 2.4-.2 1.3-.2 2.6-.1 3.9-.1 1 0 2 .2 3 .3 1.3.1 2.6.4 3.9.7.4.1.6.2.9.3M32.9 52c-.1.4-.1.8-.1 1.1-.4 2-1 3.9-1.9 5.7-.9 1.6-2 3.1-3.4 4.2s-2.9 2.1-4.6 2.6c-1 .3-2 .6-3 1-.2 0-.3 0-.5.1-.1-.4-.1-.8 0-1.2.2-.5.3-1 .4-1.5 0-.1.1-.2.2-.4.7-1.3 1.3-2.6 2.2-3.8.6-.7 1.1-1.4 1.7-2.1.4-.4.7-.8 1.1-1.2 1.4-1.2 2.8-2.4 4.5-3.2 1-.5 2-1 3.1-1.3 0 .1.1.1.3 0M21.4 94.5c.4.5.7.9 1 1.4.5.7.9 1.5 1.3 2.3.6 1.2.9 2.4 1.2 3.7.3 1.6.3 3.2.2 4.8-.1 1.5-.4 3-1 4.4-.4 1-1 2-1.6 2.8l-.4.4c-.6-.3-.8-.9-1.1-1.4-.7-1.3-1.2-2.7-1.5-4.1-.1-.5-.1-1.1-.1-1.6-.2-1.4-.1-2.8-.1-4.1 0-.9.2-1.8.3-2.7.1-.9.3-1.8.6-2.7.1-1.1.6-2.1 1.2-3.2M132.5 57.1c-.3-.3-.6-.2-.9-.2-1.1 0-1.9-1-1.6-2 .1-.4.9-1.2 1.6-1.2.6 0 1.1.1 1.5.6.2.2.4.5.7.7.4.4 1 .2 1.1-.3.2-.5.3-.6.9-.6.5 0 1.1.1 1.4.6.2.3.3.6.4.9.1.4.1.9.1 1.3 0 .2.1.5.1.7.2.4.5.6 1 .5.2-.1.5-.3.7-.1.3.2.5.5.7.8.3.7.4 1.5.6 2.2.2.8.4 1.6.7 2.3.2.7.7 1.2 1.2 1.6.3.3.5.5.3.9-.4 0-.9 0-1.2.1l-1.8.6c-.5.2-1.1.4-1.7.3-.7 0-1.6-.7-1.7-1.4-.1-.3 0-.6.3-.9.3-.3.6-.5 1-.8-.4-.3-.9-.5-1.5-.6-.5-.1-1-.2-1.4-.3-.8-.3-.9-1-.5-1.7.1-.2.3-.5.4-.7-.4-.4-.8-.3-1.2-.4h-.8c-.9 0-1.4-.7-1.3-1.6.2-.4.5-.9.9-1.3M34.6 132.4c-.6-.4-1.2-.8-1.8-1.3-.5-.4-1-.9-1.5-1.3-.7-.6-1.2-1.4-1.6-2.1-.7-1.2-1.3-2.4-1.6-3.7-.2-.8-.4-1.7-.6-2.6-.2-1.1-.1-2.2-.1-3.2 0-1.2.3-2.3.8-3.4.1-.2.1-.3.2-.6.5.5 1.1 1 1.5 1.5.6.7 1.1 1.3 1.5 2 1.1 1.7 2.1 3.5 2.7 5.4.3 1 .6 2.1.7 3.1.1 1 .3 1.9.2 2.9 0 .7-.1 1.4-.2 2 0 .4-.1.7-.1 1.1 0 .1-.1.2-.1.2M125.7 130c-.2-.7-.6-1-.9-1.5-.2-.3-.5-.6-.6-1-.2-.8.1-1.3 1-1.2.2 0 .4.1.6.1.2 0 .5 0 .6-.2.1-.2 0-.4-.1-.6-.2-.3-.4-.6-.6-.8-.3-.4-.4-.8-.3-1.3 0-.4.3-.6.7-.7.4 0 .8.2 1.2.2.2 0 .3.1.5.1.4-.1.6-.3.5-.7 0-.5.1-1 .3-1.4.2-.3.4-.5.8-.5.5 0 1 0 1.5.3.6.4 1.2 1.5.8 2.2v.1c-.2.8-.1.9.7.9.2 0 .5 0 .7.1.8.2 1 .8.7 1.5-.3.6-.8.9-1.3 1.2-.4.2-.9.4-1.3.7-.2.1-.4.3-.6.6.6.2 1 .4 1.3.9.3.4.3.6-.1.9l-.9.6-1.2.6c-.5.3-.8.7-.8 1.3v.4c-.8.2-1.4.7-1.9 1.2-.3.3-.6.6-1.1.5-.3-.7-.9-1.3-1.4-1.9-.3-.3-.5-.7-.6-1.1-.2-.6.3-1.3 1-1.4.3 0 .5-.1.8-.1M67.5 149.7c-1 .1-1.9 0-2.8-.2-1.2-.3-2.4-.6-3.5-1.2s-2.1-1.2-3.1-2.1c-.9-.8-1.7-1.7-2.4-2.7-.9-1.3-1.5-2.7-1.9-4.3 0-.1-.1-.3-.1-.5.4-.3.9-.3 1.3-.3.9 0 1.8.2 2.7.5 1.4.5 2.7 1.3 3.8 2.2.7.6 1.4 1.3 2 1.9.8.7 1.4 1.6 2 2.5.8 1.5 1.5 2.7 2 4.2M139.1 106.3c-.4-.7-.8-1.3-1.1-1.9-.2-.4-.3-.8-.3-1.3 0-.4.3-.6.7-.4l.6.3c.4.2.7 0 .6-.5 0-.2-.1-.5-.2-.7-.1-.4-.2-.7-.3-1.1-.1-.3.2-.9.5-1.1.5-.3 1-.3 1.5 0 .4.3.7.6.9 1 .3.6.6 1.2.6 1.9h.5c.6 0 1 .3 1.4.6l.1.1c.3.4.2 1.6-.1 2-.3.4-.7.8-1.2 1-.1 0-.2.1-.2.2-.5.4-.4.8.2 1 .2.1.5.2.7.4.5.4.5.8.2 1.4-.2.3-.5.6-.8.9-.3.3-.7.6-1.1.9-.5.5-.5.8 0 1.2l.1.1c-.3.4-.7.7-.9 1.1-.2.4-.3.9-.4 1.5-.1-.1-.2-.2-.2-.3-.3-.6-1-.9-1.6-1.2-.5-.3-1.1-.6-1.6-.9-.5-.3-.8-1.2-.5-1.7.1-.2.3-.3.5-.4.2-.1.5-.2.7-.4.1-.1.2-.2.4-.3-.3-.3-.5-.6-.7-.9-.2-.3-.5-.5-.7-.7-.5-.5-.6-1-.4-1.7.1-.3.4-.5.8-.4.1.1.3.1.4.2.4.5.5.5.9.1M117.3 133.9c.1-.6.2-1.1.3-1.6.1-.6.5-.9 1-1.1.8-.3 2-.1 2.5.5.6.7.7 1.7-.3 2.4-.2.1-.4.2-.5.3-.5.3-.5.7-.2 1.2.1.2.3.3.4.4.2.2.3.4.3.7 0 .7-.1.8-.7 1-.3.1-.5.2-.8.3-.9.3-1.2.8-1 1.7.1.5.1.9.1 1.4 0 .5-.2.7-.6.8-.6.1-1.2.3-1.8.3-.7.1-1.3.2-1.9.4-.4.1-.7.4-.9.8-.2.3-.3.6-.5 1l-.3.3c-.1-.3-.2-.5-.3-.6-.3-.6-.7-1.1-1-1.7-.2-.3-.2-.7-.2-1.1 0-.1.2-.3.3-.4.2-.2.5-.3.7-.5.3-.3.3-.6 0-.9-.5-.5-.5-1.1-.5-1.7 0-.3.4-.7.9-.7h1.4c.2 0 .5.1.6-.2.1-.3.2-.6-.1-.9-.4-.4-.6-.9-.6-1.5.1-.7.4-1 1.1-1.1.5-.1 1 0 1.4.4.5.4.9.3 1.2.1M49.6 143.4c-.8.1-1.5-.2-2.2-.4-.9-.4-1.7-.7-2.5-1.2-.9-.5-1.6-1.3-2.3-2.1-1-1.2-1.7-2.5-2.4-3.9-.5-1.1-.9-2.3-1.2-3.4-.2-.8-.4-1.6-.5-2.4-.1-.3.1-.5.4-.4.2 0 .4.1.6.2 1.3.5 2.6 1.2 3.6 2.1.6.5 1.2 1 1.8 1.6 1 1 1.8 2.2 2.5 3.4.6 1.1 1.2 2.2 1.5 3.4.3 1 .5 1.9.7 2.9v.2M22.4 74.4c.1 0 .1 0 0 0 0 .8-.1 1.6-.1 2.3 0 .4-.1.8-.1 1.3-.1 1.5-.5 3-.9 4.5-.4 1.3-.8 2.7-1.4 3.9-.7 1.5-1.5 2.9-2.4 4.2-.5.6-1 1.3-1.5 2-.2-.4-.3-.7-.4-1.1-.2-.9-.5-1.9-.5-2.9 0-.5-.1-1-.1-1.5.1-1.2.2-2.3.6-3.5.4-1.3.9-2.5 1.6-3.6.5-.9 1.1-1.7 1.7-2.5.6-.6 1.1-1.3 1.7-1.8.4-.6 1.1-1.1 1.8-1.3M96.7 149.7c.3-.7.2-1.4 0-2-.2-.6-.4-1.2-.7-1.9 0-.1-.1-.2-.1-.3-.1-.8.1-1 .9-1 .5 0 1 .1 1.5 0 .4-.1.4-.1.4-.5-.1-.4-.1-.7-.2-1.1 0-.9.6-1.4 1.5-1.5.4 0 .8.1 1.1.4.2.2.5.4.8.6.5-.3.7-.8.9-1.2.2-.4.4-.9.8-1.2.5-.4 1.1-.4 1.7-.3.6.1 1 .4 1.4.8.1.1.2.2.2.3 0 .5 0 1.1-.1 1.6s-.6.8-1.1 1c-.3.1-.6.2-.9.4-.3.2-.3.4-.1.7.3.4.5.8.5 1.3 0 .4-.2.7-.5.9-.6.5-1.4.7-2.2.7-.7.1-1.1.5-.9 1.1 0 .3.1.5.2.8-.2.1-.4.2-.6.2H97c0 .3-.1.3-.3.2M150 99.8c.1-.3.1-.7.2-1 .2-.8.8-1.2 1.6-.8.7.4 1.3.8 1.9 1.2.3.2.5.3.7.5.5.4.7 1.2.1 1.8-.5.4-.9.7-1.5.8-.4.1-.9.2-1.3 0-.5-.2-.8-.5-1.1-.9-.4-.4-.6-1-.6-1.6M150.1 71.9c-.1-.8-.1-1.5.3-2.1.3-.4.6-.7 1-1 .6-.5 1.6-.4 2.2.2.3.2.4.6.5 1 .1.8 0 1.6-.4 2.4-1.3.1-2.4-.4-3.6-.5M144.4 71.1c.6.8.6 1.7.6 2.6 0 .6-.7 1.3-1.4 1.3-1.2.1-2.2-.3-3-1.4-.3-.4-.2-.7.2-1 1-.6 1.9-1.2 3.1-1.5h.5M152.1 96.6c.4-.8.8-1.5 1.7-1.8.8-.2 1.6-.2 2.1.4.5.4.7 1 .5 1.7-.2.6-.4 1.2-.8 1.6-.2.2-.5.3-.8.1-.6-.2-1.1-.6-1.6-1-.3-.2-.7-.6-1.1-1M149.9 73.1c1.1.1 2 .3 3 .4h.4c.4 0 .6.1.6.5v1.1c-.1.7-1 1.6-1.8 1.7-.7.1-1.2-.2-1.7-.7-.7-.7-.9-1.5-.8-2.4l.3-.6M92.1 150.4c-1.1-.5-2.1-1-2.7-2 .5-.8.9-1.6 1.8-2.1.5-.3 1.1-.3 1.6 0 .4.3.6.8.6 1.3 0 .6 0 1.3-.4 1.9-.4.3-.7.6-.9.9M143.2 127c-1-.1-1.8-.2-2.3-.8-.4-.4-.4-1.4-.1-1.8.5-.5 1-1.1 1.5-1.6.3-.3.5-.3.7.1.2.4.4.8.5 1.2.2.7.5 1.4 1 1.9.3.2.2.4-.1.6-.4.2-.9.5-1.2.4M71.5 157.7c0 1.1-.8 1.7-1.9 1.8-1 .1-2-.9-2-1.8 0-1.1.9-1.9 2-1.9 1 0 2.1.7 1.9 1.9M20.2 123.3c0 1.2-.9 1.9-1.9 1.9-1 0-1.8-.6-1.9-1.9 0-1.2.9-1.9 1.9-1.9 1.1 0 2 .8 1.9 1.9M11.6 99.8c.1 1.1-.9 1.9-1.9 1.9-1.1 0-1.8-.7-1.9-1.9 0-.9.7-1.9 1.9-1.8 1.1.1 1.9.8 1.9 1.8M72.8 151.6c-.9.2-2-.8-1.9-1.7.1-1.1.7-1.8 2-1.9.9 0 1.9.8 1.9 1.8-.1 1-.8 2-2 1.8M11.6 73.2c.1 1-.9 1.8-1.9 1.8-.9 0-2-.7-1.9-1.8.1-1 .8-1.8 1.9-1.8 1.1-.1 1.9.7 1.9 1.8M17.2 71.6c0-1.1.7-1.8 1.8-1.8 1 0 1.9.8 1.8 1.8 0 1.1-.8 1.7-1.8 1.8-.8 0-2-.9-1.8-1.8M91.8 151.5c-.7.6-1.4 1.1-2.2 1.3-.3.1-.7.1-1.1 0-.5-.1-.7-.5-.9-.9-.3-.6-.3-1.3.1-1.9.2-.4.4-.7.7-1.1 1.2.9 2.3 1.7 3.4 2.6M51.1 152.9c-1.1 0-1.7-.6-1.7-1.6s.7-1.6 1.8-1.6c1 0 1.7.6 1.7 1.6s-.6 1.6-1.8 1.6M138.1 119.7c-.5.7-.7 1.5-1.4 1.9-.9.5-1.6.4-2.2-.4-.5-.6-.4-1.3-.4-2 0-.2.2-.3.4-.3.8 0 1.5.1 2.2.3.4.1.9.2 1.4.5M134.6 118.1c-.1-.7 0-1.4.4-1.9.2-.3.5-.6.7-.8.2-.2.8-.1 1.1.1.2.2.4.4.5.6.4.7.6 1.3.6 2.1 0 .2-.1.4-.4.4-1-.2-2-.1-2.9-.5M140.4 71.9c-.6-1-.9-1.8-.4-2.8.3-.8 1-.8 1.6-.6.6.2 1.2.6 1.3 1.4v.1c.3.8.3.8-.5 1.2-.7.1-1.3.4-2 .7M145.3 125.1c-.3-1-1.1-1.8-1.1-2.9.6-.3 1.3-.5 2-.5.9 0 1.2.5 1.4 1.1v.3c-.2.9-.8 1.5-1.7 1.9-.1.1-.3 0-.6.1M34.2 142.7c-.9.1-1.6-.8-1.6-1.5.1-.9.7-1.6 1.6-1.6.9 0 1.7.7 1.7 1.6 0 .8-.8 1.5-1.7 1.5M124 142.7c.3.7.6 1.3.8 2 .1.4.1.9.1 1.3 0 .1-.2.3-.3.3-.7.1-1.3-.1-1.9-.4-.5-.2-.8-.6-1-1 0-.1-.1-.2-.1-.3.3-.8.6-1.5 1.5-1.8.4 0 .6 0 .9-.1M105.7 156.1c-.1-.8.1-1.5.4-2.2.2-.5.5-.6 1-.5.4.1.9.2 1.2.4.5.3.7.9.4 1.4-.1.2-.3.5-.6.6-.7.5-1.5.5-2.4.3M21.9 50.2c.1.8-.5 1.4-1 1.5-.7.2-1.3-.1-1.6-.7-.6-1 .1-2.2 1-2.4.5-.1 1.1.1 1.4.6.2.3.3.6.2 1M54.2 144.3c0 .8-.6 1.4-1.5 1.4-.8 0-1.6-.7-1.5-1.5.1-.8.7-1.3 1.5-1.3 1 0 1.5.5 1.5 1.4M143.1 98.5c-.4-.7-.4-1.5-.1-2.2.2-.6.9-.9 1.6-.7.5.2.7.6.9 1 .1.4.1.8.2 1.1-.6.6-1.6.7-2.6.8M146.4 99.6c-.1.4-.2.9-.5 1.2-.6.6-1.7.5-2.2-.3-.2-.2-.3-.5-.4-.8-.2-.4-.1-.6.3-.7l1.2-.3c.3-.1.6-.1.9-.3.3-.1.4 0 .5.2.1.3.1.7.2 1M104.8 155.9c-.5-.2-1-.4-1.4-.6-1-.5-.7-1.4-.3-2 .4-.5.9-.6 1.5-.6.3 0 .6.1.8.2.2.1.2.2.2.4-.2.7-.4 1.5-.6 2.2 0 .2-.1.3-.2.4M125.7 146c0-1.3-.4-2.4-1-3.4.7-.2 1.4-.3 2 .1.3.2.6.5.8.8.3.3.2.9-.2 1.3-.3.4-.9.8-1.6 1.2M24.4 118.4c-.8 0-1.4-.6-1.4-1.3 0-.8.6-1.3 1.5-1.4.7-.1 1.4.6 1.5 1.3 0 .8-.7 1.4-1.6 1.4M140.8 52.4l1.5-.3c.3-.1.7-.1 1 0 .3.1.6.5.5.8-.2.6-.5 1.2-1.1 1.6-.6.3-1 .3-1.4-.3-.3-.5-.6-1.1-.5-1.8M15.6 96.5c0-.7.4-1.2 1.1-1.2.7 0 1.3.5 1.3 1.2s-.5 1.2-1.2 1.1c-.8.1-1.2-.3-1.2-1.1M141.5 51.6c-.7 0-.8-.4-.8-.9.1-.4.2-.9.5-1.3s.9-.4 1.3 0c.2.2.4.5.6.8.2.4.1.8-.4 1-.4.2-.8.3-1.2.4M109.2 142.4c.6 0 .9.4 1.1.8.2.4 0 .8-.2 1.1-.2.3-.4.6-.9.6-.1 0-.3-.1-.4-.2l-.6-.6c-.3-.3-.4-.6-.2-1 .3-.4.6-.7 1.2-.7M108.9 145.7c-.5.6-1.2.8-1.9.6-.3-.1-.5-.4-.6-.7-.1-.5-.1-1 .3-1.4.3-.3.4-.4.7-.1.5.6 1 1.1 1.5 1.6M37.8 136.2c-.6 0-1.1-.4-1.1-1 0-.5.6-1 1.2-1 .5 0 1.1.5 1.1 1s-.5 1-1.2 1M122.3 136.1c.1-.3.3-.5.4-.7.4-.7 1.1-.8 1.6-.3.1.1.2.3.2.4v.4c0 .7-.5 1-1.2.7-.3 0-.6-.3-1-.5M123.3 137.4c0 .6 0 .7-.5.8-.5.2-.8 0-.9-.5v-.9c.6 0 1 .3 1.4.6" style="clip-path:url(#SVGID_00000049937794504679980410000013403165150293025722_);fill:#d2232a"/></svg>