<svg xmlns="http://www.w3.org/2000/svg" width="912" height="790" version="1.2"><style>.s0{fill:#231f20}</style><g id="Ebene 1"><filter id="f0"><feFlood flood-color="#d2232a" flood-opacity="1"/><feBlend in2="SourceGraphic"/><feComposite in2="SourceAlpha" operator="in"/></filter><g id="wappen" filter="url(#f0)"><path id="&lt;Compound Path&gt;" fill-rule="evenodd" d="M625.9 221.8c10.9-7.4 21.4-14.7 32.1-22 .5.5 1.1.8 1.4 1.3 5.3 8.2 10.6 16.3 15.9 24.5 1.5 2.4 1.7 2.6-.5 4.5-4.2 3.6-8.5 7.1-12.8 10.6-5 4.1-10 8-14.9 12.2-1.8 1.4-3.3 3.2-4.9 4.8-.9.9-1 2-.4 3.1 3.3 5.9 6.5 11.7 9.8 17.6.8 1.2 1.8 2.3 2.7 3.6-.9 3.3-4.6 4.6-6.1 8-2.4-2.2-3.5-5.1-5.2-7.7q-5.1-7.8-10.1-15.7c-.8-1.3-2-1.5-3-.9-1.6 1.1-3.2 2.5-4.5 3.9-1.3 1.3-1.4 2.8-.4 4.5 3.7 6.3 7.2 12.8 11.7 18.6 3.3 4.3 6.6 8.6 9.8 13 .3.4.4.9.7 1.7H491.9c1.4 4.4 2.6 8.5 4 12.8h153.9c2.4 0 4.1.4 5.8 2.6 6.1 8.5 13 16.3 20.7 23.4 6.7 6.2 13.8 11.9 21.8 16.5 3.2 1.9 6.5 3.6 10 5.5-1 .4-1.9.8-2.8.9-2.8.3-5.7.4-8.5.7-6.7.8-13.4.8-20.1 1.4-11.5 1-23.1.2-34.6.5q-2.7.1-5.4 0c-6.6-.2-13.3-.2-19.9-.7-5.4-.3-10.8-1.2-16.2-1.8-4-.5-8.1-.7-12.1-1.4-5.3-.9-10.7-1.9-15.9-3.4-13.2-3.9-26.4-8-39.5-12.4-8.2-2.8-16.1-6.2-24.1-9.5-4.1-1.7-7.9-3.8-11.9-5.7-2.7-1.3-3.9-1.1-4.7 1.5-1.3 4.3-3.7 7.7-6.5 11-.4.5-.7 1-1 1.5-.6 1.3-.3 2.9.8 3.7 7.5 5.4 14.8 11.1 22.4 16.2 7.8 5.3 15.9 10 23.9 14.9q8.1 5.1 16.3 10.1 14.5 9 29 17.9c7.1 4.5 14.2 9 21.4 13.4 7.8 4.9 15.7 9.7 23.6 14.6 4.1 2.5 8 5.4 12.3 7.6 9.3 4.9 17.8 11.1 26.8 16.7 5.9 3.7 11.8 7.6 17.7 11.4.3.2.5.4.8.7-7.4 10.3-15.6 19.9-24.1 29.5-2.7-1.8-5.1-3.3-7.5-5-5.2-3.7-10.5-7.5-15.8-11.3-9.3-6.6-18.7-13.2-28.1-19.8-9.4-6.6-19-13.2-28.5-19.7-6.9-4.9-13.8-9.7-20.8-14.5L527.7 418q-11.4-7.9-22.9-15.8-11.9-8.4-23.8-16.7c-.2-.2-.6-.2-.7-.3-.3.1-.4.1-.4.1-.1.1-.2.2-.2.3q-.1.1-.1.3 0 .3-.1.6V499.4q0 .3-.1.6c0 .1 0 .2-.1.3-2.3.7-38.5 1-46.7.3V384.1c-12 8.2-22.8 17-33.6 25.8s-21.7 17.5-32.7 26.3c-3.2-4.6-6.3-8.9-9.3-13.3-4.6-6.7-9.3-13.5-13.9-20.3-.6-.8-.7-2-1-3.1 29.5-11 56.4-25.8 80.8-44.7-2.8-3.9-5.5-7.7-8.2-11.4-.9-1.2-2-1.1-3.2-.7-4.1 1.5-8.3 2.8-12.4 4.4-9.2 3.5-18.5 6.8-28.2 8.7-5.1 1-10.3 1.7-15.4 2.6-6.1 1-12.3 1.8-18.5 1.9-3.6.1-7.4.1-11 .7-7.4 1-14.8.4-22.1.5-5.2 0-10.4-.3-15.5-.6q-7.9-.5-15.7-1.3c-4.8-.5-9.7-1.2-14.6-1.8-4.4-.6-8.8-1-13.7-1.6.8-.9 1.4-1.6 2.1-2.2 6.2-4.8 11-10.9 16.2-16.7 3.9-4.4 8.5-8.1 12.3-12.6 2.7-3.2 5.7-3.3 9.3-3.2 20.2 0 40.5.5 60.7-.2 17.3-.5 34.5-.2 51.7-.4 3.5-.1 7 .5 10.4.6 3.1 0 3.3-.1 3.2-3.2-.1-3.3 1-6.2 1.8-9.2.1-.4.1-.8.1-1.4-.8-.1-1.5-.2-2.2-.2-23.9-.2-47.8-.5-71.7-.6q-15.5-.2-30.9 0c-6.7 0-13.5.4-20.2.6h-3.7c.5-2.6.7-4.9 1.3-7 1.8-6.2 3.6-12.4 5.7-18.5.9-2.4.4-3.9-1.3-5.7-3.7-4.1-8.7-6.5-13-9.8-1.1-.8-2.2-1.6-3.2-2.5-2.3-2.3-2.4-2.4-1-5.4 3-6.6 6.5-12.9 10.9-18.6 1.2-1.5 2-1.7 3.8-.9 2 .9 3.8 1.9 5.7 2.9 3.5 1.8 7 3.2 11.2 3.5 1.7-3 3.5-6.1 5.2-9.1 6.4-11.4 12.8-22.7 20.2-33.4 4.9-6.9 10.5-13.2 16.8-18.8 7.1-6.2 15-11.2 23.1-16 7-4.1 14.4-7.1 22-9.6 7-2.3 14.2-4 21.5-5.1 6.6-1 13.1-1.9 19.7-1.9 3.5 0 6.9-.6 10.4-.5 5 .2 10 .7 15 1.2 3.8.3 7.6.6 11.3 1.3 6.7 1.2 13.5 2.5 20.2 4.2 9.6 2.3 18.8 6 27.7 10.3 4.8 2.4 9.4 5.2 14 7.9 4.5 2.7 9.1 5.4 13.4 8.3q7.6 5.3 15 11 6.5 5.2 12.7 10.9c5.8 5.3 11.6 10.8 17.1 16.5 4 4.1 7.6 8.7 11.3 13.1 1.8 2.1 2.6 2.2 4.6.3.9-.8 1.9-1.6 3-2.6-2.1-3-3.9-5.7-6-8.3-4.1-5.1-8.2-10.3-12.6-15.2-5.3-5.8-10.7-11.7-16.5-17-8.4-7.7-17.5-14.6-27.4-20.3-6.7-3.9-13.4-7.7-20.4-11-10-4.8-20.4-8.9-31.4-11.3-5.6-1.3-11.2-2.9-16.9-4.1-3.7-.7-7.4-1.1-11.2-1.6a167 167 0 0 0-9.9-1.2c-.6-.1-1.3-.1-1.9-.1-6.5 0-13-.3-19.4.1-6.3.4-12.6 1.5-19 2.4-8.7 1.1-17.2 3.5-25.4 6.4-8 2.8-15.6 6.1-22.7 10.9-6.6 4.4-13.5 8.4-20.4 12.5-2.9 1.8-5.9.5-8.8-.5-4-1.4-6.5-4.6-9.1-7.6-2.1-2.5-3.8-5.4-5.2-8.4-1-2-1.4-4.4-1.6-6.6-.2-2.6-.1-5.3.3-7.9.6-3.8 3-6.8 5.6-9.5 5.1-5.1 10.6-9.6 16.7-13.3 6.7-4.1 13.5-8 20.5-11.5 6.9-3.5 14.4-5.9 22-7.7 6.8-1.7 13.5-3.4 20.3-4.9 3.3-.7 6.6-1 9.9-1.5 5.1-.7 10.2-.9 15.3-1.4 6.4-.7 12.7-.7 19-.3 10.4.6 20.8 1.8 31.1 4.1 11.7 2.6 23 6.3 34 11.1 12.3 5.3 23.8 12 34.8 19.7 5.9 4.2 11.4 9 17 13.6 3.6 3 7.2 6.1 10.6 9.4 3 2.8 5.7 6 8.4 9.1 1.8 2 3.5 4.1 5.2 6.3 2.8 3.5 5.7 6.9 8.3 10.6 4.8 7.1 9.7 14.1 14.1 21.5 3.4 5.6 5.9 11.8 8.8 17.7.6 1.2 1.2 2.4 2 4.1zm-322 66.4c1.2.3 2.2.8 3.1.8 7.6-.1 15.2.4 22.7-1.1 5.3-1.1 10.2-3.1 14.5-6.3 4.7-3.6 6.3-8 .9-13-1.6-1.5-3.2-3.2-4.3-5-1.9-3.2-2.2-6.1.9-8.6 2.2-1.8 4.5-3.3 7.5-3.5 3-.2 6-.3 9.1-.6 3.7-.4 7.5-.6 11.1-1.4 4.6-1.1 8.3-3.5 9.6-8.4.4-1.6.3-3.1-1.2-3.9-1.5-.9-3.1-1.6-4.7-2.2-2.3-.8-4.6-1.3-6.9-1.9-2.2-.5-3.5-1.8-4-4-.7-3.9.1-7.5 2.6-10.6 1.1-1.2 2.5-2.5 4-3 3.4-1.1 6.9-1.1 10.5-.5 2.7.5 5.5.5 8.2.1 3.7-.6 5.6-3.5 5.7-7.5.2-4.5-.8-6.5-5.9-7-.4 0-.8-.2-1.2-.3-3.8-1.2-4.9-2.9-5-6.9-.2-3.2 2.1-4.8 4.1-6.6 2.2-2 4.5-3.8 6.8-5.6 1.7-1.3 2.4-3.2 2.9-5.1.6-2 .1-3.1-1.8-4.1-2.4-1.3-4.8-.7-7 .3-4.2 1.9-8.4 3.8-12.5 6-6.4 3.4-12.2 7.8-17.6 12.7-4.2 3.9-8.1 8.3-12 12.5-6.3 6.9-11.4 14.7-15.9 22.9-6.3 11.3-11.4 23.2-15.8 35.4-3.1 8.6-4.9 17.5-8.4 26.4zm180.9 34c.2-17.8-14.3-32.3-31.7-32.5-19.1-.2-33.1 14.4-33.2 32.3-.1 18.1 14.1 32.1 31.8 32.5 18.8.5 33.4-15 33.1-32.3z" class="s0"/><path fill-rule="evenodd" d="M479.6 705.3c1.8 1 3.1 1.6 4.4 2.3 4.1 2.1 7.6 5 10.9 8.1 2.4 2.4 4.6 5.2 6.6 8 4.5 6.1 8.3 12.5 11.9 19.2 3.5 6.5 7.1 13 11.3 19.2 4.6 6.7 10.8 11.5 19.1 12.8 3.6.5 7.1-.2 10.5-1.3 2.1-.7 4.1 0 5.2 1.7 1.6 2.4.9 5.4-1.9 6.6-2.1.9-4.3 1.7-6.6 1.9-7.8.8-15.2-.6-21.9-4.9-5.4-3.5-9.8-8-13.1-13.4-2.5-4.1-4.8-8.3-7.2-12.4-3.8-6.7-7.4-13.5-11.6-19.9-2.9-4.5-6.3-8.7-10.2-12.4-4.9-4.5-10.6-7.3-17-8.8-.5-.1-1.1 0-1.6 0-.4 0-.8.1-1.8.2 2.1 2 3.6 3.7 5.3 5.2 3.9 3.5 7 7.6 9.3 12.2 2.4 4.7 4.1 9.6 4.1 15 0 5 0 9.9-1.9 14.6-2.8 6.9-7.1 12.5-13.9 16-3.1 1.6-6.1 2.9-9.5 3.4-3.1.6-6.2 0-9.2-1.2-6.7-2.7-11-8-14.4-14.2-4.7-8.1-6.4-17-5.6-26.2.5-5.8 1.6-11.6 4.7-16.7.3-.5.4-1.1.9-2.1-1.1.4-1.8.6-2.3.9-3.9 2.6-7.3 5.6-10 9.5-4.7 7-8.1 14.6-12 22.1-3.4 6.7-7 13.3-11.8 19.1-4.8 5.7-10.5 10.5-17.7 12.8-6.5 2.1-12.9 2.1-18.7-2-2.4-1.7-4.5-4.1-6.2-6.6-3.6-4.9-5.3-10.8-6.4-16.7-.3-1.7-.5-3.5 1.2-5 1.3-1.2 2.5-1.8 4.2-1.4 1.8.4 2.8 1.6 3.3 3.4.7 3.3 1.6 6.5 2.5 9.7 1.1 3.4 3.1 6.2 5.8 8.5 4 3.5 8.5 2.8 12.9.8 4.4-2.1 8.2-4.8 11.4-8.6 4-4.9 7.2-10.2 10.1-15.8 3.4-6.4 6.5-12.8 10-19.2 4.9-9.1 11.8-16.4 21.3-20.9 1.5-.8 2.9-1.8 4.9-3-5.6-.5-10.5-.9-15.5-1.5-3.7-.4-7.4-1.2-11.1-1.8-4-.6-8-1.2-12-2-4.5-.7-9-1.5-13.5-2.5-8.4-2-16.8-4-25-6.4-8.5-2.5-16.9-5.3-25.2-8.2-7.1-2.5-14-5.4-20.9-8.3-7-3-14-6.1-20.8-9.5-7.1-3.6-14-7.5-20.9-11.3-10.6-5.7-20.7-12.2-30.5-19.1-6.3-4.4-12.6-8.9-18.6-13.7-6.9-5.4-13.4-11.2-20-16.7-8.9-7.4-17.1-15.5-25-23.8-4.8-4.9-9.1-10.2-13.5-15.4-3.6-4.1-7.2-8.2-10.6-12.4-3-3.8-5.9-7.5-8.7-11.5-4.9-7-9.9-14.1-14.5-21.4-4-6.1-7.6-12.4-11.2-18.7-3.9-6.9-7.8-13.8-11.1-21-4.9-10.5-9.9-21-13.6-32.1-1.6-4.8-3.7-9.5-5.2-14.3-3-9.9-5.9-19.7-8.4-29.6-1.7-6.7-2.9-13.4-4.1-20.2q-1.7-9.3-3.1-18.7c-.4-2.7-.5-5.5-.7-8.2l-1.2-9.9q-.1-.3-.1-.6c-.2-4.3-.6-8.7-.6-13q-.1-16.2 0-32.4c0-4.4.3-8.8.6-13.2.4-4.4.7-8.8 1.3-13.1q1.4-10.3 3.1-20.4 1.5-9 3.2-17.8c1.2-5.9 2.4-11.8 4-17.6 2.7-9.5 5.5-19 8.8-28.3 3.1-8.9 6.5-17.7 10.3-26.4 4.1-9.4 8.5-18.6 13.2-27.6 3.7-7.1 8-13.9 12-20.9.4-.7.9-1.4 1.5-2 2-1.9 3.7-1.9 5.8-.2 1.7 1.3 2.1 4 1 5.9l-5.4 9.2c-1.6 2.6-3.2 5.2-4.6 7.9-5.9 10.7-11.2 21.7-16 33-4.3 10.3-8.5 20.7-11.7 31.4-3.3 11-6.5 22.2-9.3 33.4-1.8 7.1-2.7 14.5-4 21.8-.9 5-1.8 9.9-2.5 14.8-.4 2.9-.4 5.9-.7 8.8-.3 3.6-.8 7.1-1.2 10.6v1c-.9 13.8-.8 27.7-.6 41.5.1 6.2.6 12.4 1.3 18.6.8 7.3 2 14.7 3 22 1.9 13.8 4.9 27.3 8.8 40.7 2.1 7.1 4.1 14.2 6.5 21.2 3.5 10.4 7.4 20.7 12.1 30.6 4 8.5 7.9 17 12.3 25.2 4 7.5 8.4 14.7 12.9 21.9 3.8 6.1 7.9 12 12.1 17.9 3.7 5.2 7.6 10.3 11.5 15.3 3.4 4.3 6.8 8.5 10.2 12.8 1.4 1.6 2.7 3.2 4.2 4.7 9 9.3 17.7 18.8 27.1 27.6q12.7 12 26.7 22.6c8.4 6.4 16.8 12.7 25.6 18.4 7.6 4.9 15.3 9.7 23.2 14.1 9 5 18.1 9.9 27.5 14.3 9.2 4.3 18.7 8.2 28.2 11.8 7.7 3 15.5 5.7 23.5 8 10.1 3 20.4 5.5 30.6 8 6 1.4 12 2.6 18.1 3.7 5 .9 10.2 1.4 15.2 2q7.3 1 14.7 1.9c.4.1.9-.1 1.3-.2-1-3.2-2-6.4-3-9.5-1.5-5-1.4-10.1-.7-15.2.6-4.1 1.6-8 4-11.4 2.6-3.6 6.2-5.8 10.5-6.9 1.4-.3 2.9-.5 4.3-.6 5.9-.8 10.6 1.9 15.2 5.1 3.4 2.3 6.1 5.2 7.7 9 1.3 3.1 2.1 6.3 1.1 9.7-.4 1.4-.1 3-.4 4.4q-1.8 7.9-6.9 14.3c-.2.2-.3.5-.5 1.1.8.1 1.5.3 2.2.2 3-.3 6-.7 9-1 2.4-.3 4.8-.5 7.2-.9 5-.7 10.1-1.5 15.1-2.4 5.9-1 11.9-2.1 17.8-3.3 5.3-1.2 10.7-2.5 16-4 10.1-3 20.1-6 30.1-9.5 8-2.8 15.9-6 23.7-9.5 9.8-4.4 19.6-9 29.1-14 7-3.5 13.6-7.7 20.4-11.7 4.2-2.5 8.3-5 12.3-7.9 8.3-5.9 16.4-11.9 24.4-18 5.2-4 10-8.3 15-12.4 11-8.9 20.5-19.2 30.4-29.2 5.1-5.2 9.6-11.1 14.3-16.8 5.5-6.8 11-13.6 16.1-20.7 4.8-6.5 9.3-13.3 13.5-20.3q8.2-13.6 15.8-27.6c2.9-5.4 5.2-11.1 7.7-16.7q3.6-8.2 7-16.4c3.7-8.9 6.7-18.1 9.6-27.3 3.2-10.6 6.1-21.3 8.2-32.3 1.2-6.2 2.6-12.4 3.7-18.6.7-3.8.9-7.7 1.4-11.5l1.8-14.6q.1-.3.1-.6c.2-4.4.5-8.7.6-13 .3-7.6.7-15.2.6-22.7-.1-6.3-.8-12.6-1.2-18.9-.2-3.5-.4-7.1-.7-10.7q-.5-5.9-1.3-11.8c-.5-3.6-1.2-7.2-1.8-10.8-.9-4.9-1.6-9.8-2.7-14.7-1.7-7.8-3.6-15.5-5.6-23.3-1.4-5.2-3-10.3-4.5-15.5-4.2-13.7-9.2-27.1-14.9-40.2-4.7-11.1-10.3-21.9-15.7-32.7-.9-1.9-2-3.6-1.9-5.8.1-1.8.9-2.7 2.4-3.3 1.6-.7 3.1-1 4.4.4.7.7 1.5 1.5 2 2.4 2.4 4.3 4.8 8.6 6.9 13 3.3 6.9 6.4 13.9 9.5 20.9 5.7 12.6 10.5 25.5 14.7 38.7 3.5 11.2 6.7 22.6 9.5 34 2 8.1 3.1 16.4 4.6 24.6.9 4.9 1.8 9.7 2.5 14.5.4 2.7.4 5.5.7 8.2.4 3.6.8 7.3 1.2 10.9v.6c.3 12.7.5 25.4.7 38.1 0 3.8-.3 7.6-.7 11.3-.5 5.7-1.2 11.3-1.8 16.9-.5 4.3-.8 8.5-1.4 12.8q-.8 6.4-2.1 12.7c-1.3 6.9-2.7 13.9-4.2 20.8q-1.8 7.8-4 15.4-2.6 8.7-5.5 17.3c-3.6 10.7-7.5 21.3-12.2 31.5-3.4 7.4-6.8 14.9-10.5 22.1-5 9.8-10.5 19.3-16.3 28.6-7.1 11.5-15.1 22.3-23.2 33.1-3.3 4.4-7.1 8.6-10.7 12.7-3.5 4.1-7.1 8.1-10.8 12-6 6.4-12 12.8-18.3 18.9-4.6 4.6-9.8 8.6-14.7 13-8.1 7.3-16.7 14-25.6 20.3-8.2 5.9-16.8 11.2-25.2 16.7-9.9 6.4-20.3 12.1-30.9 17.2-13.5 6.7-27.2 12.6-41.4 17.8-14.9 5.5-30.2 10-45.6 13.7-8.5 2-17.2 3.6-25.8 5.2-5.4.9-10.8 1.3-16.2 2-1.5.2-3.1.5-5.2.9zm-25.4 8.5c-4.1 1.8-6.7 4.8-9.1 8-4.2 5.6-5.1 12.3-5.5 18.9-.2 3 .5 6.1 1.2 9 1.6 6.3 4.2 12 9.2 16.5 2.2 2 4.8 3.8 7.8 3.5 6.4-.7 11.3-4.2 14.9-9.5 4.2-6.2 4.7-13.1 2.8-20.3-1.6-6.1-5.2-11.1-9.4-15.6-3-3.3-6.4-6.1-9.6-9.1-.6-.5-1.4-.9-2.3-1.4zm14.8-39.9c.5-2.3-.9-4.8-3.3-6.8-.4-.2-.6-.6-1-.9-3.6-2.5-7-5.3-12.2-3.9-3.2.8-5.5 2.3-7 5.2-1.9 3.8-2.5 8-2.1 12.2.4 5.5 2.4 10.6 5.6 15.1 2.2 3.2 4.6 3.6 7.6 1.1 1.9-1.5 3.7-3.1 5.5-4.8 4.5-4.4 6.7-9.9 6.9-17.2z" class="s0"/><path id="&lt;Path&gt;" d="M206.2 322.5c-23.1-13.6-45.4-27.7-67-43.2 1.3-2.8 3.8-4 5.8-5.6 4.6-3.5 8.7-7.6 12.8-11.7 7.7-7.5 14-16 19.7-25.1 4.6-7.3 8.9-14.8 13.1-22.3 6.6-11.7 13-23.5 20.8-34.5 2.6-3.7 5.6-7.2 8.6-10.7 2.1-2.5 4.4-4.8 6.6-7.3 4.3-4.8 9.8-8 15.4-11.1 3-1.7 6-3.5 9.1-4.9 6.4-2.9 12.8-5.6 19.3-8 7.4-2.8 15-5.1 22.5-7.5 5-1.6 10.1-2.9 15.4-4.4-.1.6 0 1-.2 1.2-2.7 3-5.5 6.1-8.3 9-9.6 10-18.5 20.6-25.9 32.4-5.5 8.7-9.6 18-11.3 28.3-.4 2.3-1 4.5-1.2 6.8-.3 3.8 1 7.4 2.3 10.9 2.2 5.8 5.6 10.8 10 15.1.6.5 1.3.8 1.8 1.2-3 9.1-6.7 17.2-11.8 24.6-.9 1.3-1.8 1.7-3.4 1-4.2-1.6-8.4-3.1-12.8-4.2-5.1-1.2-10.3-1.7-15.4.2-4.8 1.8-8.8 4.7-11.9 8.6-5.9 7.3-8.5 16-9.7 25.1-.8 5.7-1.3 11.4-1.9 17.1-.5 4.5-.8 9-1.3 13.5-.2 1.6-.6 3.2-1.1 5.5z" class="s0"/><path d="M740.8 632.6c-1.9 1.3-2.4 2.9-2.4 4.8-.1 1.7-.4 3.5-.6 5.3-.1 1.2-.9 1.6-2 2-3.6 1.4-6.7.4-9.5-1.5-3.1-2.2-6-4.6-8.3-7.8-1.5-2.1-3.8-3.6-5.4-5.7-2-2.7-4.6-4.8-7.4-6.6-2.5-1.6-5.4-2.6-8.2-4 .4-.1 1-.3 1.5-.6 2.3-1.3 4.7-2.5 6.7-4 4.3-3.3 7.8-7.3 11.2-11.4 4.8-6 9.4-12.2 15.1-17.3 2.1-1.9 4.6-3.2 7.4-4 2.2-.7 4.5.1 5.7 2.2 1.3 2.1 2.3 4.4 3.4 6.7 3.1-.4 4.3-1.4 5.2-5 .4-1.8 1.1-3.6 1.1-5.4.1-3.4 1.9-6 3.9-8.4 1.8-2.2 3.9-4.3 6.8-5.5 3.7-1.5 7.2-.9 8.8 3.5.6 1.6.9 3.2 1.5 4.8.2.7.7 1.5 1.2 2.1 1.5 1.5 3.1 1.4 4.3-.3 1.9-2.6 2.8-5.7 3.6-8.8.8-3.2 1.6-6.5 4-9 2.5-2.5 6.7-2.2 8.8 0 .5.6 1.1 1.3 1.8 1.8 2.3 1.8 2 4.1 1.3 6.5-.3 1-.8 2-1.1 3-.9 2.9-.7 3.3 2.2 4.4 2.9-3.3 5.6-6.6 8.5-9.7 3.9-4.2 10.3-4.2 14.5.6 3.5 4.3 4.8 9.1 4.2 14.4-.2 2-1.5 4.2-3 5.8-2 2.2-4.6 3.9-7.7 4.4-2.2.4-4.4.9-5.8 3.2 2.3 1.4 4.3 3 6.6 4.2 5.3 2.7 6.1 10.7.5 15.1-2.8 2.2-6 2-9 1.4-4.5-.7-8.9-2.1-13.4-3-1.8-.4-3.7-.6-5.6-.5-.8.1-1.9.9-2.4 1.7-.2.4.4 1.5.9 2.1 1.6 2 3.3 3.8 5 5.7 4.1 4.6 2.7 10.5-2.9 13-3.2 1.5-6.1.8-9.1-.4-5-2.2-9.2-5.7-13.8-8.6-1.2-.8-2.4-2.3-4.1-.9-1.2 1.1-1.4 2.6-.3 4.6 1.1 1.9 2.4 3.5 3.6 5.2.2.2.5.4.7.7 1.6 1.9 3.4 3.8 2.3 6.7-1.2 3.3-4 5-7.5 5.1-3.7.1-7.4.1-10.6-2-1.1-.7-2.2-1.3-3.1-2.2-2.2-2.1-4.3-4.4-6.5-6.5-.8-.7-1.8-1.3-2.6-1.9zM290.6 500.3c-6.4-9.4-12.7-18.8-18.9-28.2-4.9-7.4-9.6-14.8-14.4-22.3-1.3-2.1-2.4-4.3-3.5-6.6-1-2.1-.8-2.5 1.3-3.7q14.9-8.4 29.9-16.9c9.3-5.3 18.7-10.6 28-15.9 2.3-1.3 4.4-2.7 7.2-2.6 4.9.1 8.7 2.3 12.2 5.3 3.8 3.3 6.3 7.8 9.1 12 2.8 4.1 5.7 8.2 8.3 12.5 2.7 4.2 5.9 8.2 7.5 12.9 1.5 4.2 0 9.2-3.4 12.2-8.8 7.8-18.6 14-28.4 20.3-4.9 3-9.7 6.2-14.7 9.2-6.1 3.8-12.4 7.5-18.6 11.2-.5.2-1 .4-1.6.6zM759.3 62.1c1.3-.9 2.5-1.6 3.5-2.5 3.3-2.8 7.3-3 11.3-2.7.6.1 1.2.4 1.8.6 5 2.8 7.8 9.6 6.8 15.2-1.2 6.7-4.5 12.5-6.6 18.8-1.7 4.7-3.5 9.4-4.4 14.3-.8 4.5-.8 9.1.3 13.8-2.1 1.9-4.5 2-7 1-1-.4-1.9-.9-2.7-1.5-3.5-2.4-7.2-2.8-11.4-2.1-5.9 1-11.8 1.7-17.7-.2-3.7-1.2-5.9-3.5-6-7.1-.2-3.8.9-7.4 5-8.9 2-.8 3.6-2.1 4.2-4.4-3.6-2.5-7.4-3.2-11.8-2.2-3.3.7-6.7.8-10.1.8-3.9.1-7-2.3-8.4-5.9-1.4-3.6-.3-6.7 2.3-9.4 1.2-1.3 2.6-2.2 4.5-2.6 1.8-.4 4-.9 4.4-3.4-2.6-4-6.6-3.8-10.7-3.2-2 .3-4.1.8-6.1 1-6.2.7-10.1-3.7-12.1-8.2-1.1-2.4-1-5.2-.6-7.7.6-3.4 4-5.5 8.3-5.7q4.4-.2 8.8-.7c.8 0 1.5-.5 2.2-.7-.7-3.3-3.7-3.6-5.8-4.9-1.6-1-3.4-1.6-5.1-2.5-3-1.8-4.6-4.3-4.8-7.9-.1-3.2.6-5.9 2.5-8.6 1.9-2.6 5.1-3.1 7.6-3 4.2.2 5.8 3.4 7.8 6.4 1.2 1.8 2.8 3.5 4.4 5 .6.6 1.8.8 3 1.3.2-1.1.4-1.7.4-2.4 0-2.8-.2-5.5-.1-8.3 0-2.9 2-4.7 5-4.9 5.5-.2 9 2.3 10.9 7.6 1.7 4.4 2.8 8.9 3.5 13.6.2 1.1 0 2.3-.2 3.4-.2 1.7.4 3.2 1.8 3.9 1.2.5 2.6.1 3.1-1.2.8-2.5 1.4-5 1.8-7.5.3-1.9.7-3.8 2.6-4.3 2-.6 4.4-.6 5.9 1.2 1.6 1.8 3 3.8 4.2 5.8 1.9 3.6 3.1 7.4 2.5 11.5q-.4 2.8-.6 5.6c-.1 1.5.4 2.7 1.8 3.8zM843 103.8c3.1-1.2 5.6-3.1 9-3.1 4.7.2 8.1 2.6 9.8 7 2.7 6.5.9 12.3-2.4 17.9-1.2 2.1-2.8 3.9-4.3 6.2 2 .3 3.9.5 5.8.8 3.8.7 6.8 2.1 8 6.3 2.3 7.9-.3 16.4-6.9 21.2-1.3 1-2.5 2.2-3.8 3.3 1.3 1.2 2.7 2.5 4.1 3.7 2.1 1.8 3.5 4 4.5 6.4 1.3 3.1 1.3 6.4-.1 9.5-2.2 4.8-5.9 7.9-11.1 9.4-4.1 1.2-8.1 2.8-12.1 4.3-8.3 3-13.5 9-16.7 17-.3.8-.6 1.7-1 2.8-1.2-.8-1.4-1.8-1.4-2.9 0-1.6-.1-3.2 0-4.8.5-5.6-1.7-10.4-4.6-15-3.1-5-6.4-9.9-9.2-15.2-2.4-4.6-2.9-9.7-1.4-14.8.6-2 2.1-2.9 4.1-2.5 2.5.4 2.5.4 5.2-.8-.6-1.7-1.7-3.2-2.8-4.6-2.5-3-5-5.9-7.2-9.1-1.8-2.6-3.2-5.5-3.2-8.9 0-4 2-6.5 5.9-7.3 1.4-.3 2.8-1 4.5-1.7-1.4-2.1-2.5-3.8-3.5-5.6-1.1-1.9-2.5-3.7-3.1-5.8-1.1-3.5-1.4-7.2 1.1-10.4 2.2-2.8 4.4-3 7.4-1.1l.9.9c.9.7 1.6 2 2.9 1.4 1.4-.7 2.3-2 2.3-3.6 0-1.4-.2-2.9-.7-4.2-.6-1.7-1.7-3.2-2.4-4.8-.8-1.8-1.7-3.6-.8-5.9.8-1.8.3-4 .9-5.9 1-3.8 3.3-5.8 6.8-6.2 2.9-.3 5.4-.3 7.9.7 1.8.8 3.4 1.8 4.2 3.7 1.2 2.6 2.6 5.2 3.6 7.9.3 1-.1 2.3-.4 3.4-.4 1.8-.8 3.7-1.5 5.4-.8 2.2.1 3.6 1.7 5zM644.9 675.2c2.1-1.2 3.5-2.8 4.7-4.8q2.1-3.7 4.3-7.2c2.3-3.5 8.6-6 12.5-5.2 3.5.8 5.9 4.8 4.8 8.3-.4 1.4-1 2.7-1.4 4.1-.3 1.4-.2 2.9.9 3.8 1.1 1 2.3 1 3.8.6 2.5-.7 4.2-2.4 6.1-3.8 2.7-2.1 5.3-4.5 8-6.6 3.2-2.6 7-2.9 10.8-1.7 2.9 1 4.5 3.5 5.2 6.4.5 1.7-.5 3-1.6 4.2-.8.9-1.6 1.7-2.2 2.7-.9 1.6-.5 2.7 1 3.7 1.9 1.3 3.9 1.4 6 .9 3.4-.8 6.7-1.5 10-2.4 2.9-.8 5.7-1.2 7.9 1.2 2.6 2.8 3.8 6.1 3 9.9-.1.3-.4.6-.4.8.7 5.1-3.3 6.5-6.5 8.2-3.3 1.7-6.9 2.5-10.7 2.3q-1.9-.2-3.8 0c-3 .2-4.3 2.2-3.2 4.9.7 1.6 1.8 3.1 2.7 4.6 3 4.6 2.1 7.2-3.3 8.3-7.7 1.5-14.8 0-20.5-5.7l-3.4-3.4c-2.7.9-3.4 1.8-3.5 4.8-.1 1.2 0 2.5 0 3.8-.1 3.8-2.4 6.1-6.1 6.2-4.4.1-8.5-.9-12.3-3.2-2.8-1.8-4-5-5.7-7.7q-2.1-3.4-4.6-6.7c-.4-.5-1.3-.7-2.5-1.3v7.6c0 3.5-1.4 4.8-5 4.9-7.1.2-12.6-2.5-16.4-8.5-2-3.3-3.8-6.7-5.8-10-2.2-3.6-4.2-7.5-6.9-10.7-2.1-2.6-5.3-4.3-8.2-6.6.3-.7 1-1.4 2.2-1.7 4.4-1 7.9-3.6 11.3-6.4 3.4-2.8 6.6-5.8 10.5-8 6.2-3.4 10.1-2 15.1 2.1.7.6 1 2 1.3 3.1.3 1.5.4 3.1 1.9 4.2zM797.7 497c2.1-8.1 4.2-15.9 6.4-23.6.6-2.2 1.5-4.4 2.6-6.4 1.8-3.3 4.4-4.5 8.1-3 1.5.7 3 1.4 4.4 2 2.8-2.4 1.4-5.2 1.3-7.8-.1-3.4-.7-6.9-.4-10.3.2-3.8 1.3-7.6 3.5-10.9 1.1-1.7 2.2-3.4 4-4.7 1.4-1 2.5-.9 3.7-.1 1.1.7 2.1 1.5 3.1 2.2l4.4 3c3.3-2 3.6-5.1 4-8.2.5-3.3.7-6.6 1.4-9.9.7-3.9 3.9-5.5 7.4-6.1 1-.1 2.5.9 3.1 1.8.9 1.6 1.3 3.5 2 5.2.6 1.3 1 2.8 1.9 3.9 1.6 1.9 4.1 1.6 5.4-.6.9-1.7 1.6-3.6 2.4-5.4.6-1.5 1.1-3.1 2-4.5 2-3.2 5.2-4.3 8.7-3.6 6.9 1.2 11.3 5.4 12.1 13.6.2 2.9-.5 5.5-1.5 8-.9 2.5-2.9 4-4.9 5.6-2.4 1.9-4.7 3.8-6.9 5.6 0 2.1 1.1 2.8 2.4 3.3 1.9.7 3.8 1.4 5.7 1.9 3.5 1.1 6.1 5.9 3.6 10.6-2.5 4.7-7.1 6.8-12 7.7-1.7.4-3.7-.5-5.5-.8-2.5-.4-5.1-.9-7.3 1-.9.8-1.6 2-2.4 3 2 1.7 3.9 3.1 5.5 4.7 3.9 4.1 4.4 8.7 1.5 13.4-1.6 2.5-4.4 3-7.1 3.7-6.7 1.6-13 0-19.2-2.5-.8-.3-1.6-.5-2.4-.8-.8 1.9-.4 3.1.9 4.4 1.9 1.9 3.7 3.8 5.2 5.9 1.8 2.5 1.4 4.8-.7 7.2-3.2 3.5-7.2 3.5-11.4 2.6-5.3-1-9.7-4.1-14.4-6.6-3.4-1.8-7-3.7-10.8-4.8-2.5-.7-5.4 0-8.1 0-.5.1-1 .2-1.7.3zM881.3 328.2c4.6 2.4 4.1 6.4 4 10.2-.1.5-.6 1.1-1 1.5-2.9 2.9-6.4 4.9-10.3 5.7-4.9.9-9.8 1.2-14.8 1.4-6.9.2-13.8.9-20.1 5.2 1.5-7.2 1.4-14.1 1.1-21-.2-4.4-1.2-8.6-3-12.7-.3-.7-.7-1.6-.7-2.3.4-3.9.5-7.7 2.5-11.2 2-3.3 4.5-4 7.6-2.1.7.4 1.4.5 2 .9 1 .6 2 .1 2.5-.6.4-.5.5-1.5.2-2.2-1.1-3.2-2.6-6.3-3.7-9.5-.9-2.6-1.6-5.1-1.6-7.9 0-3 1.4-5.2 3.4-7.2.9-.8 1.8-.9 2.9-.4 1.1.6 2.2 1.2 3.4 1.7 2.2 1 3 .8 4.9-1.2-1.1-3.8-2.4-7.5-3.2-11.3-.5-2.7-.5-5.5-.5-8.2 0-1.4 1.7-2.7 3.6-2.9 2.1-.3 3.9.3 5.5 1.9 1.2 1.2 2.8 2.2 4.2 3.2 1.4 1.1 2.5.5 3.5-.7 1.9-2.3 2.5-5 2.9-7.8.4-3.3.5-6.7 1.6-9.8 2-6 5.9-6.8 10.4-3.9 3.9 2.5 6.3 6.3 6.2 11.1-.1 2.5-1 5.1-1.4 7.6-.3 2.1-.5 4.2-.4 6.3.2 2.6 2.3 4.2 4.7 3.4 2-.7 4.2-.6 5.7.3 2.2 1.5 3.4 4.1 3.5 6.8.3 5.7-1.9 10.2-6.6 13.5-2.6 1.8-5 3.8-7.3 5.9-1.6 1.4-1.6 1.8-1.9 4.3 1.9 1.7 4.4 1.5 6.6 2.4 1.2.4 2.5.5 3.6 1.1 2.3 1.1 3.6 2.7 3.8 5.6.6 6.8-5.5 15.9-13 18.1-2.9.9-5.7 2.2-8.5 3.4-.7.2-1.3.7-2.3 1.4zM78.5 205.8c-2.8-3.1-5.4-6.1-8.2-9-4.7-5-7.8-11-10.7-17.2-2.5-5.4-4.3-11.2-5.4-17.1-1-4.8-1.5-9.7-2.1-14.5-.6-5.2-.7-10.4-.3-15.5.4-5.7 1-11.4 2.2-17 1.3-6.3 3-12.5 5.3-18.5 3.4-9.4 8-18.1 13.8-26.2 1.5-2.2 3.5-4.1 5.5-6.3 2.9 3.7 5.7 6.9 8.2 10.4 1.2 1.7 1.9 3.9 2.7 6 2.4 6.1 4.7 12.2 5.9 18.7.8 4.2 1.7 8.4 2.4 12.6.4 2.8.7 5.7.7 8.5.1 5.8.3 11.6 0 17.5-.3 5.1-1 10.1-1.8 15.2-.9 5.1-2.1 10.2-3.2 15.3-1.5 7.1-4 14-6.9 20.7-2.3 5.1-4.7 10-7.1 15-.2.4-.5.7-1 1.4zM809.9 319.1c1.9 1.6 3.6 3.1 5.4 4.6 3.2 2.5 3 5.8 2.2 9.2-.7 3.1-1.8 6.2-2.8 9.2-1 3.3-1 6.4.8 9.6-2.4 1.6-4.9 1-7.2.8-2.9-.4-5.7-1.1-8.9-.7-3.6.5-7.5 0-11.2-.6-2.1-.3-3.8-1.7-5.2-3.4-1-1.4-.7-3.3.8-5.1 1-1.2 2.1-2.4 3.2-3.6-2.1-2.2-4.5-3.1-7.2-3-3.2.1-6.2-.8-9-2.3-2.8-1.6-4.2-3.9-4.3-7.1 0-.9.1-1.7 0-2.6 0-2.5 1.3-4.1 3.5-5 .9-.4 1.8-.9 3.4-1.6-2.5-1.8-4.5-3.2-6.4-4.7-1.5-1.2-3-2.4-4.2-3.7-2-2.1-2.1-7.9-.1-10 1.4-1.6 2.6-3.7 5.3-3.2.5.1 1.1-.6 2-1.1-.6-.9-1.1-1.8-1.8-2.4-2.6-2.3-5.3-4.4-7.9-6.7-2.2-2-3.8-4.4-4.3-7.4-.7-4.3 1-9.1 5.7-10.4 1.3-.4 2.4-.3 3.5.1 1.1.5 2.2 1 3.3 1.3 1.7.4 2.8-1 2.1-2.6-.6-1.2-1.3-2.4-2.2-3.4-1.9-2.2-3.5-4.4-4.1-7.6-.3-1.7-.2-3.3.6-4.4 1.5-2.3 3.4-4.2 6.8-4.3 4.9-.1 8.2 2.2 11.2 5.5.3.4.6.9.6 1.4 0 2.8 1.7 4.9 3.2 7 1.6 2.4 3.1 2.7 5.4 1 .9-.7 1.7-1.5 2.7-2.2 3.3-2.2 7.2-1.2 9.1 2.1 1.3 2.2 1.9 4.3 2 6.9.1 4.7-.7 8.9-3.1 13-1.2 2.2-1.6 4.7-1.4 7.3.2 2 2 3 3.8 1.9 1.2-.6 2.3-1.4 3.3-2.2 2.2-1.7 4.2-1.3 5.6 1 2.4 4.3 2.9 8.7 2.1 13.7-.8 5-3.2 9.2-5.3 13.6-.3.8-.7 1.5-1 2.1zM538.3 732.3c-.8 1-1.7 2-2.4 3.1-1.5 2.5-4.6 3.8-7 2.4-1.6-.8-3-2-4-3.8-2.2-4-3-8.6-4.4-12.9-1.9-6-2.4-7.5-6.3-12.1 6.9-5.5 14.7-8.6 23.5-9.8 4.4-.6 8.8-.8 13.1.1 6.5 1.4 8.4 5.1 7.3 12-.1 1-.5 2.1-.2 3.1.8 3.1 2.3 4 5 3 3.5-1.2 7-2.7 10.4-4.2 3.1-1.3 6.3-2.3 9.7-1.8 5.3.8 5.5.6 7.2 5.9.4 1.2.7 2.4 1.3 3.5 1 2.1 1.9 2.5 4 1.3 5.1-2.8 10.5-2.1 15.9-1 2.9.6 5 4.1 4.9 7-.1 1.9-.8 3.2-2.6 4-1.7.7-3.5 1.6-5.1 2.5-.9.6-1.7 1.4-2.8 2.4 1 .7 1.6 1.5 2.3 1.6 6.9 1.2 11.2 6.1 15.3 11 3.5 4.2 2.3 8.2-2.3 10.8-4.3 2.4-9 3.4-13.6.5-1.7-1.1-3.2-2.7-4.9-3.8-2.5-1.7-5.2-2.8-8.3-2.5-1.8.2-2.3.5-2.1 2.3.2 2 .6 4 1.4 5.7 1 2.1 1.2 4 .9 6.2-2.6 2.1-5.6 2.1-8.7 1.4l-3-.6c-5.1-1.3-8-4.8-9.6-9.5-.7-1.9-1.3-3.9-2.1-5.8-1.2-3.1-2.7-3.6-5.5-1.7-.9.7-2 1.3-2.6 2.2-2.1 3-5.3 3.9-8.5 4.1-2.5.2-5-1-6.4-3.6-1.6-2.7-1.8-5.7-2.3-8.6-.3-2.6-.9-5.1-1.1-7.7-.4-3.8-2.7-5.7-6.4-6.7zM656.1 380c11.2 0 21.8.1 32.4-.1 4.9 0 9.8-.7 14.7-1.2 3.4-.3 6.8-.8 10.2-1.3 1.9-.2 3.7-.5 5.5-1 1.3-.3 2.5-.4 3.5.7 3.1 2.9 6.3 5.6 9.2 8.6 3.4 3.5 6.5 7.2 9.6 10.9 3.1 3.7 6 7.6 8.9 11.4 1.2 1.5 2.4 3.1 3.4 4.9.5 1 .9 2.4.7 3.6-1.4 9.3-4.2 18.2-8.1 26.8-2.1 4.6-4.3 9.1-6.4 13.6-3.7 7.8-9.7 13.6-16 19.3-1.1-5.5-2-10.7-3.3-16-2-8.7-5.4-16.9-9.5-24.9-3.2-6.2-7.1-11.9-11.3-17.5-4.9-6.8-10.9-12.6-17-18.2-4.7-4.3-9.9-8.1-15-11.8-3-2.2-6.3-4-9.5-6-.6-.4-1-.9-2-1.8zM62.9 364.8c-4.3-1.7-7.4-4.4-10.7-6.8-1.4-1.1-2.7-2.2-4-3.4-6.9-6.4-12.7-13.7-17.6-21.7-3.4-5.7-6.7-11.5-9.1-17.7-2.1-5.3-4.6-10.5-6.3-15.9-1.4-4.6-2.2-9.5-3-14.3-.8-4.8-1.3-9.7-1.9-14.6v-12.7c0-6.4.4-12.7 1.9-19 .8-3.8 1.7-7.7 2.6-11.5.2-.9.6-1.7 1-2.8.6.3 1 .4 1.2.7 7.1 9.4 14.1 18.8 19.8 29 4.2 7.5 8.4 15 12 22.8 5.2 11.4 9.3 23.2 11.7 35.6 1 5.2 1.9 10.3 2.5 15.5.9 7.6 1.4 15.3 1.2 23-.2 4.5-.9 8.9-1.3 13.8zM140.1 104.1c-.2-1.3-.6-2.5-.7-3.7 0-3.4-.3-6.8.1-10.1.5-4.9 1-9.7 2.4-14.5 2.4-8.6 5.5-17 9.7-24.9 3-5.6 6.6-10.9 10.5-15.9C168 27.7 175 21.8 183 17c6.4-3.8 13.4-6.6 20.7-8.4 4.7-1.2 9.3-2.4 13.9-3.5.7-.2 1.4-.2 2.5-.4-.2 2-.3 3.6-.5 5.3l-.8 6.8c-1.1 8.2-3.6 15.8-7 23.3-4.1 9.2-9.3 17.9-15.7 25.5-5.6 6.6-12 12.5-18.3 18.4-3.8 3.6-7.9 7-12.3 9.8-4.8 2.9-10.1 5.2-15.2 7.6-3.1 1.4-6.4 2.5-10.2 2.7zM65 537c.9-1.5 2-1.9 3.6-1.8 5.4.2 10.9.1 16.4.7 11.3 1.3 22.4 3.9 33 8.3 11.2 4.7 21.4 10.9 30.9 18.3 2.5 1.9 4.7 4.2 7.1 6.3 1.3 1.2 2.9 2.2 4.1 3.5 6.6 7.2 13.1 14.4 18.7 22.5q.2.4.5.8c1.4 2.5.4 4.4-2.5 4.4-6.4.1-12.7.4-19.1 0-9.4-.8-18.8-2.2-27.8-5.3-10.2-3.5-19.7-8.1-28.3-14.4-4.4-3.2-8.6-6.8-12.8-10.2q-2.1-1.6-4.1-3.4c-4.6-4.1-8-9.1-11.1-14.3-2.9-5.1-5.7-10.2-8.6-15.4zM194.5 471.3c13.7-7.5 27.1-14.8 40.8-22.3 13.9 21.3 27.5 42.7 41.5 64.1-13.4 8.6-26.7 17-40.1 25.5-15.1-21.8-28.4-44.5-42.2-67.3zM4.3 390.6c4.7 1.2 8.8 2.1 12.8 3.4 8 2.7 15.5 6.5 22.7 10.9 9.2 5.6 17.4 12.5 24.8 20.4 3.5 3.9 6.6 8.1 9.7 12.3 4.7 6.1 8.5 12.7 11.9 19.6 3.9 7.9 7.2 16.1 9.7 25-1 .3-1.9.7-2.9.8-7.6.4-14.7-1.3-21.6-4.4-8.4-3.7-16.1-8.7-23.4-14.3-2-1.5-3.8-3.3-5.7-4.9-1.5-1.3-3.1-2.5-4.5-3.9-11.1-11.3-20.2-24-26.5-38.5-3-7.2-5.2-14.7-6.1-22.4-.1-1.1-.5-2.2-.9-4zM275.5 664.3c-5.8 4.3-12 7.1-18.8 8.9-9.3 2.4-18.9 2.9-28.4 2.5-4.7-.3-9.3-1.2-14-1.8-11.7-1.4-23-4.5-34.2-8.3-11.4-3.8-21.8-9.6-31.5-16.8-.5-.3-.8-1.1-1.2-1.9 10.9-5.4 22.2-8.5 33.9-9.9 22.1-2.5 43.7.2 64.1 9 10.8 4.6 21.9 8.9 30.1 18.3zM371.3 699.4c.3 2.9-1.3 4.4-2.9 5.7-6.6 5.3-13.6 9.9-21.4 13.3q-10.5 4.7-21.8 7c-5.3 1-10.7 1.9-16.2 1.9-3 0-6 .7-9.1.5-4.1-.1-8.3-.9-12.4-1.1-7-.3-13.6-2.1-20.2-3.9-7.7-2.1-15.1-4.8-22.2-8.5-1.9-1-2-2.1-.1-3.3 4.6-2.5 9.2-5.1 14-7.2 7.3-3.1 14.9-5.6 22.8-7.3 4.1-.9 8.4-1.5 12.6-2.3 4.4-.8 8.9-.9 13.4-1.4 7.2-.9 14.3-.5 21.5-.4 5.5.1 11 1.3 16.5 1.8 7.3.6 14.5 2 21.6 3.8 1.3.4 2.5.9 3.9 1.4zM185.8 116c-.3 2.4-.4 4.3-.8 6.3-2.4 11.2-5.5 22.2-10.8 32.5-4.7 9.2-10.8 17.4-18.7 24-7.6 6.3-15.9 11.7-25.4 14.9q-8.3 2.8-16.7 5.5c-.8.3-1.8.2-2.9.4-.4-2.4-.6-4.6.1-6.9.9-2.7 1.4-5.6 2.1-8.4.2-.7.6-1.4.9-2 3.6-7.4 7.3-14.8 12.3-21.4q4.7-6.1 9.6-12c1.9-2.3 3.9-4.7 6.1-6.7 7.5-7.1 15.6-13.4 24.6-18.3 5.5-3.1 11.3-5.5 17.1-7.6.6-.2 1.2-.2 2.4-.3zM122.2 356.7c2 2.8 3.9 5.2 5.4 7.8 2.5 4.2 4.8 8.6 7.2 12.9 3.5 6.6 5.1 13.8 6.5 21.1 1.6 9.1 1.4 18.1 1 27.2-.4 8.5-2.4 16.9-5.6 24.9-2.3 5.8-5.3 11.1-9 16-.6.9-1.4 1.6-2.2 2.5-3-1.9-4.6-5-6.2-7.8-4-7.3-6.8-15.1-8.4-23.3-.6-3-.3-6.1-.8-9.1-1.2-7.8-.6-15.6-.5-23.4.1-5.1 1.3-10.1 1.7-15.2.5-5.2 1.9-10.2 3.4-15.2 1.8-6.2 4.1-12.2 7.5-18.4zM734.9 144.7c-1.6-1.6-3.4-1.3-5-1.3-6.1 0-10.5-5.7-9.1-11.5.6-2.2 5.1-6.6 9.1-7 3.3-.2 6.2.7 8.4 3.4 1.1 1.4 2.4 2.6 3.7 3.7 2.4 2.1 5.4 1.3 6.2-1.6.8-3.1 1.8-3.6 5-3.5 3 .1 6 .6 7.8 3.3 1 1.5 1.7 3.3 2.1 5.1.5 2.5.5 5 .8 7.5.1 1.4.3 2.7.7 4 .9 2.5 2.9 3.4 5.6 2.8 1.3-.4 2.5-1.6 4.1-.7 1.9 1.1 2.8 2.7 3.6 4.6 1.7 4.1 2.3 8.4 3.2 12.7.9 4.5 2.3 8.9 3.7 13.2 1.3 3.8 4 6.6 6.8 9.3 1.5 1.5 2.6 3 1.9 5.3-2.4.2-4.7.2-6.9.8-3.5.8-6.8 2.1-10.1 3.3-3 1.1-6 2-9.2 1.9-4.1-.1-8.9-3.8-9.6-7.7-.3-1.8 0-3.6 1.5-4.9 1.7-1.6 3.4-3 5.4-4.6-2.3-1.9-5.1-2.6-8-3.2-2.7-.5-5.4-.9-7.9-1.9-4.1-1.7-5.1-5.8-2.7-9.6.8-1.3 1.5-2.7 2.4-4.1-2.1-2.1-4.6-1.7-6.9-2.1-1.4-.3-2.9-.1-4.4-.1-5.2 0-7.9-3.8-6.9-9 .6-3.3 2.4-5.7 4.7-8.1zM195 571.6c-3.4-2.4-6.9-4.6-10.1-7.2-2.9-2.3-5.5-5-8.2-7.5-3.7-3.5-6.4-7.7-8.8-12-3.7-6.7-7-13.5-9-20.9-1.2-4.8-2.3-9.7-3-14.6-1-6.1-.7-12.2-.5-18.3.3-6.5 1.8-13 4.2-19.1.4-.9.8-1.9 1.3-3.2 2.9 2.9 5.9 5.5 8.4 8.5 3 3.6 5.9 7.5 8.5 11.6 6.2 9.6 11.4 19.7 14.9 30.6 1.9 5.8 3.1 11.7 3.9 17.7.6 5.4 1.4 10.9 1.1 16.3-.2 3.9-.7 7.7-1.1 11.6q-.4 3-.7 6.1-.4.2-.9.4zM697.5 558c-1.2-3.7-3.5-5.7-5.1-8.3-1.2-1.8-2.5-3.6-3.1-5.6-1.2-4.6.7-7.6 5.4-7 1.1.2 2.2.5 3.4.6 1.3.2 2.5-.1 3.3-1.3.8-1.3-.2-2.2-.8-3.2-1.1-1.6-2.3-3.2-3.5-4.8-1.6-2.1-2-4.5-1.8-7.1.2-2.4 1.6-3.7 4-3.9 2.5-.3 4.5.8 6.8 1.3.9.3 1.9.6 2.7.5 2-.4 3.1-1.9 3-4.2-.1-2.8.3-5.5 1.8-8.1 1-1.9 2.4-2.9 4.5-2.9 2.8 0 5.5-.2 8.1 1.8 3.2 2.5 6.6 8.8 4.7 12.7-.1.1-.1.4-.1.6-1 4.4-.6 4.9 4.1 5.3 1.3.1 2.7-.1 4 .3 4.5 1.2 5.6 4.5 4 8.5-1.4 3.3-4.3 5.2-7.2 6.8-2.4 1.4-4.9 2.5-7.2 4-1.2.7-2 1.9-3.3 3.2 3.1 1.3 5.5 2.6 7.1 5.1 1.4 2.5 1.5 3.3-.7 5.1-1.5 1.3-3.3 2.3-5 3.2-2.2 1.2-4.7 2-6.8 3.3-2.7 1.7-4.5 4.1-4.3 7.5 0 .8-.1 1.5-.1 2.3-4.2 1.3-7.5 3.8-10.6 6.7-1.6 1.6-3.1 3.5-6.1 3-1.7-4.1-4.7-7.4-7.6-10.8-1.5-1.8-2.6-4.1-3.4-6.2-1.3-3.4 1.7-7.5 5.3-7.7 1.4-.1 2.8-.4 4.5-.7zM376.4 669.9c-5.3.3-10.4.1-15.5-1.1-6.7-1.6-13.2-3.5-19.3-6.8-6.1-3.3-11.8-7.1-17-11.7-5.1-4.6-9.4-9.7-13.2-15.3q-7.5-11.1-10.4-24.2c-.2-.8-.5-1.6-.7-2.5 2.2-1.8 4.9-1.6 7.3-1.8 5.1-.2 10 1.2 14.7 3.1 7.7 3 14.6 7.3 21 12.5 4 3.3 7.5 7.3 11.2 11 4.3 4.3 7.7 9.2 10.9 14.2 4.3 7 8.2 14.3 11 22.6zM771.1 423.9c-2.2-3.8-4.2-7.4-6.3-11-1.2-2.3-1.7-4.7-1.4-7.3.2-2.3 1.6-3.2 3.6-2.3 1.1.4 2.1 1 3.2 1.5 2.2 1 3.8-.1 3.5-2.6-.1-1.3-.5-2.6-.9-3.9-.5-2.1-1.3-4.2-1.7-6.3-.5-1.9 1.1-5.2 2.9-6.2 2.8-1.6 5.5-1.6 8.2.2 2.3 1.4 4 3.1 5.1 5.7 1.4 3.5 3.3 6.8 3.4 11 .9.1 1.8.2 2.7.2 3.2 0 5.6 1.7 7.9 3.5.2.2.4.5.6.7 1.4 2.3.9 9.4-.7 11.5-1.7 2.5-3.7 4.6-6.4 6-.4.2-.8.6-1.2 1-2.7 2.5-2.3 4.4 1.1 5.8 1.4.6 2.7 1.2 3.8 2.1 2.7 2.4 3 4.7 1 7.7-1.3 1.9-2.8 3.5-4.4 5-1.8 1.9-3.9 3.5-5.8 5.3-2.6 2.7-2.6 4.4-.1 7 .2.2.4.5.7.8-1.7 2.1-3.7 4.1-4.9 6.4-1.2 2.4-1.5 5.2-2.3 8.3-.6-.9-.9-1.3-1.2-1.7-1.9-3.6-5.4-5.2-8.6-7.1-3-1.7-6.1-3.2-9-5.1-2.6-1.7-4.1-6.8-2.9-9.6.4-.9 1.6-1.6 2.5-2.2 1.2-.8 2.6-1.3 3.8-2.1.7-.3 1.2-.8 2-1.4-1.4-1.9-2.5-3.5-3.8-5-1.2-1.4-2.6-2.7-4-4.1-2.6-2.7-3.4-5.9-2-9.5.8-1.9 2.4-2.7 4.2-2 .8.3 1.5.7 2.3 1.1 2.3 1 3 .7 5.1-1.4zM651 580.3c.6-3.2 1-6.2 1.6-9.1.5-3.3 2.7-5.1 5.6-6.2 4.3-1.8 11.3-.5 13.8 2.9 3 4.1 3.8 9.5-1.8 13.4-1 .7-2 1.2-3 1.9-2.5 1.8-2.9 4.2-1 6.7.7.9 1.7 1.7 2.5 2.5 1.1 1.1 1.6 2.3 1.7 3.9 0 3.8-.5 4.5-4.1 5.8q-2 .7-4.1 1.4c-4.8 1.6-6.4 4.6-5.4 9.7.5 2.6.7 5.3.8 7.9 0 2.6-.9 3.9-3.5 4.5-3.3.8-6.7 1.5-10.1 1.7-3.7.3-7.3.9-10.8 2.2-2.2.8-3.9 2.5-5 4.6-.9 1.7-1.6 3.6-2.4 5.4-.3.6-.9 1.1-1.6 1.9-.6-1.4-1-2.6-1.6-3.6-1.9-3.2-3.8-6.5-5.8-9.6-1.3-2-1.1-4.1-.9-6.1.1-.8 1.1-1.7 1.8-2.3 1.2-1 2.7-1.8 3.7-2.9 1.8-1.8 1.9-3.2.2-4.9-2.7-2.7-2.8-6-2.6-9.4.1-1.9 2.4-3.7 4.7-3.8 2.6-.1 5.1 0 7.6 0 1.2-.1 3 .5 3.4-1.1.3-1.6.8-3.5-.6-5.1-2.3-2.4-3.4-5.2-3-8.5.4-4 2.4-5.9 6.1-6.3 2.9-.2 5.5-.1 7.9 2.2 2 1.9 4 1.6 5.9.3zM277.9 634.3c-4.6.6-8.4-.9-12.1-2.5-4.8-2-9.5-4.2-14-6.8-5.2-3-9-7.6-12.8-12-5.7-6.6-9.5-14.2-13.1-22-2.8-6.2-4.7-12.8-6.3-19.4-1.1-4.6-2-9.1-3-13.7-.4-1.8.5-2.7 2.2-2.2 1.1.2 2.2.7 3.3 1.1 7.2 3 14.1 6.6 20 11.7q5.1 4.4 9.8 9.1c5.6 5.7 10 12.3 13.9 19.3 3.4 6.1 6.5 12.4 8.3 19.2 1.5 5.4 2.6 10.9 3.8 16.4.1.5 0 1 0 1.8zM127.9 242.7c.2.2.4.3.4.4q-.5 6.3-1.1 12.7l-.6 7.2c-.8 8.7-2.6 17.1-4.9 25.5-2.1 7.6-4.7 15.1-7.9 22.3-3.7 8.4-8 16.3-13.3 23.8-2.6 3.6-5.3 7.2-8.4 11.3-.9-2.5-1.8-4.2-2.2-6-1.2-5.4-2.7-10.7-2.7-16.3 0-2.9-.7-5.9-.5-8.8.5-6.6 1.2-13.2 3-19.7 2.1-7.2 5.1-14.1 8.7-20.6 2.7-5.1 5.8-9.9 9.6-14.2 3.1-3.5 5.9-7.1 9.2-10.3 3.1-3.1 6.6-5.8 10.7-7.3zM537.7 670.1c1.9-4 1.3-7.8.1-11.6-1.1-3.5-2.4-7-3.6-10.6-.2-.4-.4-.9-.4-1.4-.5-4.5.6-5.7 5.1-5.7 2.8-.1 5.5.6 8.4 0 2.2-.4 2.4-.5 2-2.7-.4-2.1-.8-4.1-.9-6.2-.1-4.8 3.5-8.2 8.2-8.4 2.5-.1 4.2.7 5.8 2.5 1.2 1.4 2.8 2.4 4.2 3.6 2.8-1.9 3.6-4.5 4.7-7 1-2.5 2.1-5 4.4-6.7 3-2.2 6.3-2 9.6-1.7 3.3.4 5.5 2.5 7.6 4.8.4.5.9 1.1.9 1.6 0 3.1.2 6.2-.4 9.1-.7 3.1-3.4 4.6-6.3 5.6-1.7.7-3.5 1.4-5 2.5-1.9 1.4-1.8 2.4-.5 4.3 1.5 2.1 2.8 4.3 3 7.1.1 2.4-1 3.8-2.6 5.1-3.5 2.7-7.7 3.9-12 4.2-3.9.4-5.9 2.7-5.2 6.5.3 1.4.5 2.8.9 4.6-1.3.4-2.4 1-3.4 1-7.6.1-15.3.1-22.9 0-.5 0-.9-.2-1.7-.5zM684.5 222.9c-6.2-9.3-12.3-18.4-18.5-27.7 4.3-2.5 8.5-4.9 12.6-7.3q8.7-4.9 17.4-9.9c6.4-3.6 12.7-7.2 19.1-10.7.7-.4 1.8-.1 2.6.2 2.4.9 3.9 2.8 5.2 4.9 2.1 3.2 3.8 6.7 5.7 10.1-4.2 6-9.2 11.2-14.8 15.8-2 1.6-3.8 3.4-5.7 5-6.9 5.6-13.9 11.3-20.8 16.9-.8.7-1.6 1.6-2.8 2.7zM831.2 386.8c.3-1.9.4-3.7.9-5.6 1.1-4.5 4.5-6.5 8.7-4.3 3.7 2.1 7.1 4.6 10.5 7q2.1 1.4 4 3.1c2.7 2.3 4 7.1.5 10.2-2.5 2.2-5.2 3.9-8.5 4.4-2.4.4-4.8 1-7.4-.1-2.6-1.1-4.5-2.8-6-5.2-1.7-2.7-2.8-6.2-2.7-9.5zM831.6 228.6c-.6-4.4-.4-8.4 2-11.8 1.4-2.2 3.2-4.3 5.2-5.8 3.6-2.6 9-2 12 .9 1.4 1.3 2.3 3.6 2.6 5.6.5 4.6.1 9.2-2 13.4-6.9 1.2-13.1-1.5-19.8-2.3zM800.6 223.9c3.6 4.7 3.5 9.8 3.3 14.8-.2 3.3-4.1 7.4-7.5 7.7-6.5.6-12.4-1.6-16.3-7.8-1.5-2.4-1.2-3.8 1.3-5.4 5.3-3.4 10.6-6.9 16.9-8.6q1.1-.4 2.3-.7zM842.8 368.9c2-4.7 4.6-8.4 9.3-10 4.3-1.4 8.6-.9 11.8 2.2 2.6 2.4 3.7 5.8 2.5 9.7-1 3.4-1.9 6.6-4.4 9.2-1.2 1.4-2.5 1.5-4.2.8-3.2-1.4-6-3.4-8.6-5.6-2.2-1.9-4.2-4.1-6.4-6.3zM830.4 235.2c5.9.8 11.3 1.5 16.8 2.3.7.1 1.5 0 2.2 0 2.3.1 3.2.8 3.4 2.9.2 2 .3 4.1 0 6-.7 4-5.7 8.9-9.7 9.5-3.7.6-6.6-1.2-9.1-3.8-3.8-3.8-5.1-8.5-4.5-13.8.1-.9.5-1.7.9-3.1zM511.8 674c-6.1-3-11.6-5.8-15-11.6 2.5-4.7 5.2-9.2 9.8-11.9 2.8-1.6 6.1-1.6 8.7.1 2.4 1.5 3.5 4.7 3.4 7.4-.2 3.5-.1 7.4-2.5 10.5-1.3 1.8-2.8 3.6-4.4 5.5zM793.6 541.1c-5.6-.4-9.8-1-12.8-4.7-2-2.3-2.3-8-.4-10.3 2.7-3.1 5.5-6.1 8.4-9 1.6-1.7 2.9-1.6 4 .5s2 4.3 2.7 6.6c1.2 4 2.5 7.7 5.7 10.6 1.4 1.3 1.1 2.6-.6 3.6-2.5 1.5-5 3.1-7 2.7zM398.8 715.4c0 6.1-4.2 9.7-10.7 10-5.8.3-10.9-5.2-10.9-10.1.2-6.5 5.3-10.8 11.1-10.8 5.4 0 11.1 3.8 10.5 10.9zM115.7 519.9c-.1 7-4.7 10.6-10.4 10.6S95.1 527 94.9 520c-.3-6.6 5-10.9 10.5-10.8 5.6.1 10.6 4.4 10.3 10.7zM68 387c.3 6.3-4.7 10.8-10.4 10.7-6-.1-10.1-4-10.3-10.6-.2-5.3 4.1-10.5 10.6-10.3 5.7.1 10.1 4.5 10.1 10.2zM405.7 680.8c-4.9 1-10.8-4.4-10.6-9.7.4-6.4 4-10.3 10.8-10.6 5.1-.2 10.6 4.3 10.5 10.4-.1 5.3-4.1 10.6-10.7 9.9zM68 235.7c.6 5.5-5.1 10-10.4 10-4.9.1-10.8-4.1-10.5-10.1.3-5.8 4.5-10.2 10.5-10.2 6 .1 10.4 4.4 10.4 10.3zM99.3 226.8c0-6.5 3.8-10.3 10-10.3 5.8 0 10.4 4.5 10.2 10.2-.3 6.3-4.5 9.7-10.1 10.1-4.9.3-11.3-4.9-10.1-10zM510.5 680.1c-3.9 3.5-7.6 6.2-12.1 7.4-1.9.5-4.1.5-6 .2-2.6-.4-3.9-2.8-4.7-5-1.4-3.6-1.6-7.3.3-10.8 1.1-2.1 2.4-4.1 3.8-6.3 6.3 4.9 12.3 9.5 18.7 14.5zM286.2 687.8c-6 0-9.4-3.2-9.4-9.1 0-5.7 3.8-9.3 9.8-9.3 5.7 0 9.1 3.5 9.1 9.3 0 5.9-3.3 9.1-9.5 9.1zM765.4 499.6c-2.6 3.8-3.6 8.6-7.9 11.1-5 2.7-8.8 2.1-12.4-2.6-2.7-3.4-2.2-7.5-2-11.5 0-1.4 1.2-1.4 2.3-1.5 4.1-.2 8.1.6 12.1 1.6 2.6.7 5.3 1.2 7.9 2.9zM746.3 490.4c-.5-4.1-.1-7.8 2-11 1.2-1.7 2.6-3.3 4.1-4.7 1.2-1.2 4.3-.8 5.8.6 1.2 1.1 2.3 2.3 3 3.6 2.1 3.7 3.5 7.6 3.3 12-.1 1.3-.5 2.4-2 2.3-5.4-.6-11-.3-16.2-2.8zM778.4 228.4c-3.3-5.4-4.8-10.4-2.4-16.2 1.8-4.4 5.6-4.7 8.8-3.5 3.4 1.3 6.4 3.6 7.1 7.8v.3c1.5 4.6 1.5 4.7-3 6.8-3.3 1.7-6.8 3.1-10.5 4.8zM805.6 530.2c-1.6-5.8-6.2-10.2-6-16.3 3.6-1.9 7.2-3 11.1-2.9 5.2.2 6.7 2.6 7.7 6.4.2.4.1 1 0 1.5-1.4 5.1-4.5 8.7-9.3 10.7-1 .5-2.2.4-3.5.6zM192.7 629.9c-4.8.7-9.1-4.3-8.8-8.5.3-5 3.9-9.2 8.6-9.2 5.2-.1 9.7 4.2 9.7 9.2 0 4.6-4.3 8.5-9.5 8.5zM688 630.4c1.5 3.9 3.2 7.5 4.3 11.3.7 2.4.7 5 .8 7.5.1.5-.9 1.6-1.4 1.6-3.6.4-7-.6-10.3-2-2.6-1.2-4.4-3.1-5.3-5.8-.2-.6-.6-1.3-.4-1.8 1.6-4.2 3.4-8.4 8.1-10.1 1.2-.5 2.6-.4 4.2-.7zM587.3 706.1c-.4-4.6.7-8.6 2.1-12.5 1-2.8 2.5-3.2 5.6-2.8 2.5.4 4.7 1.1 6.7 2.6 2.6 1.9 3.7 5.2 2.4 8-.7 1.4-1.9 2.8-3.3 3.6-4.2 2.4-8.7 2.5-13.5 1.1zM125.2 105.4c.6 4.8-2.6 7.9-5.7 8.7-3.6.9-7-.7-8.8-4-3.1-5.7.5-12.4 5.6-13.4 2.5-.5 6.1.8 7.6 3.2 1 1.8 1.8 3.6 1.3 5.5zM303.4 639c-.1 4.7-3.5 8.2-8.1 8.1-4.5-.1-8.7-4.2-8.3-8.4.5-4.3 3.6-7.6 8.5-7.5 4.9.1 7.9 2.9 7.9 7.8zM793.5 379.2c-2.1-4.1-2.1-8.2-.7-12.3 1.3-3.6 5-5 8.7-3.7 2.9 1 3.9 3.5 4.8 5.9.7 2 .6 4.3.9 6.2-3.1 2.9-8.5 3.7-13.7 3.9zM811.6 385.8c-.8 2.3-1 5-3 7-3.5 3.4-9.4 2.6-12.1-1.8-.9-1.4-1.5-3-2.2-4.5-.8-2-.4-3.2 1.7-3.9 2.1-.7 4.4-1.2 6.6-1.9 1.7-.5 3.4-.8 5-1.6 1.5-.6 2.3-.2 2.7 1.1.5 1.8.8 3.6 1.3 5.6zM582.2 705.2c-2.7-1.1-5.5-2-8-3.3-5.2-3-4-7.9-1.7-11.2 2.1-2.8 5.1-3.1 8.1-3.1 1.5 0 3 .5 4.5.9 1.1.4 1.4 1.2 1.1 2.3-1.1 4.2-2 8.5-3 12.7-.2.5-.5.9-1 1.7zM697.2 649.1c.2-7.5-2.1-13.5-5.3-19.5 4-1.1 7.7-1.9 11.2.3 1.7 1.2 3.3 2.7 4.6 4.3 1.5 1.9 1.1 4.8-.9 7.2-2.5 3-5.7 5.2-9.6 7.7zM138.9 492.6c-4.3 0-7.8-3.4-7.8-7.7.1-4.7 3.2-7.3 8.3-7.7 4-.3 7.7 3.4 8 7.7.4 4.1-3.8 7.7-8.5 7.7zM780.7 117.7c2.9-.6 5.7-.9 8.5-1.7 1.9-.6 3.6-.5 5.5.1 1.9.5 3.3 2.8 2.7 4.7-1.1 3.5-2.6 6.7-6 8.7-3.2 2-5.5 1.6-7.9-1.5-2.1-2.6-3.3-6-2.8-10.3zM90.4 368.2c0-4.2 2.3-6.6 6.2-6.6 4-.1 7.1 2.9 7 6.8 0 3.9-2.7 6.5-6.8 6.5-4.2 0-6.4-2.3-6.4-6.7zM784.1 113.3c-4-.1-4.6-2-4.1-5 .4-2.5 1.1-5 2.9-7.1 1.9-2.3 5-2.4 7.2-.2 1.3 1.3 2.3 3 3.1 4.7 1.2 2.5.4 4.6-2.2 5.6-2.2.8-4.6 1.3-6.9 2zM606.1 628.7c3.2-.2 4.7 2.3 6 4.6 1.3 2.2 0 4.4-1.4 6.1-1.1 1.5-2.2 3.6-4.7 3.2-.7-.1-1.6-.3-2.2-.8-1.1-1.1-2-2.4-3-3.6-1.5-1.7-2.2-3.6-.9-5.7 1.4-2.1 3.1-4 6.2-3.8zM604.5 647.5c-2.6 3.1-6.6 4.6-10.3 3.3-1.8-.5-2.9-2.1-3.1-3.9-.3-2.9-.3-5.6 1.8-8 1.5-1.8 2-2 3.6-.3 2.7 2.9 5.3 5.9 8 8.9zM212.9 593.1c-3.4 0-6.1-2.6-6.1-5.8.1-2.8 3.4-5.8 6.4-5.7 3 .1 6.1 3 6.2 5.7 0 3.3-2.8 5.8-6.5 5.8zM678.6 592.9c.9-1.7 1.4-2.9 2-4 2-3.9 6.1-4.7 9-1.6.5.6.9 1.6 1.1 2.4.1.8 0 1.7 0 2.5 0 4.1-2.8 5.9-6.5 4.1-1.9-.9-3.6-2.2-5.6-3.4zM684.2 599.8c.2 3.7.1 3.8-2.5 4.7-2.6 1-4.4-.1-4.8-2.8-.1-.9-.1-1.7 0-2.6 0-.9.1-1.8.1-2.9 2.8.6 5 2.1 7.2 3.6zM452.8 301.1c11.7-.6 21.5 9.2 21.5 21.2.1 11.1-8.3 22.1-22.8 21.6-10.2-.4-20.6-10.1-20.3-22.1.3-11.2 10.8-21.8 21.6-20.7z" class="s0"/></g></g></svg>