<?xml version="1.0" encoding="utf-8"?>
<!-- Generator: Adobe Illustrator 26.0.2, SVG Export Plug-In . SVG Version: 6.00 Build 0)  -->
<svg version="1.1" id="Layer_1" xmlns="http://www.w3.org/2000/svg" xmlns:xlink="http://www.w3.org/1999/xlink" x="0px" y="0px"
	 viewBox="0 0 163.7 169.8" style="enable-background:new 0 0 163.7 169.8;" xml:space="preserve">
<style type="text/css">
	.st0{clip-path:url(#SVGID_00000126308045119079656810000010086671615478708926_);fill:#D2232A;}
	.st1{fill:#D2232A;}
	.st2{clip-path:url(#SVGID_00000046306125652630259020000008295839677003950517_);fill:#D2232A;}
</style>
<g>
	<defs>
		<rect id="SVGID_1_" width="163.7" height="169.8"/>
	</defs>
	<clipPath id="SVGID_00000013174675476147927320000009325430592432542103_">
		<use xlink:href="#SVGID_1_"  style="overflow:visible;"/>
	</clipPath>
	<path style="clip-path:url(#SVGID_00000013174675476147927320000009325430592432542103_);fill:#D2232A;" d="M86.8,29.5
		c0-2.3-1.9-4.2-4.1-4.2c-2.5,0-4.3,1.9-4.3,4.2c0,2.3,1.8,4.1,4.1,4.2C84.9,33.8,86.8,31.8,86.8,29.5 M63.4,25.1
		c0.2,0,0.3,0.1,0.4,0.1c1,0,2,0.1,2.9-0.1c0.7-0.1,1.3-0.4,1.9-0.8c0.6-0.5,0.8-1,0.1-1.7c-0.2-0.2-0.4-0.4-0.6-0.6
		c-0.2-0.4-0.3-0.8,0.1-1.1c0.3-0.2,0.6-0.4,1-0.5c0.4,0,0.8,0,1.2-0.1c0.5,0,1-0.1,1.4-0.2c0.6-0.1,1.1-0.4,1.2-1.1
		c0.1-0.2,0-0.4-0.2-0.5c-0.2-0.1-0.4-0.2-0.6-0.3C72,18.1,71.7,18,71.4,18c-0.3-0.1-0.5-0.2-0.5-0.5c-0.1-0.5,0-1,0.3-1.4
		c0.1-0.2,0.3-0.3,0.5-0.4c0.4-0.1,0.9-0.1,1.4-0.1c0.3,0.1,0.7,0.1,1.1,0c0.5-0.1,0.7-0.5,0.7-1c0-0.6-0.1-0.8-0.8-0.9
		c-0.1,0-0.1,0-0.2,0c-0.5-0.2-0.6-0.4-0.7-0.9c0-0.4,0.3-0.6,0.5-0.9c0.3-0.3,0.6-0.5,0.9-0.7c0.2-0.2,0.3-0.4,0.4-0.7
		c0.1-0.3,0-0.4-0.2-0.5c-0.3-0.2-0.6-0.1-0.9,0c-0.5,0.2-1.1,0.5-1.6,0.8c-0.8,0.4-1.6,1-2.3,1.6c-0.6,0.5-1.1,1.1-1.6,1.6
		c-0.8,0.9-1.5,1.9-2.1,3c-0.8,1.5-1.5,3-2,4.6C64,22.8,63.8,24,63.4,25.1 M105.1,16.5c1.4-1,2.8-1.9,4.2-2.8
		c0.1,0.1,0.1,0.1,0.2,0.2c0.7,1.1,1.4,2.1,2.1,3.2c0.2,0.3,0.2,0.3-0.1,0.6c-0.5,0.5-1.1,0.9-1.7,1.4c-0.6,0.5-1.3,1-1.9,1.6
		c-0.2,0.2-0.4,0.4-0.6,0.6c-0.1,0.1-0.1,0.3-0.1,0.4c0.4,0.8,0.8,1.5,1.3,2.3c0.1,0.2,0.2,0.3,0.4,0.5c-0.1,0.4-0.6,0.6-0.8,1
		c-0.3-0.3-0.5-0.7-0.7-1c-0.4-0.7-0.9-1.4-1.3-2c-0.1-0.2-0.3-0.2-0.4-0.1c-0.2,0.1-0.4,0.3-0.6,0.5c-0.2,0.2-0.2,0.4,0,0.6
		c0.5,0.8,0.9,1.7,1.5,2.4c0.4,0.6,0.9,1.1,1.3,1.7c0,0.1,0.1,0.1,0.1,0.2H87.7c0.2,0.6,0.3,1.1,0.5,1.7h0.5c6.5,0,13,0,19.4,0
		c0.3,0,0.5,0.1,0.8,0.3c0.8,1.1,1.7,2.1,2.7,3c0.9,0.8,1.8,1.5,2.8,2.1c0.4,0.2,0.8,0.5,1.3,0.7c-0.1,0-0.3,0.1-0.4,0.1
		c-0.4,0-0.7,0-1.1,0.1c-0.9,0.1-1.7,0.1-2.6,0.2c-1.5,0.1-3,0-4.5,0.1c-0.2,0-0.5,0-0.7,0c-0.9,0-1.7,0-2.6-0.1
		c-0.7,0-1.4-0.2-2.1-0.2c-0.5-0.1-1.1-0.1-1.6-0.2c-0.7-0.1-1.4-0.2-2.1-0.4c-1.7-0.5-3.4-1-5.1-1.6C92,33,91,32.6,89.9,32.1
		c-0.5-0.2-1-0.5-1.5-0.7c-0.3-0.2-0.5-0.1-0.6,0.2c-0.2,0.5-0.5,1-0.8,1.4c-0.1,0.1-0.1,0.1-0.1,0.2c-0.1,0.2,0,0.4,0.1,0.5
		c1,0.7,1.9,1.4,2.9,2.1c1,0.7,2.1,1.3,3.1,1.9c0.7,0.4,1.4,0.9,2.1,1.3c1.2,0.8,2.5,1.5,3.7,2.3c0.9,0.6,1.8,1.2,2.8,1.7
		c1,0.6,2,1.3,3.1,1.9c0.5,0.3,1,0.7,1.6,1c1.2,0.6,2.3,1.4,3.5,2.2c0.8,0.5,1.5,1,2.3,1.5c0,0,0.1,0,0.1,0.1c-1,1.3-2,2.6-3.1,3.8
		c-0.3-0.2-0.7-0.4-1-0.7c-0.7-0.5-1.4-1-2-1.5c-1.2-0.9-2.4-1.7-3.6-2.6c-1.2-0.9-2.5-1.7-3.7-2.6c-0.9-0.6-1.8-1.2-2.7-1.9
		c-1.2-0.8-2.4-1.7-3.6-2.5c-1-0.7-2-1.4-3-2.1c-1-0.7-2.1-1.4-3.1-2.2c0,0-0.1,0-0.1,0c0,0,0,0-0.1,0c0,0,0,0,0,0c0,0,0,0,0,0
		c0,0,0,0.1,0,0.1c0,0.1,0,0.1,0,0.2c0,4.8,0,9.6,0,14.5c0,0,0,0.1,0,0.1c0,0,0,0,0,0c-0.3,0.1-5,0.1-6,0c0-1.7,0-3.3,0-5
		c0-1.7,0-3.3,0-5v-5.1c-1.6,1.1-3,2.2-4.4,3.3c-1.4,1.1-2.8,2.3-4.2,3.4c-0.4-0.6-0.8-1.2-1.2-1.7c-0.6-0.9-1.2-1.7-1.8-2.6
		c-0.1-0.1-0.1-0.3-0.1-0.4c3.8-1.4,7.3-3.3,10.5-5.8c-0.4-0.5-0.7-1-1.1-1.5c-0.1-0.2-0.3-0.1-0.4-0.1c-0.5,0.2-1.1,0.4-1.6,0.6
		c-1.2,0.4-2.4,0.9-3.6,1.1c-0.7,0.1-1.3,0.2-2,0.3c-0.8,0.1-1.6,0.2-2.4,0.3c-0.5,0-1,0-1.4,0.1c-1,0.1-1.9,0.1-2.9,0.1
		c-0.7,0-1.3,0-2-0.1c-0.7,0-1.4-0.1-2-0.2c-0.6-0.1-1.3-0.2-1.9-0.2c-0.6-0.1-1.1-0.1-1.8-0.2c0.1-0.1,0.2-0.2,0.3-0.3
		c0.8-0.6,1.4-1.4,2.1-2.2c0.5-0.6,1.1-1.1,1.6-1.6c0.3-0.4,0.7-0.4,1.2-0.4c2.6,0,5.2,0.1,7.9,0c2.2-0.1,4.5,0,6.7-0.1
		c0.4,0,0.9,0.1,1.3,0.1c0.4,0,0.4,0,0.4-0.4c0-0.4,0.1-0.8,0.2-1.2c0-0.1,0-0.1,0-0.2c-0.1,0-0.2,0-0.3,0c-3.1,0-6.2-0.1-9.3-0.1
		c-1.3,0-2.7,0-4,0c-0.9,0-1.7,0.1-2.6,0.1c-0.1,0-0.3,0-0.5,0c0.1-0.3,0.1-0.6,0.2-0.9c0.2-0.8,0.5-1.6,0.7-2.4
		c0.1-0.3,0-0.5-0.2-0.7c-0.5-0.5-1.1-0.8-1.7-1.3c-0.1-0.1-0.3-0.2-0.4-0.3c-0.3-0.3-0.3-0.3-0.1-0.7c0.4-0.8,0.8-1.7,1.4-2.4
		c0.1-0.2,0.3-0.2,0.5-0.1c0.2,0.1,0.5,0.2,0.7,0.4c0.4,0.2,0.9,0.4,1.4,0.5c0.2-0.4,0.5-0.8,0.7-1.2c0.8-1.5,1.6-2.9,2.6-4.3
		c0.6-0.9,1.4-1.7,2.2-2.4c0.9-0.8,1.9-1.5,3-2.1c0.9-0.5,1.9-0.9,2.9-1.2c0.9-0.3,1.8-0.5,2.8-0.7c0.8-0.1,1.7-0.2,2.5-0.2
		c0.4,0,0.9-0.1,1.3-0.1c0.7,0,1.3,0.1,1.9,0.2c0.5,0,1,0.1,1.5,0.2c0.9,0.2,1.8,0.3,2.6,0.5c1.2,0.3,2.4,0.8,3.6,1.3
		c0.6,0.3,1.2,0.7,1.8,1c0.6,0.3,1.2,0.7,1.7,1.1c0.7,0.5,1.3,0.9,1.9,1.4c0.6,0.4,1.1,0.9,1.6,1.4c0.8,0.7,1.5,1.4,2.2,2.1
		c0.5,0.5,1,1.1,1.5,1.7c0.2,0.3,0.3,0.3,0.6,0c0.1-0.1,0.2-0.2,0.4-0.3c-0.3-0.4-0.5-0.7-0.8-1.1c-0.5-0.7-1.1-1.3-1.6-2
		c-0.7-0.8-1.4-1.5-2.1-2.2c-1.1-1-2.3-1.9-3.6-2.6c-0.9-0.5-1.7-1-2.6-1.4c-1.3-0.6-2.6-1.1-4.1-1.5c-0.7-0.2-1.5-0.4-2.2-0.5
		c-0.5-0.1-1-0.2-1.4-0.2c-0.4-0.1-0.9-0.1-1.3-0.2c-0.1,0-0.2,0-0.2,0c-0.8,0-1.7,0-2.5,0c-0.8,0.1-1.6,0.2-2.5,0.3
		c-1.1,0.1-2.2,0.5-3.3,0.8c-1,0.4-2,0.8-2.9,1.4c-0.9,0.6-1.8,1.1-2.6,1.6c-0.4,0.2-0.8,0.1-1.1-0.1c-0.5-0.2-0.8-0.6-1.2-1
		c-0.3-0.3-0.5-0.7-0.7-1.1c-0.1-0.3-0.2-0.6-0.2-0.9c0-0.3,0-0.7,0-1c0.1-0.5,0.4-0.9,0.7-1.2c0.6-0.7,1.4-1.2,2.2-1.7
		c0.9-0.5,1.7-1,2.7-1.5c0.9-0.5,1.9-0.8,2.9-1c0.9-0.2,1.8-0.4,2.6-0.6c0.4-0.1,0.9-0.1,1.3-0.2c0.7-0.1,1.3-0.1,2-0.2
		C80.9,0,81.7,0,82.5,0c1.3,0.1,2.7,0.2,4,0.5c1.5,0.3,3,0.8,4.4,1.4c1.6,0.7,3.1,1.6,4.5,2.6c0.8,0.5,1.5,1.2,2.2,1.8
		c0.5,0.4,0.9,0.8,1.4,1.2c0.4,0.4,0.7,0.8,1.1,1.2c0.2,0.3,0.5,0.5,0.7,0.8c0.4,0.5,0.7,0.9,1.1,1.4c0.6,0.9,1.3,1.8,1.8,2.8
		c0.4,0.7,0.8,1.5,1.1,2.3C104.9,16.1,105,16.3,105.1,16.5"/>
	<path style="clip-path:url(#SVGID_00000013174675476147927320000009325430592432542103_);fill:#D2232A;" d="M50.7,29.6
		c-3-1.8-5.9-3.6-8.7-5.6c0.2-0.4,0.5-0.5,0.7-0.7c0.6-0.5,1.1-1,1.7-1.5c1-1,1.8-2.1,2.5-3.3c0.6-0.9,1.1-1.9,1.7-2.9
		c0.9-1.5,1.7-3,2.7-4.5c0.3-0.5,0.7-0.9,1.1-1.4c0.3-0.3,0.6-0.6,0.8-0.9c0.6-0.6,1.3-1,2-1.4c0.4-0.2,0.8-0.5,1.2-0.6
		c0.8-0.4,1.7-0.7,2.5-1c1-0.4,1.9-0.7,2.9-1c0.6-0.2,1.3-0.4,2-0.6c0,0.1,0,0.1,0,0.2c-0.4,0.4-0.7,0.8-1.1,1.2
		c-1.2,1.3-2.4,2.7-3.3,4.2c-0.7,1.1-1.2,2.3-1.5,3.7c0,0.3-0.1,0.6-0.2,0.9c0,0.5,0.1,1,0.3,1.4c0.3,0.8,0.7,1.4,1.3,1.9
		c0.1,0.1,0.2,0.1,0.2,0.2c-0.4,1.2-0.9,2.2-1.5,3.2c-0.1,0.2-0.2,0.2-0.4,0.1c-0.5-0.2-1.1-0.4-1.6-0.5c-0.7-0.2-1.3-0.2-2,0
		c-0.6,0.2-1.1,0.6-1.5,1.1c-0.8,0.9-1.1,2.1-1.3,3.2c-0.1,0.7-0.2,1.5-0.2,2.2c-0.1,0.6-0.1,1.2-0.2,1.7
		C50.8,29.1,50.8,29.3,50.7,29.6"/>
	<path style="clip-path:url(#SVGID_00000013174675476147927320000009325430592432542103_);fill:#D2232A;" d="M61.6,52.6
		c-0.8-1.2-1.6-2.4-2.4-3.7c-0.6-1-1.2-1.9-1.9-2.9c-0.2-0.3-0.3-0.6-0.5-0.9c-0.1-0.3-0.1-0.3,0.2-0.5c1.3-0.7,2.6-1.5,3.9-2.2
		c1.2-0.7,2.4-1.4,3.6-2.1c0.3-0.2,0.6-0.3,0.9-0.3c0.6,0,1.1,0.3,1.6,0.7c0.5,0.4,0.8,1,1.2,1.5c0.4,0.5,0.7,1.1,1.1,1.6
		c0.3,0.5,0.8,1.1,1,1.7c0.2,0.5,0,1.2-0.4,1.6c-1.1,1-2.4,1.8-3.7,2.6c-0.6,0.4-1.3,0.8-1.9,1.2c-0.8,0.5-1.6,1-2.4,1.4
		C61.8,52.5,61.7,52.5,61.6,52.6"/>
	<path style="clip-path:url(#SVGID_00000013174675476147927320000009325430592432542103_);fill:#D2232A;" d="M109,37
		c1.5,0,2.8,0,4.2,0c0.6,0,1.3-0.1,1.9-0.2c0.4,0,0.9-0.1,1.3-0.2c0.2,0,0.5-0.1,0.7-0.1c0.2,0,0.3,0,0.5,0.1
		c0.4,0.4,0.8,0.7,1.2,1.1c0.4,0.5,0.8,0.9,1.2,1.4c0.4,0.5,0.8,1,1.2,1.5c0.2,0.2,0.3,0.4,0.4,0.6c0.1,0.1,0.1,0.3,0.1,0.5
		c-0.2,1.2-0.5,2.4-1.1,3.5c-0.3,0.6-0.6,1.2-0.8,1.8c-0.5,1-1.3,1.8-2.1,2.5c-0.1-0.7-0.3-1.4-0.4-2.1c-0.3-1.1-0.7-2.2-1.2-3.2
		c-0.4-0.8-0.9-1.5-1.5-2.3c-0.6-0.9-1.4-1.6-2.2-2.4c-0.6-0.6-1.3-1-1.9-1.5c-0.4-0.3-0.8-0.5-1.2-0.8
		C109.2,37.2,109.1,37.1,109,37"/>
	<path style="clip-path:url(#SVGID_00000013174675476147927320000009325430592432542103_);fill:#D2232A;" d="M49.2,48.8
		c1.8-1,3.5-1.9,5.3-2.9c1.8,2.8,3.6,5.5,5.4,8.3c-1.7,1.1-3.5,2.2-5.2,3.3C52.7,54.7,51,51.8,49.2,48.8"/>
	<path style="clip-path:url(#SVGID_00000013174675476147927320000009325430592432542103_);fill:#D2232A;" d="M112.7,16.7
		c-0.8-1.2-1.6-2.4-2.4-3.6c0.6-0.3,1.1-0.6,1.6-0.9c0.7-0.4,1.5-0.9,2.2-1.3c0.8-0.5,1.6-0.9,2.5-1.4c0.1,0,0.2,0,0.3,0
		c0.3,0.1,0.5,0.4,0.7,0.6c0.3,0.4,0.5,0.9,0.7,1.3c-0.5,0.8-1.2,1.4-1.9,2c-0.3,0.2-0.5,0.4-0.7,0.6c-0.9,0.7-1.8,1.5-2.7,2.2
		C112.9,16.4,112.8,16.5,112.7,16.7"/>
	<path style="clip-path:url(#SVGID_00000013174675476147927320000009325430592432542103_);fill:#D2232A;" d="M82.6,26.8
		c1.5-0.1,2.8,1.2,2.8,2.7c0,1.4-1.1,2.9-3,2.8c-1.3,0-2.7-1.3-2.6-2.9C79.9,28,81.3,26.6,82.6,26.8"/>
</g>
<polygon class="st1" points="56.8,118.1 50.7,118.1 50.7,70.1 41.6,75.7 41.6,69.2 49.2,64.1 56.8,64.1 "/>
<g>
	<defs>
		<rect id="SVGID_00000072238917254200671920000015902842034475220924_" width="163.7" height="169.8"/>
	</defs>
	<clipPath id="SVGID_00000049937794504679980410000013403165150293025722_">
		<use xlink:href="#SVGID_00000072238917254200671920000015902842034475220924_"  style="overflow:visible;"/>
	</clipPath>
	<path style="clip-path:url(#SVGID_00000049937794504679980410000013403165150293025722_);fill:#D2232A;" d="M80.6,111.1
		c1-1.1,1.5-2.7,1.5-4.8V75.9c0-2.1-0.5-3.7-1.5-4.8c-1-1.1-2.5-1.7-4.3-1.7c-1.9,0-3.3,0.6-4.3,1.7c-1,1.1-1.5,2.7-1.5,4.8v30.3
		c0,2.1,0.5,3.7,1.5,4.8c1,1.1,2.5,1.7,4.3,1.7C78.2,112.8,79.6,112.2,80.6,111.1 M67.4,115.4c-2.1-2.2-3.2-5.2-3.2-9.1V75.9
		c0-3.9,1-7,3.2-9.1c2.1-2.2,5.1-3.2,8.9-3.2s6.8,1.1,8.9,3.2c2.1,2.2,3.2,5.2,3.2,9.1v30.3c0,3.9-1.1,7-3.2,9.1
		c-2.1,2.2-5.1,3.2-8.9,3.2S69.5,117.5,67.4,115.4"/>
	<path style="clip-path:url(#SVGID_00000049937794504679980410000013403165150293025722_);fill:#D2232A;" d="M112.2,111.1
		c1-1.1,1.5-2.7,1.5-4.8V75.9c0-2.1-0.5-3.7-1.5-4.8c-1-1.1-2.5-1.7-4.3-1.7c-1.9,0-3.3,0.6-4.3,1.7c-1,1.1-1.5,2.7-1.5,4.8v30.3
		c0,2.1,0.5,3.7,1.5,4.8c1,1.1,2.5,1.7,4.3,1.7C109.7,112.8,111.1,112.2,112.2,111.1 M98.9,115.4c-2.1-2.2-3.2-5.2-3.2-9.1V75.9
		c0-3.9,1-7,3.2-9.1c2.1-2.2,5.1-3.2,8.9-3.2s6.8,1.1,8.9,3.2c2.1,2.2,3.2,5.2,3.2,9.1v30.3c0,3.9-1.1,7-3.2,9.1
		c-2.1,2.2-5.1,3.2-8.9,3.2S101,117.5,98.9,115.4"/>
	<path style="clip-path:url(#SVGID_00000049937794504679980410000013403165150293025722_);fill:#D2232A;" d="M84.3,150.4
		c0.1-0.4-0.1-0.8-0.6-1.2c-0.1,0-0.1-0.1-0.2-0.2c-0.7-0.5-1.3-0.9-2.2-0.7c-0.6,0.2-1,0.4-1.3,0.9c-0.4,0.7-0.5,1.4-0.4,2.2
		c0.1,1,0.4,1.9,1,2.7c0.4,0.6,0.8,0.6,1.4,0.2c0.3-0.3,0.7-0.5,1-0.8C83.8,152.7,84.3,151.7,84.3,150.4 M81.6,157.5
		c-0.7,0.3-1.2,0.8-1.7,1.4c-0.8,1-0.9,2.2-1,3.3c0,0.5,0.1,1.1,0.2,1.6c0.3,1.1,0.8,2.1,1.7,2.9c0.4,0.4,0.9,0.7,1.4,0.6
		c1.2-0.1,2.1-0.7,2.7-1.7c0.8-1.1,0.9-2.3,0.5-3.6c-0.3-1.1-1-2-1.7-2.8c-0.5-0.6-1.2-1.1-1.8-1.6
		C81.9,157.6,81.8,157.5,81.6,157.5 M86.2,156c0.3,0.2,0.6,0.3,0.8,0.4c0.7,0.4,1.4,0.9,2,1.4c0.5,0.4,0.8,0.9,1.2,1.4
		c0.8,1.1,1.5,2.2,2.2,3.4c0.6,1.2,1.3,2.3,2.1,3.4c0.8,1.2,1.9,2,3.5,2.3c0.6,0.1,1.3,0,1.9-0.2c0.4-0.1,0.7,0,0.9,0.3
		c0.3,0.4,0.2,1-0.3,1.2c-0.4,0.2-0.8,0.3-1.2,0.3c-1.4,0.1-2.8-0.1-4-0.9c-1-0.6-1.8-1.4-2.4-2.4c-0.5-0.7-0.9-1.5-1.3-2.2
		c-0.7-1.2-1.4-2.4-2.1-3.5c-0.5-0.8-1.1-1.5-1.8-2.2c-0.9-0.8-1.9-1.3-3.1-1.6c-0.1,0-0.2,0-0.3,0c-0.1,0-0.1,0-0.3,0
		c0.4,0.4,0.6,0.7,1,0.9c0.7,0.6,1.3,1.3,1.7,2.2c0.4,0.8,0.7,1.7,0.7,2.6c0,0.9,0,1.7-0.3,2.6c-0.5,1.2-1.3,2.2-2.5,2.8
		c-0.5,0.3-1.1,0.5-1.7,0.6c-0.6,0.1-1.1,0-1.7-0.2c-1.2-0.5-2-1.4-2.6-2.5c-0.8-1.4-1.2-3-1-4.6c0.1-1,0.3-2,0.8-2.9
		c0.1-0.1,0.1-0.2,0.2-0.4c-0.2,0.1-0.3,0.1-0.4,0.2c-0.7,0.4-1.3,1-1.8,1.7c-0.9,1.2-1.5,2.6-2.2,3.9c-0.6,1.2-1.3,2.4-2.2,3.4
		c-0.9,1-1.9,1.8-3.2,2.3c-1.2,0.4-2.3,0.4-3.4-0.3c-0.4-0.3-0.8-0.7-1.1-1.2c-0.6-0.9-1-1.9-1.2-3c-0.1-0.3-0.1-0.6,0.2-0.9
		c0.2-0.2,0.5-0.3,0.8-0.3c0.3,0.1,0.5,0.3,0.6,0.6c0.1,0.6,0.3,1.1,0.5,1.7c0.2,0.6,0.6,1.1,1,1.5c0.7,0.6,1.6,0.5,2.3,0.1
		c0.8-0.4,1.5-0.8,2.1-1.5c0.7-0.9,1.3-1.8,1.8-2.8c0.6-1.1,1.2-2.3,1.8-3.4c0.9-1.6,2.1-2.9,3.9-3.7c0.3-0.1,0.5-0.3,0.9-0.5
		c-1-0.1-1.9-0.2-2.8-0.3c-0.7-0.1-1.3-0.2-2-0.3c-0.7-0.1-1.5-0.2-2.2-0.4c-0.8-0.1-1.6-0.3-2.4-0.5c-1.5-0.4-3-0.7-4.5-1.1
		c-1.5-0.4-3.1-0.9-4.6-1.4c-1.3-0.4-2.5-0.9-3.8-1.5c-1.3-0.5-2.5-1.1-3.8-1.7c-1.3-0.6-2.5-1.3-3.8-2c-1.9-1-3.7-2.1-5.5-3.4
		c-1.1-0.8-2.3-1.6-3.4-2.4c-1.2-0.9-2.4-2-3.6-2.9c-1.6-1.3-3.1-2.7-4.5-4.2c-0.9-0.9-1.6-1.8-2.5-2.7c-0.6-0.7-1.3-1.5-1.9-2.2
		c-0.5-0.7-1.1-1.3-1.6-2c-0.9-1.2-1.8-2.5-2.6-3.8c-0.7-1.1-1.4-2.2-2-3.3c-0.7-1.2-1.4-2.4-2-3.7c-0.9-1.9-1.8-3.7-2.5-5.7
		c-0.3-0.8-0.7-1.7-0.9-2.5c-0.5-1.7-1.1-3.5-1.5-5.2c-0.3-1.2-0.5-2.4-0.7-3.6c-0.2-1.1-0.4-2.2-0.6-3.3c-0.1-0.5-0.1-1-0.1-1.4
		c-0.1-0.6-0.1-1.2-0.2-1.8c0,0,0-0.1,0-0.1c0-0.8-0.1-1.5-0.1-2.3c0-1.9,0-3.8,0-5.7c0-0.8,0.1-1.6,0.1-2.3
		c0.1-0.8,0.1-1.5,0.2-2.3c0.2-1.2,0.4-2.4,0.6-3.6c0.2-1,0.4-2.1,0.6-3.1c0.2-1,0.4-2.1,0.7-3.1c0.5-1.7,1-3.3,1.6-5
		c0.6-1.6,1.2-3.1,1.9-4.7c0.7-1.7,1.6-3.3,2.4-4.9c0.7-1.3,1.4-2.5,2.2-3.7c0.1-0.1,0.2-0.3,0.3-0.3c0.4-0.3,0.7-0.3,1.1,0
		c0.3,0.2,0.4,0.7,0.2,1.1c-0.3,0.5-0.7,1.1-1,1.6c-0.3,0.5-0.6,0.9-0.8,1.4c-1.1,1.9-2,3.8-2.9,5.8c-0.8,1.8-1.5,3.6-2.1,5.5
		c-0.6,2-1.2,3.9-1.7,5.9c-0.3,1.3-0.5,2.6-0.7,3.9c-0.2,0.9-0.3,1.7-0.4,2.6c-0.1,0.5-0.1,1-0.1,1.5c-0.1,0.6-0.1,1.2-0.2,1.9
		c0,0.1,0,0.1,0,0.2c-0.2,2.4-0.1,4.9-0.1,7.3c0,1.1,0.1,2.2,0.2,3.3c0.1,1.3,0.4,2.6,0.6,3.9c0.3,2.4,0.9,4.8,1.6,7.2
		c0.4,1.3,0.8,2.5,1.2,3.7c0.6,1.8,1.3,3.6,2.2,5.4c0.7,1.5,1.4,3,2.2,4.4c0.7,1.3,1.5,2.6,2.3,3.9c0.7,1.1,1.4,2.1,2.2,3.2
		c0.7,0.9,1.4,1.8,2.1,2.7c0.6,0.8,1.2,1.5,1.9,2.2c0.2,0.3,0.5,0.6,0.7,0.8c1.6,1.6,3.2,3.3,4.9,4.9c1.5,1.4,3.2,2.7,4.8,4
		c1.5,1.1,3,2.2,4.6,3.2c1.4,0.9,2.8,1.7,4.2,2.5c1.6,0.9,3.3,1.8,5,2.5c1.7,0.8,3.4,1.4,5.1,2.1c1.4,0.5,2.8,1,4.3,1.4
		c1.8,0.5,3.7,1,5.6,1.4c1.1,0.3,2.2,0.5,3.3,0.7c0.9,0.2,1.8,0.2,2.8,0.4c0.9,0.1,1.8,0.2,2.7,0.3c0.1,0,0.2,0,0.2,0
		c-0.2-0.6-0.4-1.1-0.5-1.7c-0.3-0.9-0.3-1.8-0.1-2.7c0.1-0.7,0.3-1.4,0.7-2c0.5-0.6,1.1-1,1.9-1.2c0.3-0.1,0.5-0.1,0.8-0.1
		c1.1-0.1,1.9,0.4,2.8,0.9c0.6,0.4,1.1,0.9,1.4,1.6c0.2,0.5,0.4,1.1,0.2,1.7c-0.1,0.2,0,0.5-0.1,0.8c-0.2,0.9-0.6,1.8-1.3,2.5
		c0,0,0,0.1-0.1,0.2c0.1,0,0.3,0.1,0.4,0c0.5-0.1,1.1-0.1,1.6-0.2c0.4,0,0.9-0.1,1.3-0.1c0.9-0.1,1.8-0.3,2.7-0.4
		c1.1-0.2,2.2-0.4,3.2-0.6c1-0.2,2-0.4,2.9-0.7c1.8-0.5,3.7-1.1,5.5-1.7c1.5-0.5,2.9-1.1,4.3-1.7c1.8-0.8,3.5-1.6,5.3-2.5
		c1.3-0.6,2.5-1.4,3.7-2.1c0.8-0.4,1.5-0.9,2.2-1.4c1.5-1,3-2.1,4.4-3.2c0.9-0.7,1.8-1.5,2.7-2.2c2-1.6,3.7-3.4,5.5-5.2
		c0.9-0.9,1.8-1.9,2.6-2.9c1-1.2,2-2.4,2.9-3.7c0.9-1.2,1.7-2.4,2.4-3.6c1-1.6,2-3.2,2.9-4.9c0.5-1,1-2,1.4-2.9
		c0.4-1,0.9-1.9,1.3-2.9c0.7-1.6,1.2-3.2,1.7-4.8c0.6-1.9,1.1-3.8,1.5-5.7c0.2-1.1,0.5-2.2,0.7-3.3c0.1-0.7,0.2-1.4,0.2-2
		c0.1-0.9,0.2-1.7,0.3-2.6c0,0,0-0.1,0-0.1c0-0.8,0.1-1.5,0.1-2.3c0-1.3,0.1-2.7,0.1-4c0-1.1-0.1-2.2-0.2-3.3c0-0.6-0.1-1.3-0.1-1.9
		c-0.1-0.7-0.1-1.4-0.2-2.1c-0.1-0.6-0.2-1.3-0.3-1.9c-0.2-0.9-0.3-1.7-0.5-2.6c-0.3-1.4-0.7-2.7-1-4.1c-0.2-0.9-0.5-1.8-0.8-2.7
		c-0.8-2.4-1.7-4.8-2.7-7.1c-0.9-2-1.9-3.9-2.8-5.8c-0.2-0.3-0.4-0.6-0.3-1c0-0.3,0.2-0.5,0.4-0.6c0.3-0.1,0.6-0.2,0.8,0.1
		c0.1,0.1,0.3,0.3,0.4,0.4c0.4,0.8,0.9,1.5,1.2,2.3c0.6,1.2,1.2,2.4,1.7,3.7c1,2.2,1.9,4.5,2.7,6.8c0.6,2,1.2,4,1.7,6
		c0.4,1.4,0.6,2.9,0.8,4.3c0.2,0.9,0.3,1.7,0.4,2.6c0.1,0.5,0.1,1,0.1,1.4c0.1,0.6,0.1,1.3,0.2,1.9c0,0,0,0.1,0,0.1
		c0,2.2,0.1,4.5,0.1,6.7c0,0.7-0.1,1.3-0.1,2c-0.1,1-0.2,2-0.3,3c-0.1,0.8-0.1,1.5-0.2,2.3c-0.1,0.7-0.2,1.5-0.4,2.2
		c-0.2,1.2-0.5,2.5-0.8,3.7c-0.2,0.9-0.5,1.8-0.7,2.7c-0.3,1-0.6,2-1,3c-0.7,1.9-1.4,3.7-2.2,5.6c-0.6,1.3-1.2,2.6-1.9,3.9
		c-0.9,1.7-1.9,3.4-3,5c-1.3,2-2.7,3.9-4.2,5.8c-0.6,0.8-1.3,1.5-1.9,2.2c-0.6,0.7-1.3,1.4-1.9,2.1c-1.1,1.1-2.2,2.3-3.3,3.3
		c-0.8,0.8-1.8,1.5-2.7,2.3c-1.5,1.3-3,2.5-4.7,3.6c-1.5,1-3,2-4.6,2.9c-1.8,1.1-3.7,2.1-5.6,3c-2.4,1.2-4.9,2.2-7.5,3.1
		c-2.7,1-5.5,1.8-8.3,2.4c-1.5,0.4-3.1,0.6-4.7,0.9c-1,0.2-2,0.2-2.9,0.4C86.9,155.8,86.6,155.9,86.2,156"/>
	<path style="clip-path:url(#SVGID_00000049937794504679980410000013403165150293025722_);fill:#D2232A;" d="M133.6,143.1
		c-0.3,0.2-0.4,0.5-0.4,0.8c0,0.3-0.1,0.6-0.1,0.9c0,0.2-0.2,0.3-0.4,0.4c-0.6,0.2-1.2,0.1-1.7-0.3c-0.6-0.4-1.1-0.8-1.5-1.4
		c-0.3-0.4-0.7-0.6-1-1c-0.4-0.5-0.8-0.9-1.3-1.2c-0.5-0.3-1-0.5-1.5-0.7c0.1,0,0.2-0.1,0.3-0.1c0.4-0.2,0.8-0.4,1.2-0.7
		c0.8-0.6,1.4-1.3,2-2c0.9-1.1,1.7-2.1,2.7-3c0.4-0.3,0.8-0.6,1.3-0.7c0.4-0.1,0.8,0,1,0.4c0.2,0.4,0.4,0.8,0.6,1.2
		c0.6-0.1,0.8-0.3,0.9-0.9c0.1-0.3,0.2-0.6,0.2-1c0-0.6,0.3-1.1,0.7-1.5c0.3-0.4,0.7-0.8,1.2-1c0.7-0.3,1.3-0.2,1.6,0.6
		c0.1,0.3,0.2,0.6,0.3,0.8c0,0.1,0.1,0.3,0.2,0.4c0.3,0.3,0.6,0.3,0.8,0c0.3-0.5,0.5-1,0.7-1.6c0.1-0.6,0.3-1.1,0.7-1.6
		c0.4-0.4,1.2-0.4,1.6,0c0.1,0.1,0.2,0.2,0.3,0.3c0.4,0.3,0.4,0.7,0.2,1.2c-0.1,0.2-0.1,0.3-0.2,0.5c-0.2,0.5-0.1,0.6,0.4,0.8
		c0.5-0.6,1-1.2,1.5-1.7c0.7-0.7,1.9-0.7,2.6,0.1c0.7,0.7,0.9,1.6,0.8,2.5c0,0.4-0.3,0.7-0.5,1c-0.4,0.4-0.8,0.7-1.4,0.8
		c-0.4,0.1-0.8,0.2-1,0.6c0.4,0.3,0.8,0.5,1.2,0.7c1,0.5,1.1,1.9,0.1,2.7c-0.5,0.4-1.1,0.3-1.6,0.2c-0.8-0.1-1.6-0.4-2.4-0.5
		c-0.3-0.1-0.7-0.1-1-0.1c-0.2,0-0.3,0.2-0.4,0.3c0,0.1,0.1,0.3,0.2,0.4c0.3,0.3,0.6,0.7,0.9,1c0.7,0.8,0.5,1.8-0.5,2.3
		c-0.6,0.3-1.1,0.1-1.6-0.1c-0.9-0.4-1.7-1-2.5-1.5c-0.2-0.1-0.4-0.4-0.8-0.1c-0.2,0.2-0.3,0.5,0,0.8c0.2,0.3,0.4,0.6,0.6,0.9
		c0,0,0.1,0.1,0.1,0.1c0.3,0.3,0.6,0.7,0.4,1.2c-0.2,0.6-0.7,0.9-1.4,0.9c-0.7,0-1.3,0-1.9-0.4c-0.2-0.1-0.4-0.2-0.5-0.4
		c-0.4-0.4-0.8-0.8-1.2-1.1C133.9,143.3,133.7,143.2,133.6,143.1"/>
	<path style="clip-path:url(#SVGID_00000049937794504679980410000013403165150293025722_);fill:#D2232A;" d="M137,42.5
		c0.2-0.2,0.4-0.3,0.6-0.4c0.6-0.5,1.3-0.5,2-0.5c0.1,0,0.2,0.1,0.3,0.1c0.9,0.5,1.4,1.7,1.2,2.7c-0.2,1.2-0.8,2.2-1.2,3.3
		c-0.3,0.8-0.6,1.7-0.8,2.5c-0.1,0.8-0.1,1.6,0.1,2.4c-0.4,0.3-0.8,0.4-1.3,0.2c-0.2-0.1-0.3-0.2-0.5-0.3c-0.6-0.4-1.3-0.5-2.1-0.4
		c-1.1,0.2-2.1,0.3-3.2,0c-0.7-0.2-1.1-0.6-1.1-1.2c0-0.7,0.2-1.3,0.9-1.6c0.4-0.1,0.7-0.4,0.8-0.8c-0.7-0.4-1.4-0.6-2.2-0.4
		c-0.6,0.1-1.2,0.1-1.8,0.1c-0.7,0-1.3-0.4-1.5-1c-0.3-0.6-0.1-1.2,0.4-1.7c0.2-0.2,0.5-0.4,0.8-0.5c0.3-0.1,0.7-0.2,0.8-0.6
		c-0.5-0.7-1.2-0.7-1.9-0.6c-0.4,0.1-0.7,0.1-1.1,0.2c-1.1,0.1-1.8-0.7-2.2-1.4c-0.2-0.4-0.2-0.9-0.1-1.4c0.1-0.6,0.7-1,1.5-1
		c0.5,0,1.1-0.1,1.6-0.1c0.1,0,0.3-0.1,0.4-0.1c-0.1-0.6-0.7-0.6-1.1-0.9c-0.3-0.2-0.6-0.3-0.9-0.4c-0.6-0.3-0.8-0.8-0.9-1.4
		c0-0.6,0.1-1,0.4-1.5c0.3-0.5,0.9-0.6,1.4-0.5c0.8,0,1.1,0.6,1.4,1.1c0.2,0.3,0.5,0.6,0.8,0.9c0.1,0.1,0.3,0.1,0.6,0.2
		c0-0.2,0.1-0.3,0.1-0.4c0-0.5,0-1,0-1.5c0-0.5,0.4-0.8,0.9-0.9c1,0,1.6,0.4,2,1.3c0.3,0.8,0.5,1.6,0.6,2.4c0,0.2,0,0.4,0,0.6
		c0,0.3,0.1,0.6,0.3,0.7c0.2,0.1,0.5,0,0.6-0.2c0.1-0.4,0.3-0.9,0.3-1.3c0.1-0.3,0.1-0.7,0.5-0.8c0.4-0.1,0.8-0.1,1.1,0.2
		c0.3,0.3,0.5,0.7,0.8,1c0.4,0.6,0.6,1.3,0.5,2c0,0.3-0.1,0.7-0.1,1C136.6,42.1,136.7,42.4,137,42.5"/>
	<path style="clip-path:url(#SVGID_00000049937794504679980410000013403165150293025722_);fill:#D2232A;" d="M152.1,49.9
		c0.6-0.2,1-0.6,1.6-0.5c0.8,0,1.5,0.4,1.8,1.2c0.5,1.1,0.2,2.2-0.4,3.2c-0.2,0.4-0.5,0.7-0.8,1.1c0.4,0.1,0.7,0.1,1.1,0.1
		c0.7,0.1,1.2,0.4,1.5,1.1c0.4,1.4-0.1,2.9-1.2,3.7c-0.2,0.2-0.5,0.4-0.7,0.6c0.2,0.2,0.5,0.5,0.7,0.7c0.4,0.3,0.6,0.7,0.8,1.1
		c0.2,0.5,0.2,1.1,0,1.7c-0.4,0.9-1.1,1.4-2,1.7c-0.7,0.2-1.5,0.5-2.2,0.8c-1.5,0.5-2.4,1.6-3,3c-0.1,0.2-0.1,0.3-0.2,0.5
		c-0.2-0.1-0.2-0.3-0.2-0.5c0-0.3,0-0.6,0-0.8c0.1-1-0.3-1.8-0.8-2.6c-0.6-0.9-1.2-1.8-1.7-2.7c-0.4-0.8-0.5-1.7-0.3-2.6
		c0.1-0.4,0.4-0.5,0.7-0.4c0.5,0.1,0.5,0.1,0.9-0.1c-0.1-0.3-0.3-0.6-0.5-0.8c-0.4-0.5-0.9-1-1.3-1.6c-0.3-0.5-0.6-1-0.6-1.6
		c0-0.7,0.4-1.1,1.1-1.3c0.3-0.1,0.5-0.2,0.8-0.3c-0.2-0.4-0.4-0.7-0.6-1c-0.2-0.3-0.4-0.7-0.6-1c-0.2-0.6-0.3-1.3,0.2-1.8
		c0.4-0.5,0.8-0.5,1.3-0.2c0.1,0,0.1,0.1,0.2,0.1c0.2,0.1,0.3,0.4,0.5,0.2c0.3-0.1,0.4-0.4,0.4-0.6c0-0.2,0-0.5-0.1-0.7
		c-0.1-0.3-0.3-0.6-0.4-0.8c-0.1-0.3-0.3-0.6-0.1-1c0.1-0.3,0.1-0.7,0.2-1c0.2-0.7,0.6-1,1.2-1.1c0.5-0.1,1-0.1,1.4,0.1
		c0.3,0.1,0.6,0.3,0.8,0.6c0.2,0.5,0.5,0.9,0.6,1.4c0.1,0.2,0,0.4-0.1,0.6c-0.1,0.3-0.1,0.6-0.3,1C151.7,49.4,151.8,49.6,152.1,49.9
		"/>
	<path style="clip-path:url(#SVGID_00000049937794504679980410000013403165150293025722_);fill:#D2232A;" d="M116.2,150.6
		c0.4-0.2,0.6-0.5,0.9-0.8c0.3-0.4,0.5-0.9,0.8-1.3c0.4-0.6,1.6-1.1,2.3-0.9c0.6,0.1,1.1,0.8,0.9,1.5c-0.1,0.2-0.2,0.5-0.3,0.7
		c-0.1,0.2,0,0.5,0.2,0.7c0.2,0.2,0.4,0.2,0.7,0.1c0.4-0.1,0.8-0.4,1.1-0.7c0.5-0.4,1-0.8,1.4-1.2c0.6-0.5,1.3-0.5,2-0.3
		c0.5,0.2,0.8,0.6,0.9,1.1c0.1,0.3-0.1,0.5-0.3,0.7c-0.1,0.1-0.3,0.3-0.4,0.5c-0.2,0.3-0.1,0.5,0.2,0.6c0.3,0.2,0.7,0.3,1.1,0.2
		c0.6-0.1,1.2-0.3,1.8-0.4c0.5-0.1,1-0.2,1.4,0.2c0.5,0.5,0.7,1.1,0.5,1.7c0,0.1-0.1,0.1-0.1,0.2c0.1,0.9-0.6,1.1-1.2,1.4
		c-0.6,0.3-1.2,0.4-1.9,0.4c-0.2,0-0.5,0-0.7,0c-0.5,0-0.8,0.4-0.6,0.9c0.1,0.3,0.3,0.5,0.5,0.8c0.5,0.8,0.4,1.3-0.6,1.5
		c-1.4,0.3-2.7,0-3.7-1c-0.2-0.2-0.4-0.4-0.6-0.6c-0.5,0.2-0.6,0.3-0.6,0.8c0,0.2,0,0.4,0,0.7c0,0.7-0.4,1.1-1.1,1.1
		c-0.8,0-1.5-0.2-2.2-0.6c-0.5-0.3-0.7-0.9-1-1.4c-0.3-0.4-0.5-0.8-0.8-1.2c-0.1-0.1-0.2-0.1-0.5-0.2c0,0.5,0,0.9,0,1.3
		c0,0.6-0.2,0.9-0.9,0.9c-1.3,0-2.3-0.4-3-1.5c-0.4-0.6-0.7-1.2-1.1-1.8c-0.4-0.6-0.8-1.3-1.2-1.9c-0.4-0.5-1-0.8-1.5-1.2
		c0-0.1,0.2-0.2,0.4-0.3c0.8-0.2,1.4-0.6,2.1-1.1c0.6-0.5,1.2-1,1.9-1.4c1.1-0.6,1.8-0.4,2.7,0.4c0.1,0.1,0.2,0.4,0.2,0.5
		C115.9,150.2,115.9,150.4,116.2,150.6"/>
	<path style="clip-path:url(#SVGID_00000049937794504679980410000013403165150293025722_);fill:#D2232A;" d="M143.9,119.2
		c0.4-1.4,0.8-2.8,1.2-4.2c0.1-0.4,0.3-0.8,0.5-1.1c0.3-0.6,0.8-0.8,1.5-0.5c0.3,0.1,0.6,0.2,0.8,0.3c0.5-0.4,0.3-0.9,0.2-1.4
		c0-0.6-0.1-1.2-0.1-1.8c0-0.7,0.3-1.3,0.6-1.9c0.2-0.3,0.4-0.6,0.7-0.8c0.3-0.2,0.5-0.2,0.7,0c0.2,0.1,0.4,0.3,0.6,0.4
		c0.3,0.2,0.5,0.4,0.8,0.5c0.6-0.4,0.7-0.9,0.7-1.5c0.1-0.6,0.1-1.2,0.2-1.7c0.1-0.7,0.7-1,1.4-1.1c0.2,0,0.4,0.1,0.5,0.3
		c0.2,0.3,0.2,0.6,0.4,0.9c0.1,0.2,0.2,0.5,0.3,0.7c0.3,0.3,0.8,0.3,1-0.1c0.2-0.3,0.3-0.6,0.4-0.9c0.1-0.3,0.2-0.6,0.4-0.8
		c0.4-0.6,0.9-0.8,1.6-0.6c1.2,0.2,2,0.9,2.2,2.4c0,0.5-0.1,1-0.3,1.4c-0.2,0.4-0.5,0.7-0.9,1c-0.4,0.3-0.9,0.7-1.2,1
		c0,0.4,0.2,0.5,0.4,0.6c0.3,0.1,0.7,0.2,1,0.3c0.6,0.2,1.1,1,0.7,1.9c-0.5,0.8-1.3,1.2-2.2,1.4c-0.3,0.1-0.7-0.1-1-0.2
		c-0.5-0.1-0.9-0.2-1.3,0.2c-0.2,0.1-0.3,0.4-0.4,0.5c0.4,0.3,0.7,0.5,1,0.8c0.7,0.7,0.8,1.5,0.3,2.4c-0.3,0.4-0.8,0.5-1.3,0.6
		c-1.2,0.3-2.4,0-3.5-0.4c-0.1-0.1-0.3-0.1-0.4-0.1c-0.1,0.3-0.1,0.6,0.2,0.8c0.3,0.3,0.7,0.7,0.9,1c0.3,0.4,0.3,0.8-0.1,1.3
		c-0.6,0.6-1.3,0.6-2.1,0.5c-1-0.2-1.8-0.7-2.6-1.2c-0.6-0.3-1.3-0.7-2-0.9c-0.5-0.1-1,0-1.5,0C144.1,119.2,144,119.2,143.9,119.2"
		/>
	<path style="clip-path:url(#SVGID_00000049937794504679980410000013403165150293025722_);fill:#D2232A;" d="M159.1,89.5
		c0.8,0.4,0.8,1.1,0.7,1.8c0,0.1-0.1,0.2-0.2,0.3c-0.5,0.5-1.2,0.9-1.9,1c-0.9,0.2-1.8,0.2-2.7,0.3c-1.3,0-2.5,0.2-3.7,0.9
		c0.3-1.3,0.3-2.5,0.2-3.7c0-0.8-0.2-1.5-0.5-2.2c-0.1-0.1-0.1-0.3-0.1-0.4c0.1-0.7,0.1-1.4,0.5-2c0.4-0.6,0.8-0.7,1.4-0.4
		c0.1,0.1,0.2,0.1,0.4,0.2c0.2,0.1,0.4,0,0.5-0.1c0.1-0.1,0.1-0.3,0-0.4c-0.2-0.6-0.5-1.1-0.7-1.7c-0.2-0.4-0.3-0.9-0.3-1.4
		c0-0.5,0.2-0.9,0.6-1.3c0.2-0.2,0.3-0.2,0.5-0.1c0.2,0.1,0.4,0.2,0.6,0.3c0.4,0.2,0.6,0.1,0.9-0.2c-0.2-0.7-0.4-1.3-0.6-2
		c-0.1-0.5-0.1-1-0.1-1.4c0-0.3,0.3-0.5,0.7-0.5c0.4,0,0.7,0.1,1,0.3c0.2,0.2,0.5,0.4,0.8,0.6c0.3,0.2,0.5,0.1,0.6-0.1
		c0.3-0.4,0.5-0.9,0.5-1.4c0.1-0.6,0.1-1.2,0.3-1.7c0.4-1,1.1-1.2,1.9-0.7c0.7,0.4,1.1,1.1,1.1,2c0,0.5-0.2,0.9-0.2,1.4
		c-0.1,0.4-0.1,0.7-0.1,1.1c0,0.5,0.4,0.7,0.8,0.6c0.4-0.1,0.8-0.1,1,0.1c0.4,0.3,0.6,0.7,0.6,1.2c0.1,1-0.3,1.8-1.2,2.4
		c-0.5,0.3-0.9,0.7-1.3,1c-0.3,0.2-0.3,0.3-0.3,0.8c0.3,0.3,0.8,0.3,1.2,0.4c0.2,0.1,0.5,0.1,0.6,0.2c0.4,0.2,0.6,0.5,0.7,1
		c0.1,1.2-1,2.8-2.4,3.2c-0.5,0.2-1,0.4-1.5,0.6C159.4,89.3,159.3,89.3,159.1,89.5"/>
	<path style="clip-path:url(#SVGID_00000049937794504679980410000013403165150293025722_);fill:#D2232A;" d="M13.5,67.9
		c-0.5-0.5-1-1.1-1.5-1.6c-0.9-0.9-1.4-1.9-1.9-3c-0.5-1-0.8-2-1-3c-0.2-0.8-0.3-1.7-0.4-2.6c-0.1-0.9-0.1-1.8-0.1-2.7
		c0.1-1,0.2-2,0.4-3c0.2-1.1,0.6-2.2,1-3.3c0.6-1.6,1.5-3.2,2.5-4.6c0.3-0.4,0.6-0.7,1-1.1c0.5,0.6,1,1.2,1.5,1.8
		c0.2,0.3,0.4,0.7,0.5,1.1c0.4,1.1,0.9,2.2,1.1,3.3c0.1,0.7,0.3,1.5,0.4,2.2c0.1,0.5,0.1,1,0.1,1.5c0,1,0,2.1,0,3.1
		c0,0.9-0.2,1.8-0.3,2.7c-0.2,0.9-0.4,1.8-0.6,2.7c-0.3,1.3-0.7,2.5-1.3,3.7c-0.4,0.9-0.9,1.8-1.3,2.7
		C13.6,67.7,13.5,67.8,13.5,67.9"/>
	<path style="clip-path:url(#SVGID_00000049937794504679980410000013403165150293025722_);fill:#D2232A;" d="M146.1,87.9
		c0.3,0.3,0.7,0.5,1,0.8c0.6,0.4,0.6,1,0.4,1.6c-0.1,0.6-0.3,1.1-0.5,1.6c-0.2,0.6-0.2,1.1,0.1,1.7c-0.4,0.3-0.9,0.2-1.3,0.1
		c-0.5-0.1-1-0.2-1.6-0.1c-0.7,0.1-1.4,0-2-0.1c-0.4-0.1-0.7-0.3-0.9-0.6c-0.2-0.2-0.1-0.6,0.1-0.9c0.2-0.2,0.4-0.4,0.6-0.6
		c-0.4-0.4-0.8-0.5-1.3-0.5c-0.6,0-1.1-0.1-1.6-0.4c-0.5-0.3-0.8-0.7-0.8-1.3c0-0.1,0-0.3,0-0.4c0-0.5,0.2-0.7,0.6-0.9
		c0.2-0.1,0.3-0.1,0.6-0.3c-0.4-0.3-0.8-0.6-1.2-0.8c-0.3-0.2-0.5-0.4-0.8-0.7c-0.4-0.4-0.4-1.4,0-1.8c0.3-0.3,0.5-0.6,1-0.6
		c0.1,0,0.2-0.1,0.4-0.2c-0.1-0.2-0.2-0.3-0.3-0.4c-0.5-0.4-1-0.8-1.4-1.2c-0.4-0.4-0.7-0.8-0.8-1.3c-0.1-0.8,0.2-1.6,1-1.8
		c0.2-0.1,0.4-0.1,0.6,0c0.2,0.1,0.4,0.2,0.6,0.2c0.3,0.1,0.5-0.2,0.4-0.5c-0.1-0.2-0.2-0.4-0.4-0.6c-0.4-0.4-0.6-0.8-0.7-1.3
		c-0.1-0.3,0-0.6,0.1-0.8c0.3-0.4,0.6-0.7,1.2-0.8c0.9,0,1.5,0.4,2,1c0.1,0.1,0.1,0.2,0.1,0.2c0,0.5,0.3,0.9,0.6,1.2
		c0.3,0.4,0.6,0.5,1,0.2c0.2-0.1,0.3-0.3,0.5-0.4c0.6-0.4,1.3-0.2,1.7,0.4c0.2,0.4,0.3,0.8,0.4,1.2c0,0.8-0.1,1.6-0.6,2.3
		c-0.2,0.4-0.3,0.8-0.3,1.3c0,0.4,0.4,0.5,0.7,0.3c0.2-0.1,0.4-0.3,0.6-0.4c0.4-0.3,0.8-0.2,1,0.2c0.4,0.8,0.5,1.5,0.4,2.4
		c-0.2,0.9-0.6,1.6-1,2.4C146.2,87.6,146.2,87.8,146.1,87.9"/>
	<path style="clip-path:url(#SVGID_00000049937794504679980410000013403165150293025722_);fill:#D2232A;" d="M96.9,160.7
		c-0.1,0.2-0.3,0.4-0.4,0.6c-0.3,0.4-0.8,0.7-1.3,0.4c-0.3-0.2-0.5-0.4-0.7-0.7c-0.4-0.7-0.5-1.5-0.8-2.3c-0.3-1.1-0.4-1.3-1.2-2.1
		c1.3-1,2.7-1.5,4.3-1.7c0.8-0.1,1.6-0.1,2.4,0c1.2,0.2,1.5,0.9,1.3,2.1c0,0.2-0.1,0.4,0,0.5c0.2,0.6,0.4,0.7,0.9,0.5
		c0.6-0.2,1.3-0.5,1.9-0.7c0.6-0.2,1.2-0.4,1.8-0.3c1,0.1,1,0.1,1.3,1c0.1,0.2,0.1,0.4,0.2,0.6c0.2,0.4,0.4,0.4,0.7,0.2
		c0.9-0.5,1.9-0.4,2.9-0.2c0.5,0.1,0.9,0.7,0.9,1.2c0,0.3-0.2,0.6-0.5,0.7c-0.3,0.1-0.6,0.3-0.9,0.5c-0.2,0.1-0.3,0.2-0.5,0.4
		c0.2,0.1,0.3,0.3,0.4,0.3c1.2,0.2,2,1.1,2.8,1.9c0.6,0.7,0.4,1.5-0.4,1.9c-0.8,0.4-1.6,0.6-2.5,0.1c-0.3-0.2-0.6-0.5-0.9-0.7
		c-0.4-0.3-0.9-0.5-1.5-0.4c-0.3,0-0.4,0.1-0.4,0.4c0,0.3,0.1,0.7,0.3,1c0.2,0.4,0.2,0.7,0.2,1.1c-0.5,0.4-1,0.4-1.6,0.2
		c-0.2,0-0.4-0.1-0.6-0.1c-0.9-0.2-1.4-0.8-1.7-1.7c-0.1-0.3-0.2-0.7-0.4-1c-0.2-0.5-0.5-0.6-1-0.3c-0.2,0.1-0.4,0.2-0.5,0.4
		c-0.4,0.5-1,0.7-1.5,0.7c-0.5,0-0.9-0.2-1.2-0.6c-0.3-0.5-0.3-1-0.4-1.5c-0.1-0.5-0.2-0.9-0.2-1.4
		C97.9,161.2,97.5,160.9,96.9,160.7"/>
	<path style="clip-path:url(#SVGID_00000049937794504679980410000013403165150293025722_);fill:#D2232A;" d="M10.6,95.9
		c-0.8-0.3-1.3-0.8-1.9-1.2c-0.3-0.2-0.5-0.4-0.7-0.6c-1.2-1.1-2.3-2.4-3.2-3.8c-0.6-1-1.2-2-1.7-3.1c-0.4-0.9-0.8-1.8-1.1-2.8
		c-0.3-0.8-0.4-1.7-0.5-2.5c-0.1-0.9-0.2-1.7-0.3-2.6c0-0.1,0-0.3,0-0.4c0-0.6,0-1.2,0-1.9c0-1.1,0.1-2.2,0.3-3.4
		c0.2-0.7,0.3-1.4,0.5-2c0-0.2,0.1-0.3,0.2-0.5c0.1,0.1,0.2,0.1,0.2,0.1c1.3,1.7,2.5,3.3,3.6,5.1c0.8,1.3,1.5,2.6,2.2,4
		c0.9,2,1.7,4.1,2.1,6.3c0.2,0.9,0.4,1.8,0.5,2.7c0.2,1.3,0.3,2.7,0.2,4.1C10.8,94.3,10.7,95.1,10.6,95.9"/>
	<path style="clip-path:url(#SVGID_00000049937794504679980410000013403165150293025722_);fill:#D2232A;" d="M24.6,50
		c0-0.2-0.1-0.4-0.1-0.7c0-0.6-0.1-1.2,0-1.8c0.1-0.9,0.2-1.7,0.4-2.5c0.4-1.5,1-3,1.8-4.4c0.5-1,1.2-1.9,1.9-2.8
		c1.1-1.3,2.3-2.3,3.8-3.2c1.2-0.7,2.4-1.2,3.8-1.5c0.8-0.2,1.7-0.4,2.5-0.6c0.1,0,0.2,0,0.5-0.1c0,0.3-0.1,0.6-0.1,0.9
		c0,0.4-0.1,0.8-0.2,1.2c-0.2,1.4-0.7,2.8-1.3,4.1c-0.7,1.6-1.7,3.1-2.9,4.5c-1,1.2-2.2,2.2-3.3,3.2c-0.7,0.6-1.4,1.2-2.2,1.7
		c-0.9,0.5-1.8,0.9-2.8,1.3C25.9,49.7,25.3,49.9,24.6,50"/>
	<path style="clip-path:url(#SVGID_00000049937794504679980410000013403165150293025722_);fill:#D2232A;" d="M11,126.3
		c0.2-0.3,0.4-0.3,0.6-0.3c1,0,2,0,3,0.1c2.1,0.2,4.1,0.7,6,1.5c2,0.8,3.9,1.9,5.6,3.2c0.5,0.3,0.9,0.7,1.3,1.1
		c0.2,0.2,0.5,0.4,0.7,0.6c1.2,1.3,2.4,2.5,3.4,4c0,0,0.1,0.1,0.1,0.1c0.3,0.5,0.1,0.8-0.5,0.8c-1.2,0-2.3,0.1-3.5,0
		c-1.7-0.1-3.4-0.4-5.1-0.9c-1.8-0.6-3.6-1.4-5.1-2.5c-0.8-0.6-1.5-1.2-2.3-1.8c-0.3-0.2-0.5-0.4-0.7-0.6c-0.8-0.7-1.5-1.6-2-2.5
		C12,128.1,11.5,127.2,11,126.3"/>
	<path style="clip-path:url(#SVGID_00000049937794504679980410000013403165150293025722_);fill:#D2232A;" d="M0,100.5
		c0.9,0.2,1.6,0.4,2.3,0.6c1.5,0.5,2.8,1.1,4.1,1.9c1.7,1,3.2,2.2,4.5,3.6c0.6,0.7,1.2,1.4,1.8,2.2c0.8,1.1,1.5,2.2,2.1,3.5
		c0.7,1.4,1.3,2.9,1.8,4.4c-0.2,0.1-0.4,0.1-0.5,0.1c-1.4,0.1-2.7-0.2-3.9-0.8c-1.5-0.7-2.9-1.5-4.3-2.5c-0.4-0.3-0.7-0.6-1-0.9
		c-0.3-0.2-0.6-0.4-0.8-0.7c-2-2-3.7-4.2-4.8-6.8c-0.6-1.3-1-2.6-1.1-4C0.1,101,0.1,100.8,0,100.5"/>
	<path style="clip-path:url(#SVGID_00000049937794504679980410000013403165150293025722_);fill:#D2232A;" d="M49.2,148.7
		c-1.1,0.8-2.2,1.3-3.4,1.6c-1.7,0.4-3.4,0.5-5.2,0.4c-0.8,0-1.7-0.2-2.5-0.3c-2.1-0.3-4.2-0.8-6.2-1.5c-2.1-0.7-4-1.7-5.7-3
		c-0.1-0.1-0.1-0.2-0.2-0.3c2-1,4-1.5,6.2-1.7c4-0.4,7.9,0,11.6,1.6C45.7,146.3,47.7,147.1,49.2,148.7"/>
	<path style="clip-path:url(#SVGID_00000049937794504679980410000013403165150293025722_);fill:#D2232A;" d="M66.6,154.9
		c0.1,0.5-0.2,0.8-0.5,1c-1.2,0.9-2.5,1.7-3.9,2.4c-1.3,0.6-2.6,1-4,1.2c-1,0.2-1.9,0.3-2.9,0.3c-0.6,0-1.1,0.1-1.7,0.1
		c-0.8,0-1.5-0.2-2.3-0.2c-1.3-0.1-2.5-0.4-3.7-0.7c-1.4-0.4-2.7-0.8-4-1.5c-0.4-0.2-0.4-0.4,0-0.6c0.8-0.4,1.7-0.9,2.5-1.3
		c1.3-0.6,2.7-1,4.1-1.3c0.8-0.2,1.5-0.3,2.3-0.4c0.8-0.1,1.6-0.2,2.4-0.2c1.3-0.2,2.6-0.1,3.9-0.1c1,0,2,0.2,3,0.3
		c1.3,0.1,2.6,0.4,3.9,0.7C66.1,154.7,66.3,154.8,66.6,154.9"/>
	<path style="clip-path:url(#SVGID_00000049937794504679980410000013403165150293025722_);fill:#D2232A;" d="M32.9,52
		c-0.1,0.4-0.1,0.8-0.1,1.1c-0.4,2-1,3.9-1.9,5.7c-0.9,1.6-2,3.1-3.4,4.2c-1.4,1.1-2.9,2.1-4.6,2.6c-1,0.3-2,0.6-3,1
		c-0.2,0-0.3,0-0.5,0.1c-0.1-0.4-0.1-0.8,0-1.2c0.2-0.5,0.3-1,0.4-1.5c0-0.1,0.1-0.2,0.2-0.4c0.7-1.3,1.3-2.6,2.2-3.8
		c0.6-0.7,1.1-1.4,1.7-2.1c0.4-0.4,0.7-0.8,1.1-1.2c1.4-1.2,2.8-2.4,4.5-3.2c1-0.5,2-1,3.1-1.3C32.6,52.1,32.7,52.1,32.9,52"/>
	<path style="clip-path:url(#SVGID_00000049937794504679980410000013403165150293025722_);fill:#D2232A;" d="M21.4,94.5
		c0.4,0.5,0.7,0.9,1,1.4c0.5,0.7,0.9,1.5,1.3,2.3c0.6,1.2,0.9,2.4,1.2,3.7c0.3,1.6,0.3,3.2,0.2,4.8c-0.1,1.5-0.4,3-1,4.4
		c-0.4,1-1,2-1.6,2.8c-0.1,0.1-0.3,0.3-0.4,0.4c-0.6-0.3-0.8-0.9-1.1-1.4c-0.7-1.3-1.2-2.7-1.5-4.1c-0.1-0.5-0.1-1.1-0.1-1.6
		c-0.2-1.4-0.1-2.8-0.1-4.1c0-0.9,0.2-1.8,0.3-2.7c0.1-0.9,0.3-1.8,0.6-2.7C20.3,96.6,20.8,95.6,21.4,94.5"/>
	<path style="clip-path:url(#SVGID_00000049937794504679980410000013403165150293025722_);fill:#D2232A;" d="M132.5,57.1
		c-0.3-0.3-0.6-0.2-0.9-0.2c-1.1,0-1.9-1-1.6-2c0.1-0.4,0.9-1.2,1.6-1.2c0.6,0,1.1,0.1,1.5,0.6c0.2,0.2,0.4,0.5,0.7,0.7
		c0.4,0.4,1,0.2,1.1-0.3c0.2-0.5,0.3-0.6,0.9-0.6c0.5,0,1.1,0.1,1.4,0.6c0.2,0.3,0.3,0.6,0.4,0.9c0.1,0.4,0.1,0.9,0.1,1.3
		c0,0.2,0.1,0.5,0.1,0.7c0.2,0.4,0.5,0.6,1,0.5c0.2-0.1,0.5-0.3,0.7-0.1c0.3,0.2,0.5,0.5,0.7,0.8c0.3,0.7,0.4,1.5,0.6,2.2
		c0.2,0.8,0.4,1.6,0.7,2.3c0.2,0.7,0.7,1.2,1.2,1.6c0.3,0.3,0.5,0.5,0.3,0.9c-0.4,0-0.9,0-1.2,0.1c-0.6,0.2-1.2,0.4-1.8,0.6
		c-0.5,0.2-1.1,0.4-1.7,0.3c-0.7,0-1.6-0.7-1.7-1.4c-0.1-0.3,0-0.6,0.3-0.9c0.3-0.3,0.6-0.5,1-0.8c-0.4-0.3-0.9-0.5-1.5-0.6
		c-0.5-0.1-1-0.2-1.4-0.3c-0.8-0.3-0.9-1-0.5-1.7c0.1-0.2,0.3-0.5,0.4-0.7c-0.4-0.4-0.8-0.3-1.2-0.4c-0.3,0-0.5,0-0.8,0
		c-0.9,0-1.4-0.7-1.3-1.6C131.8,58,132.1,57.5,132.5,57.1"/>
	<path style="clip-path:url(#SVGID_00000049937794504679980410000013403165150293025722_);fill:#D2232A;" d="M34.6,132.4
		c-0.6-0.4-1.2-0.8-1.8-1.3c-0.5-0.4-1-0.9-1.5-1.3c-0.7-0.6-1.2-1.4-1.6-2.1c-0.7-1.2-1.3-2.4-1.6-3.7c-0.2-0.8-0.4-1.7-0.6-2.6
		c-0.2-1.1-0.1-2.2-0.1-3.2c0-1.2,0.3-2.3,0.8-3.4c0.1-0.2,0.1-0.3,0.2-0.6c0.5,0.5,1.1,1,1.5,1.5c0.6,0.7,1.1,1.3,1.5,2
		c1.1,1.7,2.1,3.5,2.7,5.4c0.3,1,0.6,2.1,0.7,3.1c0.1,1,0.3,1.9,0.2,2.9c0,0.7-0.1,1.4-0.2,2c0,0.4-0.1,0.7-0.1,1.1
		C34.7,132.3,34.6,132.4,34.6,132.4"/>
	<path style="clip-path:url(#SVGID_00000049937794504679980410000013403165150293025722_);fill:#D2232A;" d="M125.7,130
		c-0.2-0.7-0.6-1-0.9-1.5c-0.2-0.3-0.5-0.6-0.6-1c-0.2-0.8,0.1-1.3,1-1.2c0.2,0,0.4,0.1,0.6,0.1c0.2,0,0.5,0,0.6-0.2
		c0.1-0.2,0-0.4-0.1-0.6c-0.2-0.3-0.4-0.6-0.6-0.8c-0.3-0.4-0.4-0.8-0.3-1.3c0-0.4,0.3-0.6,0.7-0.7c0.4,0,0.8,0.2,1.2,0.2
		c0.2,0,0.3,0.1,0.5,0.1c0.4-0.1,0.6-0.3,0.5-0.7c0-0.5,0.1-1,0.3-1.4c0.2-0.3,0.4-0.5,0.8-0.5c0.5,0,1,0,1.5,0.3
		c0.6,0.4,1.2,1.5,0.8,2.2c0,0,0,0.1,0,0.1c-0.2,0.8-0.1,0.9,0.7,0.9c0.2,0,0.5,0,0.7,0.1c0.8,0.2,1,0.8,0.7,1.5
		c-0.3,0.6-0.8,0.9-1.3,1.2c-0.4,0.2-0.9,0.4-1.3,0.7c-0.2,0.1-0.4,0.3-0.6,0.6c0.6,0.2,1,0.4,1.3,0.9c0.3,0.4,0.3,0.6-0.1,0.9
		c-0.3,0.2-0.6,0.4-0.9,0.6c-0.4,0.2-0.8,0.4-1.2,0.6c-0.5,0.3-0.8,0.7-0.8,1.3c0,0.1,0,0.3,0,0.4c-0.8,0.2-1.4,0.7-1.9,1.2
		c-0.3,0.3-0.6,0.6-1.1,0.5c-0.3-0.7-0.9-1.3-1.4-1.9c-0.3-0.3-0.5-0.7-0.6-1.1c-0.2-0.6,0.3-1.3,1-1.4
		C125.2,130.1,125.4,130,125.7,130"/>
	<path style="clip-path:url(#SVGID_00000049937794504679980410000013403165150293025722_);fill:#D2232A;" d="M67.5,149.7
		c-1,0.1-1.9,0-2.8-0.2c-1.2-0.3-2.4-0.6-3.5-1.2c-1.1-0.6-2.1-1.2-3.1-2.1c-0.9-0.8-1.7-1.7-2.4-2.7c-0.9-1.3-1.5-2.7-1.9-4.3
		c0-0.1-0.1-0.3-0.1-0.5c0.4-0.3,0.9-0.3,1.3-0.3c0.9,0,1.8,0.2,2.7,0.5c1.4,0.5,2.7,1.3,3.8,2.2c0.7,0.6,1.4,1.3,2,1.9
		c0.8,0.7,1.4,1.6,2,2.5C66.3,147,67,148.2,67.5,149.7"/>
	<path style="clip-path:url(#SVGID_00000049937794504679980410000013403165150293025722_);fill:#D2232A;" d="M139.1,106.3
		c-0.4-0.7-0.8-1.3-1.1-1.9c-0.2-0.4-0.3-0.8-0.3-1.3c0-0.4,0.3-0.6,0.7-0.4c0.2,0.1,0.4,0.2,0.6,0.3c0.4,0.2,0.7,0,0.6-0.5
		c0-0.2-0.1-0.5-0.2-0.7c-0.1-0.4-0.2-0.7-0.3-1.1c-0.1-0.3,0.2-0.9,0.5-1.1c0.5-0.3,1-0.3,1.5,0c0.4,0.3,0.7,0.6,0.9,1
		c0.3,0.6,0.6,1.2,0.6,1.9c0.2,0,0.3,0,0.5,0c0.6,0,1,0.3,1.4,0.6c0,0,0.1,0.1,0.1,0.1c0.3,0.4,0.2,1.6-0.1,2
		c-0.3,0.4-0.7,0.8-1.2,1c-0.1,0-0.2,0.1-0.2,0.2c-0.5,0.4-0.4,0.8,0.2,1c0.2,0.1,0.5,0.2,0.7,0.4c0.5,0.4,0.5,0.8,0.2,1.4
		c-0.2,0.3-0.5,0.6-0.8,0.9c-0.3,0.3-0.7,0.6-1.1,0.9c-0.5,0.5-0.5,0.8,0,1.2c0,0,0.1,0.1,0.1,0.1c-0.3,0.4-0.7,0.7-0.9,1.1
		c-0.2,0.4-0.3,0.9-0.4,1.5c-0.1-0.1-0.2-0.2-0.2-0.3c-0.3-0.6-1-0.9-1.6-1.2c-0.5-0.3-1.1-0.6-1.6-0.9c-0.5-0.3-0.8-1.2-0.5-1.7
		c0.1-0.2,0.3-0.3,0.5-0.4c0.2-0.1,0.5-0.2,0.7-0.4c0.1-0.1,0.2-0.2,0.4-0.3c-0.3-0.3-0.5-0.6-0.7-0.9c-0.2-0.3-0.5-0.5-0.7-0.7
		c-0.5-0.5-0.6-1-0.4-1.7c0.1-0.3,0.4-0.5,0.8-0.4c0.1,0.1,0.3,0.1,0.4,0.2C138.6,106.7,138.7,106.7,139.1,106.3"/>
	<path style="clip-path:url(#SVGID_00000049937794504679980410000013403165150293025722_);fill:#D2232A;" d="M117.3,133.9
		c0.1-0.6,0.2-1.1,0.3-1.6c0.1-0.6,0.5-0.9,1-1.1c0.8-0.3,2-0.1,2.5,0.5c0.6,0.7,0.7,1.7-0.3,2.4c-0.2,0.1-0.4,0.2-0.5,0.3
		c-0.5,0.3-0.5,0.7-0.2,1.2c0.1,0.2,0.3,0.3,0.4,0.4c0.2,0.2,0.3,0.4,0.3,0.7c0,0.7-0.1,0.8-0.7,1c-0.3,0.1-0.5,0.2-0.8,0.3
		c-0.9,0.3-1.2,0.8-1,1.7c0.1,0.5,0.1,0.9,0.1,1.4c0,0.5-0.2,0.7-0.6,0.8c-0.6,0.1-1.2,0.3-1.8,0.3c-0.7,0.1-1.3,0.2-1.9,0.4
		c-0.4,0.1-0.7,0.4-0.9,0.8c-0.2,0.3-0.3,0.6-0.5,1c-0.1,0.1-0.2,0.2-0.3,0.3c-0.1-0.3-0.2-0.5-0.3-0.6c-0.3-0.6-0.7-1.1-1-1.7
		c-0.2-0.3-0.2-0.7-0.2-1.1c0-0.1,0.2-0.3,0.3-0.4c0.2-0.2,0.5-0.3,0.7-0.5c0.3-0.3,0.3-0.6,0-0.9c-0.5-0.5-0.5-1.1-0.5-1.7
		c0-0.3,0.4-0.7,0.9-0.7c0.5,0,0.9,0,1.4,0c0.2,0,0.5,0.1,0.6-0.2c0.1-0.3,0.2-0.6-0.1-0.9c-0.4-0.4-0.6-0.9-0.6-1.5
		c0.1-0.7,0.4-1,1.1-1.1c0.5-0.1,1,0,1.4,0.4C116.6,134.2,117,134.1,117.3,133.9"/>
	<path style="clip-path:url(#SVGID_00000049937794504679980410000013403165150293025722_);fill:#D2232A;" d="M49.6,143.4
		c-0.8,0.1-1.5-0.2-2.2-0.4c-0.9-0.4-1.7-0.7-2.5-1.2c-0.9-0.5-1.6-1.3-2.3-2.1c-1-1.2-1.7-2.5-2.4-3.9c-0.5-1.1-0.9-2.3-1.2-3.4
		c-0.2-0.8-0.4-1.6-0.5-2.4c-0.1-0.3,0.1-0.5,0.4-0.4c0.2,0,0.4,0.1,0.6,0.2c1.3,0.5,2.6,1.2,3.6,2.1c0.6,0.5,1.2,1,1.8,1.6
		c1,1,1.8,2.2,2.5,3.4c0.6,1.1,1.2,2.2,1.5,3.4c0.3,1,0.5,1.9,0.7,2.9C49.6,143.2,49.6,143.3,49.6,143.4"/>
	<path style="clip-path:url(#SVGID_00000049937794504679980410000013403165150293025722_);fill:#D2232A;" d="M22.4,74.4
		C22.5,74.4,22.5,74.4,22.4,74.4c0,0.8-0.1,1.6-0.1,2.3c0,0.4-0.1,0.8-0.1,1.3c-0.1,1.5-0.5,3-0.9,4.5c-0.4,1.3-0.8,2.7-1.4,3.9
		c-0.7,1.5-1.5,2.9-2.4,4.2c-0.5,0.6-1,1.3-1.5,2c-0.2-0.4-0.3-0.7-0.4-1.1c-0.2-0.9-0.5-1.9-0.5-2.9c0-0.5-0.1-1-0.1-1.5
		c0.1-1.2,0.2-2.3,0.6-3.5c0.4-1.3,0.9-2.5,1.6-3.6c0.5-0.9,1.1-1.7,1.7-2.5c0.6-0.6,1.1-1.3,1.7-1.8C21,75.1,21.7,74.6,22.4,74.4"
		/>
	<path style="clip-path:url(#SVGID_00000049937794504679980410000013403165150293025722_);fill:#D2232A;" d="M96.7,149.7
		c0.3-0.7,0.2-1.4,0-2c-0.2-0.6-0.4-1.2-0.7-1.9c0-0.1-0.1-0.2-0.1-0.3c-0.1-0.8,0.1-1,0.9-1c0.5,0,1,0.1,1.5,0
		c0.4-0.1,0.4-0.1,0.4-0.5c-0.1-0.4-0.1-0.7-0.2-1.1c0-0.9,0.6-1.4,1.5-1.5c0.4,0,0.8,0.1,1.1,0.4c0.2,0.2,0.5,0.4,0.8,0.6
		c0.5-0.3,0.7-0.8,0.9-1.2c0.2-0.4,0.4-0.9,0.8-1.2c0.5-0.4,1.1-0.4,1.7-0.3c0.6,0.1,1,0.4,1.4,0.8c0.1,0.1,0.2,0.2,0.2,0.3
		c0,0.5,0,1.1-0.1,1.6c-0.1,0.5-0.6,0.8-1.1,1c-0.3,0.1-0.6,0.2-0.9,0.4c-0.3,0.2-0.3,0.4-0.1,0.7c0.3,0.4,0.5,0.8,0.5,1.3
		c0,0.4-0.2,0.7-0.5,0.9c-0.6,0.5-1.4,0.7-2.2,0.7c-0.7,0.1-1.1,0.5-0.9,1.1c0,0.3,0.1,0.5,0.2,0.8c-0.2,0.1-0.4,0.2-0.6,0.2
		c-1.4,0-2.8,0-4.2,0C97,149.8,96.9,149.8,96.7,149.7"/>
	<path style="clip-path:url(#SVGID_00000049937794504679980410000013403165150293025722_);fill:#D2232A;" d="M150,99.8
		c0.1-0.3,0.1-0.7,0.2-1c0.2-0.8,0.8-1.2,1.6-0.8c0.7,0.4,1.3,0.8,1.9,1.2c0.3,0.2,0.5,0.3,0.7,0.5c0.5,0.4,0.7,1.2,0.1,1.8
		c-0.5,0.4-0.9,0.7-1.5,0.8c-0.4,0.1-0.9,0.2-1.3,0c-0.5-0.2-0.8-0.5-1.1-0.9C150.2,101,150,100.4,150,99.8"/>
	<path style="clip-path:url(#SVGID_00000049937794504679980410000013403165150293025722_);fill:#D2232A;" d="M150.1,71.9
		c-0.1-0.8-0.1-1.5,0.3-2.1c0.3-0.4,0.6-0.7,1-1c0.6-0.5,1.6-0.4,2.2,0.2c0.3,0.2,0.4,0.6,0.5,1c0.1,0.8,0,1.6-0.4,2.4
		C152.4,72.5,151.3,72,150.1,71.9"/>
	<path style="clip-path:url(#SVGID_00000049937794504679980410000013403165150293025722_);fill:#D2232A;" d="M144.4,71.1
		c0.6,0.8,0.6,1.7,0.6,2.6c0,0.6-0.7,1.3-1.4,1.3c-1.2,0.1-2.2-0.3-3-1.4c-0.3-0.4-0.2-0.7,0.2-1c1-0.6,1.9-1.2,3.1-1.5
		C144.2,71.1,144.3,71.1,144.4,71.1"/>
	<path style="clip-path:url(#SVGID_00000049937794504679980410000013403165150293025722_);fill:#D2232A;" d="M152.1,96.6
		c0.4-0.8,0.8-1.5,1.7-1.8c0.8-0.2,1.6-0.2,2.1,0.4c0.5,0.4,0.7,1,0.5,1.7c-0.2,0.6-0.4,1.2-0.8,1.6c-0.2,0.2-0.5,0.3-0.8,0.1
		c-0.6-0.2-1.1-0.6-1.6-1C152.9,97.4,152.5,97,152.1,96.6"/>
	<path style="clip-path:url(#SVGID_00000049937794504679980410000013403165150293025722_);fill:#D2232A;" d="M149.9,73.1
		c1.1,0.1,2,0.3,3,0.4c0.1,0,0.3,0,0.4,0c0.4,0,0.6,0.1,0.6,0.5c0,0.4,0,0.7,0,1.1c-0.1,0.7-1,1.6-1.8,1.7c-0.7,0.1-1.2-0.2-1.7-0.7
		c-0.7-0.7-0.9-1.5-0.8-2.4C149.7,73.5,149.8,73.3,149.9,73.1"/>
	<path style="clip-path:url(#SVGID_00000049937794504679980410000013403165150293025722_);fill:#D2232A;" d="M92.1,150.4
		c-1.1-0.5-2.1-1-2.7-2c0.5-0.8,0.9-1.6,1.8-2.1c0.5-0.3,1.1-0.3,1.6,0c0.4,0.3,0.6,0.8,0.6,1.3c0,0.6,0,1.3-0.4,1.9
		C92.6,149.8,92.3,150.1,92.1,150.4"/>
	<path style="clip-path:url(#SVGID_00000049937794504679980410000013403165150293025722_);fill:#D2232A;" d="M143.2,127
		c-1-0.1-1.8-0.2-2.3-0.8c-0.4-0.4-0.4-1.4-0.1-1.8c0.5-0.5,1-1.1,1.5-1.6c0.3-0.3,0.5-0.3,0.7,0.1c0.2,0.4,0.4,0.8,0.5,1.2
		c0.2,0.7,0.5,1.4,1,1.9c0.3,0.2,0.2,0.4-0.1,0.6C144,126.8,143.5,127.1,143.2,127"/>
	<path style="clip-path:url(#SVGID_00000049937794504679980410000013403165150293025722_);fill:#D2232A;" d="M71.5,157.7
		c0,1.1-0.8,1.7-1.9,1.8c-1,0.1-2-0.9-2-1.8c0-1.1,0.9-1.9,2-1.9C70.6,155.8,71.7,156.5,71.5,157.7"/>
	<path style="clip-path:url(#SVGID_00000049937794504679980410000013403165150293025722_);fill:#D2232A;" d="M20.2,123.3
		c0,1.2-0.9,1.9-1.9,1.9c-1,0-1.8-0.6-1.9-1.9c0-1.2,0.9-1.9,1.9-1.9C19.4,121.4,20.3,122.2,20.2,123.3"/>
	<path style="clip-path:url(#SVGID_00000049937794504679980410000013403165150293025722_);fill:#D2232A;" d="M11.6,99.8
		c0.1,1.1-0.9,1.9-1.9,1.9c-1.1,0-1.8-0.7-1.9-1.9c0-0.9,0.7-1.9,1.9-1.8C10.8,98.1,11.6,98.8,11.6,99.8"/>
	<path style="clip-path:url(#SVGID_00000049937794504679980410000013403165150293025722_);fill:#D2232A;" d="M72.8,151.6
		c-0.9,0.2-2-0.8-1.9-1.7c0.1-1.1,0.7-1.8,2-1.9c0.9,0,1.9,0.8,1.9,1.8C74.7,150.8,74,151.8,72.8,151.6"/>
	<path style="clip-path:url(#SVGID_00000049937794504679980410000013403165150293025722_);fill:#D2232A;" d="M11.6,73.2
		c0.1,1-0.9,1.8-1.9,1.8c-0.9,0-2-0.7-1.9-1.8c0.1-1,0.8-1.8,1.9-1.8C10.8,71.3,11.6,72.1,11.6,73.2"/>
	<path style="clip-path:url(#SVGID_00000049937794504679980410000013403165150293025722_);fill:#D2232A;" d="M17.2,71.6
		c0-1.1,0.7-1.8,1.8-1.8c1,0,1.9,0.8,1.8,1.8c0,1.1-0.8,1.7-1.8,1.8C18.2,73.4,17,72.5,17.2,71.6"/>
	<path style="clip-path:url(#SVGID_00000049937794504679980410000013403165150293025722_);fill:#D2232A;" d="M91.8,151.5
		c-0.7,0.6-1.4,1.1-2.2,1.3c-0.3,0.1-0.7,0.1-1.1,0c-0.5-0.1-0.7-0.5-0.9-0.9c-0.3-0.6-0.3-1.3,0.1-1.9c0.2-0.4,0.4-0.7,0.7-1.1
		C89.6,149.8,90.7,150.6,91.8,151.5"/>
	<path style="clip-path:url(#SVGID_00000049937794504679980410000013403165150293025722_);fill:#D2232A;" d="M51.1,152.9
		c-1.1,0-1.7-0.6-1.7-1.6c0-1,0.7-1.6,1.8-1.6c1,0,1.7,0.6,1.7,1.6C52.9,152.3,52.3,152.9,51.1,152.9"/>
	<path style="clip-path:url(#SVGID_00000049937794504679980410000013403165150293025722_);fill:#D2232A;" d="M138.1,119.7
		c-0.5,0.7-0.7,1.5-1.4,1.9c-0.9,0.5-1.6,0.4-2.2-0.4c-0.5-0.6-0.4-1.3-0.4-2c0-0.2,0.2-0.3,0.4-0.3c0.8,0,1.5,0.1,2.2,0.3
		C137.1,119.3,137.6,119.4,138.1,119.7"/>
	<path style="clip-path:url(#SVGID_00000049937794504679980410000013403165150293025722_);fill:#D2232A;" d="M134.6,118.1
		c-0.1-0.7,0-1.4,0.4-1.9c0.2-0.3,0.5-0.6,0.7-0.8c0.2-0.2,0.8-0.1,1.1,0.1c0.2,0.2,0.4,0.4,0.5,0.6c0.4,0.7,0.6,1.3,0.6,2.1
		c0,0.2-0.1,0.4-0.4,0.4C136.5,118.4,135.5,118.5,134.6,118.1"/>
	<path style="clip-path:url(#SVGID_00000049937794504679980410000013403165150293025722_);fill:#D2232A;" d="M140.4,71.9
		c-0.6-1-0.9-1.8-0.4-2.8c0.3-0.8,1-0.8,1.6-0.6c0.6,0.2,1.2,0.6,1.3,1.4c0,0,0,0,0,0.1c0.3,0.8,0.3,0.8-0.5,1.2
		C141.7,71.3,141.1,71.6,140.4,71.9"/>
	<path style="clip-path:url(#SVGID_00000049937794504679980410000013403165150293025722_);fill:#D2232A;" d="M145.3,125.1
		c-0.3-1-1.1-1.8-1.1-2.9c0.6-0.3,1.3-0.5,2-0.5c0.9,0,1.2,0.5,1.4,1.1c0,0.1,0,0.2,0,0.3c-0.2,0.9-0.8,1.5-1.7,1.9
		C145.8,125.1,145.6,125,145.3,125.1"/>
	<path style="clip-path:url(#SVGID_00000049937794504679980410000013403165150293025722_);fill:#D2232A;" d="M34.2,142.7
		c-0.9,0.1-1.6-0.8-1.6-1.5c0.1-0.9,0.7-1.6,1.6-1.6c0.9,0,1.7,0.7,1.7,1.6C35.9,142,35.1,142.7,34.2,142.7"/>
	<path style="clip-path:url(#SVGID_00000049937794504679980410000013403165150293025722_);fill:#D2232A;" d="M124,142.7
		c0.3,0.7,0.6,1.3,0.8,2c0.1,0.4,0.1,0.9,0.1,1.3c0,0.1-0.2,0.3-0.3,0.3c-0.7,0.1-1.3-0.1-1.9-0.4c-0.5-0.2-0.8-0.6-1-1
		c0-0.1-0.1-0.2-0.1-0.3c0.3-0.8,0.6-1.5,1.5-1.8C123.5,142.8,123.7,142.8,124,142.7"/>
	<path style="clip-path:url(#SVGID_00000049937794504679980410000013403165150293025722_);fill:#D2232A;" d="M105.7,156.1
		c-0.1-0.8,0.1-1.5,0.4-2.2c0.2-0.5,0.5-0.6,1-0.5c0.4,0.1,0.9,0.2,1.2,0.4c0.5,0.3,0.7,0.9,0.4,1.4c-0.1,0.2-0.3,0.5-0.6,0.6
		C107.4,156.3,106.6,156.3,105.7,156.1"/>
	<path style="clip-path:url(#SVGID_00000049937794504679980410000013403165150293025722_);fill:#D2232A;" d="M21.9,50.2
		c0.1,0.8-0.5,1.4-1,1.5c-0.7,0.2-1.3-0.1-1.6-0.7c-0.6-1,0.1-2.2,1-2.4c0.5-0.1,1.1,0.1,1.4,0.6C21.9,49.5,22,49.8,21.9,50.2"/>
	<path style="clip-path:url(#SVGID_00000049937794504679980410000013403165150293025722_);fill:#D2232A;" d="M54.2,144.3
		c0,0.8-0.6,1.4-1.5,1.4c-0.8,0-1.6-0.7-1.5-1.5c0.1-0.8,0.7-1.3,1.5-1.3C53.7,142.9,54.2,143.4,54.2,144.3"/>
	<path style="clip-path:url(#SVGID_00000049937794504679980410000013403165150293025722_);fill:#D2232A;" d="M143.1,98.5
		c-0.4-0.7-0.4-1.5-0.1-2.2c0.2-0.6,0.9-0.9,1.6-0.7c0.5,0.2,0.7,0.6,0.9,1c0.1,0.4,0.1,0.8,0.2,1.1
		C145.1,98.3,144.1,98.4,143.1,98.5"/>
	<path style="clip-path:url(#SVGID_00000049937794504679980410000013403165150293025722_);fill:#D2232A;" d="M146.4,99.6
		c-0.1,0.4-0.2,0.9-0.5,1.2c-0.6,0.6-1.7,0.5-2.2-0.3c-0.2-0.2-0.3-0.5-0.4-0.8c-0.2-0.4-0.1-0.6,0.3-0.7c0.4-0.1,0.8-0.2,1.2-0.3
		c0.3-0.1,0.6-0.1,0.9-0.3c0.3-0.1,0.4,0,0.5,0.2C146.3,98.9,146.3,99.3,146.4,99.6"/>
	<path style="clip-path:url(#SVGID_00000049937794504679980410000013403165150293025722_);fill:#D2232A;" d="M104.8,155.9
		c-0.5-0.2-1-0.4-1.4-0.6c-1-0.5-0.7-1.4-0.3-2c0.4-0.5,0.9-0.6,1.5-0.6c0.3,0,0.6,0.1,0.8,0.2c0.2,0.1,0.2,0.2,0.2,0.4
		c-0.2,0.7-0.4,1.5-0.6,2.2C105,155.7,104.9,155.8,104.8,155.9"/>
	<path style="clip-path:url(#SVGID_00000049937794504679980410000013403165150293025722_);fill:#D2232A;" d="M125.7,146
		c0-1.3-0.4-2.4-1-3.4c0.7-0.2,1.4-0.3,2,0.1c0.3,0.2,0.6,0.5,0.8,0.8c0.3,0.3,0.2,0.9-0.2,1.3C127,145.2,126.4,145.6,125.7,146"/>
	<path style="clip-path:url(#SVGID_00000049937794504679980410000013403165150293025722_);fill:#D2232A;" d="M24.4,118.4
		c-0.8,0-1.4-0.6-1.4-1.3c0-0.8,0.6-1.3,1.5-1.4c0.7-0.1,1.4,0.6,1.5,1.3C26,117.8,25.3,118.4,24.4,118.4"/>
	<path style="clip-path:url(#SVGID_00000049937794504679980410000013403165150293025722_);fill:#D2232A;" d="M140.8,52.4
		c0.5-0.1,1-0.2,1.5-0.3c0.3-0.1,0.7-0.1,1,0c0.3,0.1,0.6,0.5,0.5,0.8c-0.2,0.6-0.5,1.2-1.1,1.6c-0.6,0.3-1,0.3-1.4-0.3
		C141,53.7,140.7,53.1,140.8,52.4"/>
	<path style="clip-path:url(#SVGID_00000049937794504679980410000013403165150293025722_);fill:#D2232A;" d="M15.6,96.5
		c0-0.7,0.4-1.2,1.1-1.2c0.7,0,1.3,0.5,1.3,1.2c0,0.7-0.5,1.2-1.2,1.1C16,97.7,15.6,97.3,15.6,96.5"/>
	<path style="clip-path:url(#SVGID_00000049937794504679980410000013403165150293025722_);fill:#D2232A;" d="M141.5,51.6
		c-0.7,0-0.8-0.4-0.8-0.9c0.1-0.4,0.2-0.9,0.5-1.3c0.3-0.4,0.9-0.4,1.3,0c0.2,0.2,0.4,0.5,0.6,0.8c0.2,0.4,0.1,0.8-0.4,1
		C142.3,51.4,141.9,51.5,141.5,51.6"/>
	<path style="clip-path:url(#SVGID_00000049937794504679980410000013403165150293025722_);fill:#D2232A;" d="M109.2,142.4
		c0.6,0,0.9,0.4,1.1,0.8c0.2,0.4,0,0.8-0.2,1.1c-0.2,0.3-0.4,0.6-0.9,0.6c-0.1,0-0.3-0.1-0.4-0.2c-0.2-0.2-0.4-0.4-0.6-0.6
		c-0.3-0.3-0.4-0.6-0.2-1C108.3,142.7,108.6,142.4,109.2,142.4"/>
	<path style="clip-path:url(#SVGID_00000049937794504679980410000013403165150293025722_);fill:#D2232A;" d="M108.9,145.7
		c-0.5,0.6-1.2,0.8-1.9,0.6c-0.3-0.1-0.5-0.4-0.6-0.7c-0.1-0.5-0.1-1,0.3-1.4c0.3-0.3,0.4-0.4,0.7-0.1
		C107.9,144.7,108.4,145.2,108.9,145.7"/>
	<path style="clip-path:url(#SVGID_00000049937794504679980410000013403165150293025722_);fill:#D2232A;" d="M37.8,136.2
		c-0.6,0-1.1-0.4-1.1-1c0-0.5,0.6-1,1.2-1c0.5,0,1.1,0.5,1.1,1C39,135.7,38.5,136.2,37.8,136.2"/>
	<path style="clip-path:url(#SVGID_00000049937794504679980410000013403165150293025722_);fill:#D2232A;" d="M122.3,136.1
		c0.1-0.3,0.3-0.5,0.4-0.7c0.4-0.7,1.1-0.8,1.6-0.3c0.1,0.1,0.2,0.3,0.2,0.4c0,0.1,0,0.3,0,0.4c0,0.7-0.5,1-1.2,0.7
		C123,136.6,122.7,136.3,122.3,136.1"/>
	<path style="clip-path:url(#SVGID_00000049937794504679980410000013403165150293025722_);fill:#D2232A;" d="M123.3,137.4
		c0,0.6,0,0.7-0.5,0.8c-0.5,0.2-0.8,0-0.9-0.5c0-0.1,0-0.3,0-0.4c0-0.2,0-0.3,0-0.5C122.5,136.8,122.9,137.1,123.3,137.4"/>
</g>
</svg>
